<svg width="449" height="361" viewBox="0 0 449 361" fill="none" xmlns="http://www.w3.org/2000/svg">
<g clip-path="url(#clip0_55_296)">
<path fill-rule="evenodd" clip-rule="evenodd" d="M258.429 360.837C312.182 360.837 359.353 320.818 332.862 266.46C306.37 212.104 404.803 213.86 433.718 176.292C468.979 130.476 458.768 -64.0035 232.397 54.5607C196.136 73.5534 103.007 35.0218 72.1159 54.1405C35.7539 76.6449 -15.4052 122.727 35.7539 169.931C60.954 193.183 -29.394 253.535 10.1766 307.594C48.7876 360.343 75.8536 310.058 134.638 320.818C193.423 331.576 218.507 360.837 258.429 360.837Z" fill="black"/>
<path d="M196.039 266.272C196.039 266.272 208.415 260.444 213.036 256.391C217.657 252.337 223.401 242.264 223.401 242.264C223.401 242.264 286.501 287.875 327.644 281.369C337.123 279.87 355.595 273.563 356.772 262.452C359.989 232.109 315.487 224.355 325.208 208.968C331.142 199.576 349.574 213.555 349.574 213.555L426.029 251.194C426.029 251.194 399.616 316.359 335.518 318.97C256.669 322.183 196.039 266.272 196.039 266.272Z" fill="white"/>
<path fill-rule="evenodd" clip-rule="evenodd" d="M135.422 11.0686C134.704 10.7867 130.851 6.06389 125.958 5.20432C123.735 4.81371 125.753 7.64708 123.306 7.67256C116.019 7.74847 104.177 6.37823 101.983 7.67256C100.353 8.63144 103.943 11.9814 101.983 12.1351C83.4872 13.5862 55.2711 32.0695 49.1493 41.0366C47.2011 43.8904 62.958 39.0486 60.4475 40.4595C57.6297 42.0429 54.5045 52.4112 52.6361 60.4191C51.3425 65.9336 50.5281 73.0303 50.2406 80.7504C50.001 87.4155 50.0969 88.5186 51.0551 92.1627C52.157 96.2392 53.0194 97.4374 54.5045 96.8624C55.0315 96.6708 55.2711 95.951 55.2711 94.6088C55.2711 93.5533 55.8461 90.3889 56.5647 87.5596L57.8103 82.4767L58.3373 84.5869C59.0081 87.0322 62.9366 94.6088 66.4819 100.123C66.6731 100.415 67.4958 100.043 68.2376 98.2485C68.9137 96.6136 68.6393 94.0004 69.7877 91.2008C72.4036 84.8224 77.5397 76.5291 83.4872 69.8913C92.2772 60.0806 95.1931 48.7267 103.433 39.6127C118.81 22.604 138.109 12.1241 135.422 11.0686Z" fill="white"/>
<path fill-rule="evenodd" clip-rule="evenodd" d="M60.666 42.7736C58.1994 44.7588 54.5379 60.8614 54.4751 61.1306C53.1816 66.645 51.9347 85.7947 53.2093 89.4203C54.4838 93.0459 58.0528 79.9764 58.0528 79.9764C58.0528 79.9764 63.4472 93.996 68.2137 97.8399C68.4174 98.0041 62.5481 80.4949 60.666 70.2728C58.1815 56.7795 62.0698 41.6438 60.666 42.7736Z" fill="#E7EAEE"/>
<path fill-rule="evenodd" clip-rule="evenodd" d="M152.604 324.787C157.203 323.78 164.963 320.273 167.935 319.074C170.906 317.875 179.96 305.078 183.218 290.645C185.565 280 186.763 264.848 185.421 262.306C185.223 261.946 184.499 255.055 186.428 257.305C190.716 262.306 195.806 270.157 211.867 256.089C216.241 252.257 222.04 247.312 220.513 242.94C216.241 230.707 197.725 206.076 194.903 204.21C191.528 201.979 174.469 203.875 149.083 196.375C120.292 187.87 108.304 162.825 97.0373 166.085C87.926 168.722 66.0955 184.924 60.6168 195.184C34.752 243.623 66.0955 277.565 73.2337 287.314L80.1646 290.309L80.4036 296.495L80.739 300.38C81.3617 307.812 81.6014 308.483 84.9552 310.977C93.3392 317.355 109.868 323.3 124.816 325.41C131.762 326.369 146.854 326.034 152.604 324.787Z" fill="white"/>
<path fill-rule="evenodd" clip-rule="evenodd" d="M82.8905 294.231L83.2252 298.115C83.8486 305.548 84.0876 306.219 87.4413 308.712C92.3878 312.474 100.168 316.087 108.786 318.85C114.777 320.77 121.173 322.281 127.302 323.146C134.249 324.104 149.34 323.769 155.09 322.522C157.931 321.907 134.557 303.526 120.786 308.712C110.211 312.695 85.2869 282.315 95.4209 274.379C106.789 265.475 85.9578 230.358 85.2869 222.734C84.616 215.11 81.9747 213.289 81.8975 213.556C81.8203 213.823 81.8203 214.736 82.0281 216.934C82.9217 226.407 82.8905 294.231 82.8905 294.231Z" fill="#E7EAEE"/>
<path fill-rule="evenodd" clip-rule="evenodd" d="M80.3947 220.558C81.4003 220.362 82.374 221.019 82.5699 222.025C86.1856 240.618 101.481 253.206 128.83 259.788C156.342 266.409 175.082 266.053 184.955 258.985C185.789 258.388 185.168 263.497 184.557 263.889C178.117 268.022 156.221 274.19 130.092 268.615C96.6826 261.488 80.9958 233.372 78.9274 222.736C78.7322 221.728 79.3883 220.754 80.3947 220.558Z" fill="black"/>
<path fill-rule="evenodd" clip-rule="evenodd" d="M66.4626 187.012C67.352 186.503 100.535 224.566 146.073 233.182C191.611 241.798 202.636 236.318 204.409 224.566C204.562 223.552 205.507 222.854 206.52 223.007C207.533 223.16 208.231 224.106 208.078 225.12C205.831 240.015 184.76 243.557 145.449 236.843C106.631 230.213 80.0171 214.462 65.7736 189.546C65.2647 188.656 65.5732 187.521 66.4626 187.012Z" fill="black"/>
<path fill-rule="evenodd" clip-rule="evenodd" d="M257.593 184.901C256.347 184.47 255.006 183.511 254.144 182.408L252.706 180.633L257.785 175.598C265.594 167.926 271.583 160.062 276.757 150.712C278.482 147.595 282.841 137.19 282.841 136.182C282.841 135.847 283.368 134.504 283.991 133.113C284.949 131.099 285.668 130.332 287.728 129.182C290.171 127.743 292.951 127.264 294.148 128.079C296.448 129.613 296.448 134.456 294.148 142.799C291.609 151.959 288.208 158.528 281.165 167.974C280.062 169.413 278.002 172.242 276.517 174.208C272.541 179.482 269.954 182.024 266.457 183.99C263.007 185.908 260.994 186.148 257.593 184.901ZM291.992 180.585L295.441 182.12C296.157 182.451 304.047 186.245 313.526 190.803C328.808 198.153 348.215 207.486 348.333 207.486C348.525 207.486 349.424 205.405 349.627 202.979C350.106 197.752 351.879 190.656 353.939 185.716C354.897 183.511 355.664 180.753 355.664 180.514C355.664 180.404 354.885 180.09 353.61 179.575C352.092 178.962 349.87 178.066 347.424 176.893C335.35 171.091 311.731 159.247 308.808 157.473C305.934 155.795 305.359 155.65 305.359 156.753C305.359 158.192 302.436 164.857 300.184 168.454C298.986 170.419 296.639 173.968 294.963 176.318L291.992 180.585ZM347.519 198.855C348.893 199.652 346.513 200.821 345.938 201.012C342.553 201.301 338.568 200.663 335.302 198.759C333.595 197.547 320.151 190.072 311.233 185.114C307.157 182.847 304.026 181.105 303.395 180.73C301.382 179.531 299.466 178.236 299.13 177.852C298.124 176.557 299.083 175.982 301.909 176.221C303.609 176.366 344.551 197.133 347.519 198.855ZM152.767 324.392C156.463 323.582 162.2 321.159 165.852 319.616C166.746 319.239 167.514 318.915 168.098 318.679C171.07 317.479 180.123 304.684 183.381 290.251C185.729 279.605 186.926 264.453 185.585 261.911C184.776 260.439 189.581 265.377 193.16 269.054C194.245 270.168 195.217 271.167 195.886 271.837C216.774 292.6 247.867 309.287 280.158 317.103C296.256 321.035 307.706 322.426 323.086 322.426C348.909 322.426 369.27 317.343 387.763 306.17C388.642 305.639 389.465 305.152 390.249 304.687C396.696 300.867 400.536 298.592 411.047 286.75C422.837 273.467 433.325 242.634 436.823 231.989C438.355 227.195 442.093 208.122 442.093 203.363C442.093 197.728 440.128 195.067 437.445 192.334C432.702 187.682 426.282 186.004 420.965 188.018L418.473 188.977L417.707 186.436C416.604 182.599 414.305 179.531 410.76 177.229C405.489 173.729 404.723 173.489 399.98 173.489C396.291 173.489 395.285 173.68 392.937 174.783L390.206 176.03L389.632 174.304C388.53 170.755 384.834 165.809 381.966 164.378C379.423 163.109 375.02 162.992 371.953 163.563C365.246 164.809 360.455 167.926 358.491 172.29C357.915 173.632 357.197 174.688 356.91 174.688C356.67 174.688 347.231 172.049 335.973 167.062C334.074 166.218 332.29 165.427 330.615 164.684C310.397 155.714 306.015 153.77 306.412 151.335C306.748 149.273 306.652 148.122 306.078 146.348C305.071 143.375 303.922 142.56 300.664 142.56C298.077 142.56 298.077 142.56 298.364 141.265C299.897 133.929 299.849 129.709 298.221 127.024C297.119 125.249 295.825 124.53 292.854 124.099C291.129 123.859 290.315 124.003 288.399 125.058C287.105 125.729 286.003 126.208 285.908 126.112C285.812 126.016 286.147 123.38 286.674 120.263C290.602 97.1981 287.568 77.3253 277.555 56.2267C277.458 56.0248 277.348 55.7861 277.22 55.5129C274.176 48.9719 261.936 22.6702 226.931 9.3987C225.347 8.79808 223.848 8.21728 222.406 7.65907C210.482 3.03955 202.555 -0.0316235 183.429 0.000245702C161.992 0.035966 154.731 3.06914 140.598 9.54258C138.633 10.4536 136.909 10.9812 136.765 10.7893C136.621 10.5496 135.712 9.97415 134.801 9.4946C133.89 9.01512 131.927 7.81632 130.489 6.8573C126.369 4.07612 123.83 2.92528 122.536 3.21299C121.051 3.59661 121.051 4.84334 122.536 5.41876C123.159 5.65852 123.877 6.47369 124.165 7.28887C124.788 9.01512 125.506 9.20691 125.937 7.76841C126.13 7.24091 126.417 6.8573 126.561 6.9532C126.615 6.98048 126.798 7.06594 127.076 7.19636C127.776 7.52449 129.083 8.13706 130.489 8.82333C132.454 9.78236 134.609 10.7893 135.184 11.0291C136.238 11.4127 135.903 11.7004 131.351 14.3857C113.577 24.8391 99.108 41.0947 91.0119 59.6039C89.7659 62.385 88.6638 64.1113 87.5142 65.0703C84.5916 67.5158 78.8429 74.4685 77.5011 77.202C76.7827 78.6883 75.2494 80.9903 74.0517 82.3325C72.9019 83.6755 71.6562 85.4018 71.225 86.1208C70.8417 86.8881 70.4585 87.4155 70.3147 87.3197C70.2189 87.1763 70.3627 84.8261 70.698 82.0933C71.4167 75.7157 71.4167 74.0372 70.8417 73.8934C69.9793 73.6537 68.7337 77.0104 68.2067 81.1819C67.8235 83.7238 67.7277 87.5596 67.9672 91.492L68.2547 97.7255L64.853 92.211C63.6834 90.3674 62.5316 88.523 61.7135 87.2134L61.7131 87.2127L61.7124 87.212L61.7108 87.209L61.71 87.2082L61.7095 87.2075L61.7093 87.2068L61.7088 87.206L61.7075 87.2038C61.1883 86.3726 60.8044 85.7583 60.637 85.4976C59.3914 83.6755 58.6727 80.942 59.1997 80.0313C59.4872 79.5039 59.4393 79.264 58.9602 79.264C57.9541 79.264 55.9898 82.4766 54.6963 86.1691C54.0734 87.8953 53.4506 89.3341 53.259 89.3341C52.5403 89.3341 52.8757 72.1672 53.6422 66.6528C55.2233 55.7677 59.3914 42.3414 61.2598 42.3414C61.6432 42.3414 61.9785 42.1496 61.9785 41.8619C61.9785 40.9988 60.7328 41.3344 59.7267 42.4373C57.475 44.8828 54.5046 52.4112 52.6362 60.4191C51.3426 65.9335 50.5281 73.0303 50.2406 80.7504C50.0011 87.4155 50.097 88.5185 51.0551 92.1627C52.157 96.2384 53.0194 97.4373 54.5046 96.8624C55.0316 96.67 55.2711 95.951 55.2711 94.6087C55.2711 93.5532 55.8461 90.3889 56.5647 87.5596L57.8103 82.4766L58.3373 84.5869C59.0081 87.0322 62.9367 94.6087 66.482 100.123C68.9253 103.863 68.9733 104.103 69.7877 109.953C70.2189 113.262 71.5604 121.309 74.6743 133.689C77.4261 144.627 92.894 155.477 96.7569 158.187L96.7591 158.189C97.2667 158.544 97.5733 158.76 97.623 158.816C98.1024 159.343 98.7733 159.63 99.1563 159.487C99.5874 159.343 99.8272 159.535 99.8272 160.062C99.8272 160.542 100.163 161.165 100.546 161.452C101.025 161.788 101.36 163.083 101.456 165.337C101.695 169.845 105.049 178.476 107.636 181.304C109.313 183.127 112.81 183.894 116.691 183.222C119.231 182.839 119.949 182.552 119.709 181.976C119.565 181.593 120.476 182.072 121.721 183.031C136.286 194.156 151.042 200.821 167.619 203.698C174.039 204.801 184.675 205.424 190.472 204.992C195.598 204.657 195.598 204.657 195.359 205.664C195.023 207.007 195.454 207.822 202.497 219.761C208.102 229.208 208.582 229.831 214.81 236.209C228.033 249.875 242.453 260.473 258.791 268.672C274.17 276.345 298.723 282.722 321.169 284.736C343.615 286.75 359.736 266.131 359.688 260.856C359.593 253.615 358.586 248.868 356.143 244.265C353.747 239.806 352.167 238.271 344.98 233.476C336.979 228.154 332.044 223.79 328.787 219.138C326.727 216.213 325.96 212.905 325.96 211.131C325.96 209.979 327.445 207.39 329.649 206.863C331.661 206.335 332.044 206.384 334.296 207.486C335.638 208.11 339.135 209.74 342.01 211.131C344.932 212.473 347.759 213.816 348.333 214.103C350.029 214.574 350.745 217.895 351.134 219.695C351.22 220.097 351.291 220.423 351.352 220.624C352.023 223.118 355.197 226.338 357.244 227.434C360.841 229.359 369.702 229.616 372.145 226.979C372.769 226.308 374.833 225.482 375.259 225.732C375.684 225.982 377.223 228.058 377.223 229.736C377.271 232.613 378.756 235.25 381.918 237.887C387.907 242.874 392.554 244.073 397.249 241.867C399.692 240.716 401.695 240.267 401.695 240.267C401.695 240.267 403.693 242.818 403.813 243.689C404.754 250.503 414.831 253.359 417.514 253.646C418.13 253.708 419.326 253.444 420.542 253.177C422.167 252.82 423.826 252.455 424.174 252.849C424.859 253.621 412.724 273.707 411.047 276.248C395.093 300.224 364.048 314.897 326.056 316.432C301.382 317.439 271.056 310.534 244.753 297.971C227.937 289.867 213.038 279.941 197.084 266.035C194.304 263.637 191.094 260.904 189.945 259.945C188.795 259.034 186.064 255.917 183.956 253.04C180.41 248.245 178.398 246.518 178.398 248.149C178.398 248.868 180.698 253.279 183.333 257.643C184.388 259.37 185.058 260.568 184.819 260.377C184.579 260.184 183.812 263.637 183.094 268.048C180.746 282.194 176.865 296.149 172.937 304.827C170.781 309.527 166.647 313.036 165.401 313.995C160.802 317.496 153.917 319.069 144.383 320.028C132.31 321.227 114.535 318.542 100.977 313.459C97.3833 312.116 88.1368 308.232 87.5142 307.801C87.4771 307.763 87.2648 306.384 86.9687 304.458C86.8848 303.915 86.7943 303.329 86.7 302.718C84.9753 290.874 82.5796 245.272 82.5796 224.174C82.5796 215.446 82.4839 213.528 81.9087 213.528C80.7109 213.528 80.2322 214.679 79.7053 218.802C78.5075 228.201 78.7472 277.255 80.0407 287.565L80.3279 289.915L78.6989 289.004C76.2075 287.565 66.7215 277.927 63.4158 273.467C60.6172 269.655 58.9538 264.772 57.7094 261.119C57.42 260.269 57.1532 259.486 56.9001 258.798C49.9532 239.522 52.3966 217.892 61.9785 198.423C70.1231 181.832 80.1365 172.626 94.7961 168.166C97.1918 167.447 99.3002 166.68 99.5392 166.488C100.45 165.625 94.6047 166.056 91.3949 167.063C80.9506 170.276 70.0273 179.051 62.6014 190.272C52.157 206 47.4619 229.208 50.7676 249.012C51.5342 253.711 54.6483 263.877 55.5107 264.597C55.5871 264.672 55.9811 265.5 56.577 266.752C58.2248 270.211 61.4162 276.912 63.7032 279.941C66.482 283.729 74.8665 291.976 78.3635 294.518L80.5677 296.1L80.9031 299.984C81.5258 307.417 81.7655 308.088 85.1185 310.582C93.5033 316.96 110.032 322.906 124.979 325.015C131.927 325.974 147.018 325.638 152.767 324.392ZM314.701 279.366C286.866 276.92 253.233 263.636 228.895 243.113C218.642 234.434 205.324 217.556 200.054 208.206C198.952 206.287 198.137 205.376 197.179 205.136C196.173 204.849 197.035 204.561 201.156 203.89C218.546 200.917 235.459 193.676 249.113 183.366L251.125 181.88L251.7 183.271C252.994 186.387 257.976 189.552 261.665 189.552C263.15 189.552 268.133 187.299 271.151 185.237L273.212 183.846L274.888 185.524C276.421 187.059 276.709 187.155 279.584 187.155C282.889 187.155 286.866 185.668 289.07 183.558L290.267 182.456L293.669 184.709C295.489 186.004 300.568 188.833 304.927 191.087C311.443 194.443 318.342 198.327 324.906 202.355L325.96 203.027L324.954 204.369C323.9 205.808 321.937 208.541 321.937 212.713C321.937 217.412 326.819 225.855 336.164 231.654C343.507 236.209 356.143 245.17 355.664 258.267C355.606 259.849 353.843 263.781 351.496 267.329C349.962 269.583 345.699 272.94 341.818 274.906C335.206 278.214 323.564 280.132 314.701 279.366ZM59.2477 64.1113C60.5412 64.3991 61.4036 64.8306 61.212 65.0224C60.5891 65.6458 57.2833 65.3581 56.5168 64.5909C55.3191 63.44 55.6065 62.6248 57.2833 62.2891C58.1457 62.1453 59.4393 61.426 60.1579 60.7068C60.8766 59.9875 61.4994 59.6518 61.4994 59.8916C61.4994 60.515 59.1039 62.7207 57.9062 63.2003C57.1397 63.5359 57.3791 63.6797 59.2477 64.1113ZM78.316 64.8785C79.7053 64.1113 79.4173 63.5838 77.7883 63.8236C76.16 64.0634 76.0636 63.8716 77.1182 62.2412C77.5493 61.6179 77.7883 60.7068 77.6926 60.2273C77.5493 59.6038 77.2139 59.8916 76.4473 61.426C75.8721 62.5289 75.0579 63.44 74.6743 63.44C73.4768 63.44 73.381 64.3991 74.531 64.8306C76.0161 65.454 77.1656 65.454 78.316 64.8785ZM61.739 38.697C60.5891 38.8888 56.9959 40.3274 53.8339 41.9098C50.624 43.4443 47.8931 44.739 47.7015 44.691C42.8147 44.1635 49.6178 36.0118 61.9785 27.6682C73.8122 19.6603 81.813 15.4406 89.2389 13.2828C93.8863 11.9402 99.108 11.7483 100.594 12.8512C101.408 13.4746 101.121 13.5226 97.5755 13.5705C89.9098 13.5705 81.0463 17.5026 66.6257 27.1407C59.1518 32.1277 50.4802 39.2725 50.4802 40.4233C50.4802 40.6631 51.8696 40.1835 53.5943 39.4163C57.2833 37.738 61.0682 36.8749 62.745 37.2585C64.5177 37.738 64.1344 38.3614 61.739 38.697ZM80.2797 42.8209C84.7831 41.9098 84.9753 41.8619 84.9753 41.3823C84.9753 41.1426 83.2505 40.9029 81.0946 40.8069L77.2139 40.6631L80.8066 36.5872C82.7711 34.3335 85.071 32.0798 85.8852 31.5523C87.6581 30.4015 87.7539 29.5863 86.3163 29.1068L85.2142 28.7711L86.4121 28.3395C87.083 28.0998 88.329 28.0039 89.1914 28.1478C90.485 28.3395 90.7722 28.2436 90.6282 27.5723C90.485 26.901 89.9573 26.7572 87.6099 26.8051C80.7591 26.901 77.8365 28.7232 83.2023 29.5863C84.6873 29.826 85.9334 30.2097 85.9334 30.4494C85.9334 30.6413 85.6937 30.833 85.4065 30.833C84.4959 30.833 76.7827 38.6491 75.8246 40.5672C74.3388 43.3963 75.1537 43.8279 80.2797 42.8209ZM111.9 24.2157C110.511 24.3116 110.176 24.5514 110.271 25.2227L110.286 25.3204C110.34 25.6751 110.371 25.8789 110.291 25.9407C110.184 26.0242 109.876 25.8492 109.152 25.4379L109.025 25.3666C108.115 24.887 108.02 24.6473 108.547 24.2637C108.882 23.976 109.792 23.5444 110.511 23.4005L111.852 23.0649L110.846 22.0099C110.319 21.3866 110.032 20.8112 110.176 20.6193C110.559 20.2358 115.254 20.7632 115.924 21.2907C116.212 21.5305 116.644 21.4825 116.931 21.1948C117.602 20.5234 118.511 21.0509 118.511 22.1058C118.511 22.6813 118.368 22.7293 117.937 22.2977C117.553 21.914 117.218 21.914 116.787 22.2497C116.404 22.5854 116.117 22.5854 115.877 22.2018C115.733 21.962 114.823 21.7222 113.864 21.7222C112.98 21.7222 112.562 21.7222 112.477 21.8909C112.401 22.0421 112.592 22.329 112.954 22.8731C113.719 24.0682 113.673 24.0719 111.917 24.2144L111.9 24.2157ZM104.618 11.4606C104.618 10.8373 104.043 9.73437 103.324 9.01512L101.983 7.67251L109.169 7.9602C113.146 8.15199 117.649 8.58356 119.231 9.01512C120.811 9.3987 122.632 9.68646 123.303 9.68646C124.308 9.68646 124.117 9.4946 122.249 8.48766C118.991 6.80935 114.823 5.99417 106.822 5.41876C97.24 4.74744 92.4012 5.65852 93.3111 8.05609C93.4551 8.53557 94.2217 8.77535 95.3713 8.77535C97.7187 8.77535 101.552 10.1659 102.845 11.4606C104.235 12.8512 104.618 12.8512 104.618 11.4606ZM81.2378 138.436C85.1185 143.423 90.2453 149.081 92.6409 150.999C94.0777 152.15 95.3238 153.109 95.4195 153.109C95.467 153.109 94.4132 150.903 93.0721 148.218C87.6581 137.429 84.4958 126.688 83.0108 114.317C82.6754 111.583 82.1484 109.281 81.5733 108.322C80.4237 106.404 80.4237 103.911 81.6215 101.561C82.2442 100.315 82.5796 98.732 82.5796 97.0058V94.3688L80.2797 96.7666C78.028 99.116 75.8721 100.075 75.8721 98.6362C75.8721 97.5814 79.4173 92.4985 81.2861 90.9163C82.7711 89.6691 82.9626 89.2376 83.442 85.4976C83.7775 83.2439 84.5441 79.264 85.1668 76.6263C85.8377 73.9893 86.2206 71.7356 86.1249 71.6397C85.7894 71.304 74.531 84.246 72.9977 88.3744C72.6611 89.2814 71.752 90.868 71.0334 91.827L69.7877 93.4277C69.7877 93.4277 70.1747 95.6695 70.6022 98.4869C71.0342 101.333 71.2368 103.289 71.4173 105.032C71.6588 107.363 71.8606 109.312 72.5186 112.495C73.2851 116.426 74.0517 119.831 74.2431 120.07C74.387 120.359 75.0097 122.564 75.6324 125.01C76.9742 130.428 79.2258 135.798 81.2378 138.436ZM275.655 183.798L274.648 182.791C274.648 182.791 291.348 161.556 294.34 153.733C296.623 147.762 297.967 146.068 299.78 146.068C300.794 146.068 301.622 146.3 302.005 146.876C302.676 147.882 303.322 149.129 302.46 153.397C301.022 160.302 298.819 164.857 292.207 174.688C290.674 176.941 288.71 179.435 287.848 180.298C285.835 182.168 281.309 184.085 278.673 184.517C276.997 184.757 276.517 184.661 275.655 183.798Z" fill="#00160A"/>
<path d="M408.316 230.707C414.277 214.453 413.375 210.99 412.341 210.651C412.341 210.651 410.065 211.946 409.058 214.679C407.19 219.81 400.795 233.236 398.399 235.633C395.573 238.463 395.573 238.463 392.698 238.463C389.823 238.463 381.533 234.13 380.404 229.859C378.598 223.026 386.374 199.286 386.565 197.944L385.272 197.032C384.409 197.848 373.193 231.894 358.442 223.022C356.754 222.007 353.172 217.22 352.885 214.679C351.289 207.294 358.614 181.472 359.859 176.169C360.975 171.422 366.779 167.015 373.918 167.015C384.889 167.015 383.415 176.614 388.329 179.996C390.507 181.495 394.085 178.777 395.189 178.572C401.37 177.42 403.738 178.76 408.269 182.359C411.766 185.137 414.354 190.636 417.202 192.573C418.783 193.65 420.462 192.178 421.012 191.902C423.267 190.769 428.103 191.615 429.444 192.573C431.411 193.431 436.23 198.068 436.991 200.764C440.442 212.986 429.546 240.082 425.433 245.165C418.624 253.579 402.356 246.961 408.316 230.707Z" fill="white"/>
<path fill-rule="evenodd" clip-rule="evenodd" d="M132.885 186.17C146.012 194.465 159.548 199.883 174.974 201.37C187.143 202.521 203.551 200.939 215.337 197.102C225.254 193.89 238.669 184.989 247.628 177.461C265.019 162.884 275.99 140.114 280.782 115.947C281.452 112.542 282.475 103.984 282.427 95.4971C282.427 85.6186 278.084 58.6251 264.923 43.0606C237.78 10.9589 193.162 -3.50203 155.664 8.85388C142.138 13.311 127.736 21.3865 116.86 31.9359C103.158 45.3144 93.0492 63.5359 89.0245 82.1408C84.8091 101.801 90.2929 125.297 99.8272 144.574C107.445 159.919 119.997 177.97 132.885 186.17ZM260.803 128.223C251.796 155.315 228.321 175.551 198.808 181.688C194.305 182.599 191.19 182.935 184.866 183.031C180.411 183.175 175.955 183.126 175.045 183.031C154.396 180.537 138.682 172.913 124.213 158.431C117.889 152.054 115.206 148.602 111.277 141.793C105.097 131.004 101.792 119.975 100.785 106.693C97.3359 61.1863 129.866 23.2567 175.668 19.3247C193.634 17.7902 213.565 23.3047 228.704 34.0457C234.309 38.0257 244.466 48.0956 247.628 52.7948C248.921 54.6649 261.474 73.0303 263.677 83.5796C266.504 97.2939 265.402 114.46 260.803 128.223Z" fill="white"/>
<path fill-rule="evenodd" clip-rule="evenodd" d="M282.444 95.4971C282.444 127.683 267.233 162.87 247.602 177.897C238.236 185.067 225.995 193.749 215.337 197.102C199.717 202.017 174.974 201.37 174.974 201.37C174.974 201.37 200.216 197.993 209.57 194.225C236.394 183.421 251.037 166.835 260.079 150.922C277.926 119.51 282.444 94.715 282.444 95.4971Z" fill="#E7EAEE"/>
<path fill-rule="evenodd" clip-rule="evenodd" d="M175.524 177.277C162.732 175.646 150.037 171.091 139.784 164.33C133.699 160.35 124.501 150.999 120.045 144.334C113.673 134.744 109.457 124.482 107.396 113.453C105.911 105.445 105.96 93.1216 107.445 85.9774C108.978 78.6883 110.942 73.1261 114.439 66.0773C118.512 57.9255 122.823 51.9316 129.291 45.4582C140.311 34.4293 153.102 27.4284 168.338 24.0718C173.272 23.0169 191.143 22.1538 191.765 22.9689C191.909 23.2087 192.867 23.832 193.873 24.3595C194.879 24.9349 197.562 26.9489 199.766 28.9149C203.072 31.7919 204.557 33.6141 207.432 38.1215C209.396 41.1905 210.977 43.9717 210.977 44.2114C210.977 44.7388 212.51 45.6979 213.372 45.6979C214.57 45.6979 215.385 42.1015 215.624 35.7719C215.768 32.2715 216.055 29.3944 216.247 29.3944C216.917 29.3944 224.296 33.4703 227.745 35.7719C234.5 40.2794 241.255 46.609 246.238 53.2263C248.49 56.1992 248.825 56.9665 248.825 58.7886C248.825 60.4669 249.305 61.7616 250.79 64.351C254.527 70.8724 257.449 79.0723 259.222 88.1352C260.372 94.2247 260.372 105.733 259.174 112.11C255.916 129.661 246.238 147.115 233.638 158.192C222.954 167.543 211.6 173.297 198.185 176.126C193.586 177.133 179.788 177.804 175.524 177.277ZM141.269 144.478C141.7 143.998 141.987 143.279 141.844 142.943C141.8 142.842 141.2 142.56 140.323 142.147C138.276 141.184 134.717 139.509 133.175 137.765C127.043 130.764 124.791 125.537 123.402 114.748C122.06 104.246 123.186 97.1476 125.605 85.7374C126.785 80.1717 129.921 75.5737 131.871 72.7134C133.197 70.7686 133.976 69.6268 133.22 69.5297C131.351 69.242 131.064 69.3859 129.1 71.256C124.884 75.284 122.967 78.4966 120.955 84.6827C117.841 94.3688 117.239 120.546 123.402 132.346C129.563 144.147 140.167 145.724 141.269 144.478ZM209.396 104.199C208.582 111.648 205.132 122.421 201.107 127.119C199.24 129.325 192.381 133.113 186.591 132.346C180.999 131.605 176.626 128.99 172.889 123.379C169.679 118.536 168.021 112.657 166.9 105.254C164.965 92.4687 173.416 77.5852 177.057 73.8934C180.746 70.1052 183.381 68.7626 186.735 68.7146C189.993 68.7146 192.101 69.4338 195.406 71.7835C201.443 76.0031 210.977 89.7233 209.396 104.199ZM144.814 64.5428C145.772 63.4399 145.916 62.9124 145.628 60.8506C145.437 58.9325 145.054 58.1653 144.047 57.3501C142.275 55.9116 140.071 55.9116 138.442 57.446C137.292 58.5489 137.148 58.9325 137.292 61.5698C137.436 64.3989 137.532 64.5908 139.113 65.4538C141.221 66.6047 143.281 66.2691 144.814 64.5428ZM174.709 34.9568C166.086 41.1425 162.349 43.6839 158.468 46.0815C155.402 47.9996 154.444 48.0475 154.444 46.3213C154.444 45.4102 155.114 44.4032 156.839 42.8208L159.235 40.615L154.587 39.9917C149.366 39.3203 144.287 37.8818 143.185 36.7789C141.364 34.9088 142.945 34.4772 148.12 35.4363C150.419 35.8199 154.875 36.2994 158.037 36.3953L163.786 36.6351L167.954 33.6141C177.105 26.9968 186.591 23.2566 191.143 24.4075C193.969 25.0787 193.634 25.846 190.424 26.2296C186.735 26.6612 184.483 27.9079 174.709 34.9568Z" fill="white"/>
<path d="M187.022 125.777C187.022 125.537 187.309 125.297 187.693 125.297C188.076 125.297 188.555 125.537 188.699 125.777C188.843 126.065 188.555 126.256 188.029 126.256C187.453 126.256 187.022 126.065 187.022 125.777Z" fill="white"/>
<path d="M189.896 125.345C189.896 124.818 191.094 124.339 192.436 124.339C193.49 124.386 193.49 124.386 192.579 125.058C191.526 125.872 189.896 126.016 189.896 125.345Z" fill="white"/>
<path d="M182.471 124.099C182.327 123.715 182.135 123.044 181.992 122.66C181.848 122.181 182.088 121.941 182.71 121.941C183.237 121.941 183.668 122.228 183.668 122.612C183.668 122.996 183.812 123.619 183.956 124.05C184.148 124.578 184.004 124.818 183.477 124.818C183.046 124.818 182.566 124.482 182.471 124.099Z" fill="white"/>
<path d="M185.01 122.9C184.771 121.461 185.297 120.982 187.022 120.982C187.549 120.982 187.98 121.461 188.172 122.277C188.555 123.667 187.933 124.339 186.256 124.339C185.489 124.339 185.153 124.003 185.01 122.9Z" fill="white"/>
<path d="M180.123 123.14C179.213 122.421 179.213 122.421 180.219 122.421C180.842 122.421 181.273 122.708 181.273 123.14C181.273 124.003 181.273 124.003 180.123 123.14Z" fill="white"/>
<path d="M189.753 123.091C189.13 122.468 189.418 120.598 190.184 120.31C191.574 119.783 192.196 120.023 192.484 121.269C192.676 121.989 192.772 122.612 192.676 122.66C192.292 123.091 190.04 123.38 189.753 123.091Z" fill="white"/>
<path d="M194.017 122.085C193.873 121.941 193.73 121.318 193.73 120.742C193.73 119.927 194.113 119.591 195.263 119.351C196.269 119.16 196.891 119.255 197.179 119.639C197.658 120.406 197.658 121.365 197.227 121.605C196.364 122.085 194.352 122.372 194.017 122.085Z" fill="white"/>
<path d="M177.92 120.598C177.92 120.023 178.351 119.543 178.974 119.4C180.219 119.064 180.171 119.016 180.41 120.263C180.507 120.982 180.267 121.269 179.261 121.365C178.207 121.509 177.92 121.318 177.92 120.598Z" fill="white"/>
<path d="M181.561 120.646C180.89 119.927 181.321 118.584 182.232 118.584C182.854 118.584 183.19 118.92 183.19 119.495C183.19 120.406 182.088 121.173 181.561 120.646Z" fill="white"/>
<path d="M184.435 119.207C184.052 118.297 184.866 117.625 186.447 117.625C187.166 117.625 187.502 117.913 187.502 118.537C187.502 119.064 187.07 119.543 186.447 119.735C184.866 120.119 184.77 120.119 184.435 119.207Z" fill="white"/>
<path d="M198.281 119.064C198.425 118.824 198.664 118.584 198.808 118.584C198.951 118.584 198.904 118.824 198.76 119.064C198.616 119.351 198.377 119.543 198.233 119.543C198.089 119.543 198.137 119.351 198.281 119.064Z" fill="white"/>
<path d="M188.747 118.248C188.364 117.289 188.843 116.81 190.376 116.57C191.238 116.475 191.621 116.666 191.717 117.338C192.052 118.92 189.322 119.783 188.747 118.248Z" fill="white"/>
<path d="M177.249 117.433C176.818 115.851 176.914 115.707 178.159 115.707C178.83 115.707 179.357 115.899 179.357 116.139C179.357 116.379 179.501 116.906 179.645 117.289C179.788 117.769 179.501 118.057 178.686 118.201C177.776 118.392 177.44 118.201 177.249 117.433Z" fill="white"/>
<path d="M193.25 116.906C193.25 116.043 193.586 115.659 194.496 115.42C195.837 115.084 196.604 115.755 196.604 117.289C196.604 117.913 196.221 118.105 194.928 118.105C193.442 118.105 193.25 117.961 193.25 116.906Z" fill="white"/>
<path d="M175.811 116.906C175.668 116.522 175.764 116.186 176.003 116.186C176.291 116.186 176.482 116.522 176.482 116.906C176.482 117.289 176.387 117.625 176.291 117.625C176.195 117.625 176.003 117.289 175.811 116.906Z" fill="white"/>
<path d="M180.65 117.289C179.98 116.666 180.363 115.323 181.225 115.084C181.752 114.94 182.279 114.987 182.423 115.132C182.998 115.659 182.663 117.049 181.944 117.338C181.034 117.673 181.034 117.673 180.65 117.289Z" fill="white"/>
<path d="M197.754 116.954C197.227 115.563 197.802 114.508 199.144 114.364C200.149 114.221 200.437 114.412 200.437 115.18C200.437 116.762 199.91 117.625 198.951 117.625C198.425 117.625 197.898 117.338 197.754 116.954Z" fill="white"/>
<path d="M184.004 116.33C183.429 115.803 183.621 114.844 184.435 114.557C185.346 114.221 187.262 115.18 186.735 115.707C186.064 116.282 184.339 116.714 184.004 116.33Z" fill="white"/>
<path d="M188.172 115.132C187.741 114.46 189.274 113.309 190.52 113.309C191.095 113.309 191.334 113.597 191.238 114.125C191.047 115.084 188.603 115.851 188.172 115.132Z" fill="white"/>
<path d="M175.045 114.796C175.045 114.557 174.902 114.028 174.758 113.597C174.614 113.165 174.662 112.83 174.949 112.83C175.572 112.83 176.051 114.652 175.476 115.036C175.237 115.18 175.045 115.084 175.045 114.796Z" fill="white"/>
<path d="M176.338 113.693C176.051 112.638 176.626 111.871 177.728 111.871C178.351 111.871 178.974 113.741 178.59 114.364C178.063 115.18 176.578 114.7 176.338 113.693Z" fill="white"/>
<path d="M179.692 113.933C178.974 113.214 179.405 111.487 180.363 111.247C181.081 111.056 181.465 111.296 181.848 112.159C182.136 112.782 182.279 113.405 182.184 113.501C181.705 113.933 179.98 114.268 179.692 113.933Z" fill="white"/>
<path d="M192.628 113.933C192.005 113.309 192.292 112.926 193.73 112.399C194.928 112.015 195.263 112.063 195.502 112.638C195.933 113.789 193.538 114.892 192.628 113.933Z" fill="white"/>
<path d="M196.844 112.83C196.364 112.063 197.035 111.391 198.281 111.391C199.766 111.391 200.198 112.638 198.856 113.022C197.419 113.405 197.179 113.358 196.844 112.83Z" fill="white"/>
<path d="M200.916 111.679C200.916 110.96 201.778 110.193 202.162 110.576C202.497 110.912 201.827 112.35 201.347 112.35C201.108 112.35 200.916 112.063 200.916 111.679Z" fill="white"/>
<path d="M174.422 111.056C174.231 110.912 174.087 110.288 174.135 109.761C174.135 108.85 174.182 108.85 174.614 109.905C175.093 111.056 174.997 111.631 174.422 111.056Z" fill="white"/>
<path d="M175.333 110.337C174.902 108.658 174.949 108.515 176.195 108.515C177.584 108.515 178.447 110.288 177.393 110.96C176.291 111.631 175.668 111.439 175.333 110.337Z" fill="white"/>
<path d="M191.813 111.296C191.813 111.152 192.052 110.384 192.34 109.521C193.011 107.603 194.496 107.507 194.832 109.378C194.975 110.097 195.023 110.72 194.975 110.768C194.736 111.056 191.813 111.487 191.813 111.296Z" fill="white"/>
<path d="M178.734 110.097C178.542 109.953 178.398 109.378 178.398 108.85C178.398 108.083 178.542 108.035 179.118 108.515C179.501 108.85 179.836 109.425 179.836 109.761C179.836 110.48 179.261 110.673 178.734 110.097Z" fill="white"/>
<path d="M195.982 109.138C195.694 107.651 196.317 106.98 197.802 107.172C198.52 107.267 198.76 107.699 198.76 108.754C198.76 109.953 198.569 110.241 197.515 110.337C196.461 110.48 196.221 110.241 195.982 109.138Z" fill="white"/>
<path d="M200.676 109.33C200.054 107.412 200.245 106.836 201.539 106.692C202.689 106.548 202.832 106.692 202.832 107.939C202.832 108.994 202.545 109.425 201.827 109.617C201.3 109.761 200.772 109.617 200.676 109.33Z" fill="white"/>
<path d="M173.704 106.596C173.704 105.685 173.799 105.301 173.943 105.781C174.039 106.213 174.039 106.98 173.943 107.459C173.799 107.891 173.704 107.507 173.704 106.596Z" fill="white"/>
<path d="M174.901 107.22C174.279 106.644 174.566 104.774 175.333 104.487C176.434 104.055 176.962 104.582 176.962 106.164C176.962 107.172 176.722 107.555 176.099 107.555C175.62 107.555 175.045 107.412 174.901 107.22Z" fill="white"/>
<path d="M177.776 105.925C177.584 105.206 177.489 104.438 177.68 104.295C178.159 103.815 178.447 104.582 178.303 105.973L178.159 107.316L177.776 105.925Z" fill="white"/>
<path d="M193.25 105.59C193.25 105.062 193.49 104.774 193.73 104.918C194.017 105.062 194.208 105.541 194.208 105.925C194.208 106.309 194.017 106.596 193.73 106.596C193.49 106.596 193.25 106.164 193.25 105.59Z" fill="white"/>
<path d="M195.406 106.213C194.736 105.494 195.263 104.199 196.364 103.911C197.754 103.575 197.802 103.575 198.233 104.966C198.52 105.829 198.329 106.021 197.083 106.213C196.317 106.357 195.55 106.309 195.406 106.213Z" fill="white"/>
<path d="M199.814 105.301C199.287 104.822 199.431 103.24 199.958 103.24C200.245 103.24 200.437 103.048 200.437 102.76C200.437 102.52 200.149 102.28 199.766 102.28C198.952 102.28 198.281 99.9308 198.952 99.2593C199.814 98.3962 200.772 99.3076 201.347 101.657C201.683 102.904 202.018 104.342 202.162 104.822C202.354 105.445 202.162 105.637 201.251 105.637C200.629 105.637 199.958 105.494 199.814 105.301Z" fill="white"/>
<path d="M202.401 102.76C202.066 101.321 201.203 98.4446 200.58 96.3351C199.622 93.2658 199.527 92.4985 200.054 92.1628C200.389 91.9228 200.82 91.7312 200.964 91.7312C201.491 91.7312 203.407 101.561 203.216 103.479L203.072 105.397L202.401 102.76Z" fill="white"/>
<path d="M173.224 102.52C173.224 101.753 173.32 101.466 173.464 101.945C173.56 102.377 173.56 103.048 173.464 103.383C173.32 103.672 173.224 103.336 173.224 102.52Z" fill="white"/>
<path d="M174.182 102.424C174.375 100.746 175.764 100.362 176.147 101.897C176.482 103.143 176.578 103 175.141 103.479C174.135 103.767 174.039 103.671 174.182 102.424Z" fill="white"/>
<path d="M194.401 101.993C194.017 100.602 194.832 99.7868 196.364 99.9792C197.515 100.123 197.946 102.185 196.988 102.808C195.79 103.575 194.688 103.239 194.401 101.993Z" fill="white"/>
<path d="M176.962 101.61C176.962 100.794 177.201 100.362 177.728 100.362C178.207 100.362 178.398 100.698 178.303 101.417C178.063 102.952 176.962 103.096 176.962 101.61Z" fill="white"/>
<path d="M172.697 99.5952C172.697 99.0678 172.841 98.9244 172.985 99.3077C173.128 99.6435 173.081 100.075 172.937 100.219C172.793 100.411 172.65 100.123 172.697 99.5952Z" fill="white"/>
<path d="M173.608 99.4518C173.608 98.732 173.895 98.4446 174.614 98.4446C175.284 98.4446 175.524 98.6845 175.428 99.2594C175.189 100.507 173.608 100.651 173.608 99.4518Z" fill="white"/>
<path d="M176.243 99.0203C175.907 98.1571 175.907 98.1571 177.345 97.7731C178.207 97.4856 178.398 97.6297 178.398 98.3488C178.398 99.4994 176.674 100.075 176.243 99.0203Z" fill="white"/>
<path d="M193.586 98.3487C193.25 97.1498 193.874 96.5266 195.55 96.5266C196.364 96.5266 196.604 96.8141 196.604 97.7255C196.604 98.4445 196.317 98.9244 195.933 98.9244C195.55 98.9244 194.928 99.0677 194.544 99.2118C194.113 99.3559 193.777 99.0677 193.586 98.3487Z" fill="white"/>
<path d="M197.754 97.2456C197.371 96.2867 197.946 95.5676 199.047 95.5676C199.718 95.5676 199.958 95.9034 199.958 96.7665C199.958 97.6296 199.718 97.9646 199 97.9646C198.473 97.9646 197.898 97.6296 197.754 97.2456Z" fill="white"/>
<path d="M173.128 96.5742C173.128 95.5677 174.231 94.4163 174.709 94.9437C174.901 95.0878 175.045 95.7593 175.045 96.3825C175.045 97.1498 174.757 97.4856 174.087 97.4856C173.464 97.4856 173.128 97.1498 173.128 96.5742Z" fill="white"/>
<path d="M175.764 95.9992C175.38 94.8003 175.811 94.2729 177.44 94.033C178.925 93.8414 179.405 95.4235 178.111 96.3825C176.865 97.2939 176.099 97.1498 175.764 95.9992Z" fill="white"/>
<path d="M193.107 95.7111C192.772 95.4236 192.628 93.6498 192.915 93.6498C192.963 93.6498 193.681 93.4574 194.544 93.2183C195.981 92.7867 196.077 92.8342 196.03 94.1289C195.981 95.0879 195.694 95.5677 194.975 95.7594C193.681 96.0951 193.49 96.0951 193.107 95.7111Z" fill="white"/>
<path d="M191.334 94.6087C191.334 94.2729 191.478 94.1288 191.67 94.2729C191.814 94.4646 191.814 94.752 191.67 94.9437C191.478 95.0878 191.334 94.9437 191.334 94.6087Z" fill="white"/>
<path d="M196.7 93.8414C196.844 93.0258 198.329 91.8269 198.664 92.2109C198.808 92.3543 199.048 92.93 199.191 93.5532C199.527 94.5121 199.383 94.6087 198.042 94.6087C196.892 94.6087 196.557 94.4163 196.7 93.8414Z" fill="white"/>
<path d="M173.608 93.7931C173.608 93.5532 173.847 93.0741 174.087 92.6901C174.47 92.1151 174.566 92.1627 174.566 93.0741C174.566 93.649 174.375 94.1289 174.087 94.1289C173.847 94.1289 173.608 93.9848 173.608 93.7931Z" fill="white"/>
<path d="M175.045 92.7384C175.045 91.3954 176.051 90.9638 176.818 91.9711C177.296 92.6901 177.296 92.93 176.818 93.2658C175.811 93.889 175.045 93.6973 175.045 92.7384Z" fill="white"/>
<path d="M189.609 92.1151C188.747 91.1562 188.747 91.1079 189.562 91.3953C190.041 91.5877 190.663 91.7311 190.903 91.7311C191.143 91.7311 191.334 92.0668 191.334 92.4509C191.334 93.4573 190.663 93.3615 189.609 92.1151Z" fill="white"/>
<path d="M179.309 92.0669C177.249 90.4847 176.962 86.9364 178.878 86.9364C180.171 86.9364 181.369 88.9501 181.177 90.8205C181.034 92.5468 180.459 92.93 179.309 92.0669Z" fill="white"/>
<path d="M192.436 92.3543C192.628 92.211 192.915 92.211 193.107 92.3543C193.25 92.5467 193.107 92.6901 192.772 92.6901C192.436 92.6901 192.292 92.5467 192.436 92.3543Z" fill="white"/>
<path d="M199.671 90.4847C199.814 90.0531 199.958 89.6216 199.958 89.5258C199.958 89.4299 200.198 89.3334 200.437 89.3334C200.725 89.3334 200.916 89.7649 200.916 90.2931C200.916 90.868 200.581 91.252 200.149 91.252C199.622 91.252 199.479 91.0121 199.671 90.4847Z" fill="white"/>
<path d="M174.566 90.3407C174.566 89.2376 175.572 87.4155 176.147 87.4155C177.153 87.4155 176.434 90.4848 175.38 90.6764C174.949 90.7722 174.566 90.6289 174.566 90.3407Z" fill="white"/>
<path d="M185.346 89.8132L183.908 89.4775L185.202 89.1418C186.544 88.7585 187.502 89.0459 187.502 89.8615C187.502 90.3406 187.453 90.3406 185.346 89.8132Z" fill="white"/>
<path d="M183.668 87.5114C183.668 85.5459 184.771 85.2577 185.777 86.984C186.447 88.1353 186.495 88.3745 185.873 88.3745C185.489 88.3745 184.866 88.5186 184.435 88.6627C183.861 88.9019 183.668 88.6144 183.668 87.5114Z" fill="white"/>
<path d="M192.005 88.1828C189.849 87.2239 188.46 84.6828 188.46 81.6618C188.46 79.504 188.651 78.9766 189.945 77.7777C190.759 77.0104 191.574 76.3872 191.813 76.3872C192.867 76.3872 196.748 80.0789 198.042 82.3808L199.527 85.0185L197.946 86.6965C196.125 88.6144 194.113 89.1418 192.005 88.1828Z" fill="white"/>
<path d="M181.992 86.9364C181.848 86.6965 181.944 86.4565 182.184 86.4565C182.471 86.4565 182.71 86.6965 182.71 86.9364C182.71 87.2239 182.615 87.4155 182.519 87.4155C182.375 87.4155 182.135 87.2239 181.992 86.9364Z" fill="white"/>
<path d="M175.716 86.169C175.86 85.7375 176.003 85.3059 176.003 85.2101C176.003 85.1143 176.434 85.0184 176.962 85.0184C178.159 85.0184 178.207 85.785 177.009 86.4565C175.716 87.128 175.38 87.0797 175.716 86.169Z" fill="white"/>
<path d="M179.501 85.5934C178.398 85.45 178.063 84.826 178.782 84.3945C178.974 84.2511 179.836 84.0112 180.698 83.8196C181.992 83.5313 182.232 83.6272 182.232 84.4428C182.232 85.45 181.225 85.8816 179.501 85.5934Z" fill="white"/>
<path d="M183.19 83.9629C183.19 83.388 183.237 83.0522 183.333 83.1481C183.381 83.2439 183.764 83.7237 184.1 84.2028C184.675 84.8743 184.626 85.0184 183.956 85.0184C183.477 85.0184 183.19 84.6344 183.19 83.9629Z" fill="white"/>
<path d="M176.482 83.6272C176.482 83.3398 176.722 83.004 176.962 82.8607C177.249 82.7166 177.44 82.9082 177.44 83.2922C177.44 83.7238 177.249 84.0588 176.962 84.0588C176.722 84.0588 176.482 83.8671 176.482 83.6272Z" fill="white"/>
<path d="M178.255 82.9082C177.871 81.9493 181.274 80.8945 181.848 81.8052C182.279 82.5725 181.848 82.9082 180.027 83.2922C178.925 83.5314 178.447 83.4356 178.255 82.9082Z" fill="white"/>
<path d="M182.759 81.3736C182.759 80.8462 182.902 80.7029 183.046 81.0862C183.19 81.4219 183.141 81.8535 182.998 81.9976C182.854 82.1892 182.71 81.901 182.759 81.3736Z" fill="white"/>
<path d="M178.686 80.607C179.261 79.5515 180.938 77.8252 181.369 77.8252C181.848 77.8252 181.896 80.0788 181.417 80.367C181.177 80.4629 180.411 80.7028 179.692 80.8944C178.638 81.1344 178.398 81.0861 178.686 80.607Z" fill="white"/>
<path d="M182.519 79.5039C181.992 78.0651 182.232 77.4419 183.381 77.2503C184.579 77.0103 184.579 77.0103 183.812 78.4967C182.854 80.4146 182.902 80.4146 182.519 79.5039Z" fill="white"/>
<path d="M182.232 76.6264C182.232 76.5305 183.19 75.8598 184.388 75.1883C185.824 74.3252 186.831 74.0373 187.549 74.2291C188.412 74.5168 188.172 74.7085 186.064 75.7157C183.717 76.7705 182.232 77.1545 182.232 76.6264Z" fill="white"/>
<path d="M208.821 34.1417C207.528 32.2716 204.797 29.2507 202.832 27.4285C200.868 25.6064 199.575 24.1199 199.958 24.1199C201.012 24.1199 209.06 26.3256 211.073 27.1887C212.749 27.908 212.798 28.0039 212.367 29.4904C212.127 30.3535 211.935 32.5113 211.935 34.2855C211.935 36.1077 211.791 37.5463 211.6 37.5463C211.36 37.5463 210.162 36.0118 208.821 34.1417Z" fill="white"/>
<path d="M111.325 179.387C109.361 178.379 108.93 177.804 106.438 172.866C102.846 165.865 102.75 164.234 106.151 168.214C107.493 169.796 110.607 173.057 113.05 175.455C117.218 179.482 117.41 179.77 116.02 179.578C115.015 179.435 114.631 179.531 114.871 179.914C115.446 180.777 113.625 180.537 111.325 179.387Z" fill="white"/>
<path fill-rule="evenodd" clip-rule="evenodd" d="M191.616 266.75C191.218 265.805 191.662 264.716 192.606 264.318L193.638 263.88C203.674 259.582 209.434 257 213.348 252.901C217.263 248.801 217.731 242.78 218.466 239.116C218.667 238.111 220.943 239.876 221.947 240.078C222.952 240.28 223.603 241.259 223.401 242.264C222.517 246.67 220.136 250.87 216.303 254.856C212.483 258.83 205.087 263.089 194.046 267.741C193.102 268.139 192.014 267.695 191.616 266.75Z" fill="#00160A"/>
<path fill-rule="evenodd" clip-rule="evenodd" d="M236.999 75.4238C237.879 74.8994 239.018 75.1883 239.542 76.0693C244.79 84.893 247.602 94.9802 247.602 105.474C247.602 137.268 221.851 163.041 190.085 163.041C181.644 163.041 173.457 161.219 165.961 157.747C165.03 157.317 161.518 153.888 165.055 155.283C168.594 156.677 182.284 159.807 190.184 159.807C219.899 159.807 240.922 135.217 240.922 105.474C240.922 95.6531 236.999 86.9364 236.354 77.9693C236.279 76.9294 236.118 75.9482 236.999 75.4238Z" fill="#00160A"/>
<path fill-rule="evenodd" clip-rule="evenodd" d="M53.2467 215.97C53.9025 215.182 55.0724 213.589 55.8598 214.246C59.0897 216.939 62.5364 220.059 66.2234 220.66C70.06 221.287 74.6119 221.287 79.8722 220.65C80.8897 220.526 81.8137 221.252 81.9369 222.27C82.0601 223.288 81.335 224.214 80.3182 224.337C74.7313 225.014 69.8362 225.014 65.6258 224.326C61.2656 223.614 57.2109 221.691 53.4849 218.586C52.6975 217.929 52.5909 216.758 53.2467 215.97Z" fill="#00160A"/>
<path d="M92.6403 150.999C90.2454 149.081 85.1186 143.423 81.2379 138.436C79.226 135.798 76.9743 130.428 75.6325 125.009C75.0098 122.564 74.3872 120.359 74.2432 120.07C74.0518 119.831 73.2852 116.426 72.5187 112.495C71.3688 106.932 71.612 105.14 70.6023 98.4868C70.1747 95.6694 69.7878 93.4276 69.7878 93.4276L71.0335 91.8269C71.7521 90.868 72.6611 89.2813 72.9978 88.3744C74.5311 84.2459 85.7895 71.304 86.125 71.6396C86.2207 71.7356 85.8378 73.9892 85.1669 76.6263C84.5442 79.264 83.7776 83.2439 83.4421 85.4975C82.9627 89.2375 82.7712 89.6691 81.2862 90.9162C79.4174 92.4984 75.8722 97.5814 75.8722 98.6361C75.8722 100.075 78.0281 99.116 80.2798 96.7665L82.5797 94.3688V97.0057C82.5797 98.732 82.2443 100.315 81.6216 101.561C80.4238 103.911 80.4238 106.404 81.5734 108.322C82.1486 109.281 82.6755 111.583 83.0109 114.317C84.496 126.688 87.6583 137.429 93.0715 148.218C94.4133 150.903 95.4672 153.109 95.4197 153.109C95.3239 153.109 94.0779 152.15 92.6403 150.999Z" fill="white"/>
<path fill-rule="evenodd" clip-rule="evenodd" d="M291.992 180.585L295.441 182.12C296.157 182.451 304.047 186.245 313.526 190.803C328.807 198.153 348.215 207.486 348.333 207.486C348.525 207.486 349.424 205.405 349.627 202.979C350.106 197.752 351.879 190.656 353.939 185.716C354.897 183.511 355.664 180.753 355.664 180.514C355.664 180.404 354.885 180.09 353.61 179.575C352.092 178.962 349.87 178.066 347.424 176.893C335.35 171.091 311.731 159.247 308.808 157.473C305.934 155.795 305.359 155.65 305.359 156.754C305.359 158.192 302.436 164.857 300.184 168.454C298.986 170.42 296.639 173.968 294.963 176.318L291.992 180.585ZM347.519 198.855C348.893 199.652 346.513 200.821 345.938 201.012C342.553 201.301 338.567 200.663 335.302 198.759C333.595 197.547 320.151 190.072 311.233 185.114C307.157 182.847 304.026 181.105 303.395 180.73C301.382 179.531 299.466 178.236 299.13 177.852C298.124 176.557 299.083 175.982 301.909 176.222C303.609 176.366 344.551 197.134 347.519 198.855Z" fill="white"/>
<path d="M257.593 184.901C256.347 184.47 255.006 183.511 254.144 182.407L252.706 180.633L257.785 175.598C265.593 167.926 271.343 159.541 276.517 150.191C278.242 147.074 283.368 134.504 283.991 133.113C284.949 131.099 285.668 130.332 287.728 129.182C290.171 127.743 292.95 127.264 294.148 128.078C296.448 129.613 296.448 134.456 294.148 142.799C291.609 151.959 288.207 158.528 281.164 167.974C280.062 169.413 278.002 172.242 276.517 174.208C272.541 179.482 269.954 182.024 266.456 183.99C263.006 185.908 260.994 186.147 257.593 184.901Z" fill="white"/>
<path d="M275.655 183.798L274.648 182.792C274.648 182.792 291.348 161.557 294.34 153.733C296.623 147.762 297.967 146.068 299.78 146.068C300.794 146.068 301.622 146.3 302.005 146.876C302.676 147.882 303.322 149.129 302.46 153.397C301.022 160.302 298.819 164.857 292.207 174.688C290.674 176.941 288.71 179.435 287.848 180.298C285.835 182.168 281.308 184.086 278.673 184.518C276.997 184.757 276.517 184.661 275.655 183.798Z" fill="white"/>
<path fill-rule="evenodd" clip-rule="evenodd" d="M303.704 161.594C304.671 159.382 305.359 157.452 305.359 156.754C305.359 155.65 305.934 155.795 308.808 157.473C311.731 159.247 335.35 171.091 347.424 176.893C351.927 179.051 355.664 180.274 355.664 180.514C355.664 180.753 302.679 163.939 303.704 161.594Z" fill="#E7EAEE"/>
<path fill-rule="evenodd" clip-rule="evenodd" d="M139.784 164.33C133.699 160.35 124.501 150.999 120.045 144.334C113.673 134.744 109.457 124.482 107.396 113.454C105.911 105.445 105.96 93.1217 107.445 85.9775C108.978 78.6884 110.942 73.1262 114.439 66.0774C118.512 57.9256 122.823 51.9317 129.291 45.4583C135.634 39.1102 107.445 65.3622 114.439 112.333C120.045 151.694 144.135 167.2 139.784 164.33Z" fill="#E7EAEE"/>
</g>
<defs>
<clipPath id="clip0_55_296">
<rect width="449" height="361" fill="white"/>
</clipPath>
</defs>
</svg>
