<svg width="68" height="58" viewBox="0 0 68 58" fill="none" xmlns="http://www.w3.org/2000/svg">
<g clip-path="url(#clip0_55_70)">
<path fill-rule="evenodd" clip-rule="evenodd" d="M29.5444 13.2111C38.303 4.4994 52.5033 4.4994 61.2617 13.2111C70.0202 21.9227 70.0202 36.0472 61.2617 44.759L49.8436 56.1161C47.3911 58.5555 43.415 58.5555 40.9627 56.1161C38.5104 53.6769 38.5104 49.722 40.9627 47.2828L52.3809 35.9255C56.2347 32.0923 56.2347 25.8776 52.3809 22.0444C48.5272 18.2114 42.2791 18.2114 38.4253 22.0444L27.0071 33.4017C24.5548 35.8409 20.5786 35.8409 18.1263 33.4017C15.6739 30.9625 15.6739 27.0076 18.1263 24.5684L29.5444 13.2111ZM38.4253 44.759C29.6668 53.4706 15.4666 53.4706 6.70814 44.759C-2.05034 36.0472 -2.05034 21.9227 6.70814 13.2111L18.1263 1.85387C20.5786 -0.585405 24.5548 -0.585405 27.0071 1.85387C29.4596 4.29315 29.4596 8.24799 27.0071 10.6873L15.5889 22.0444C11.7352 25.8776 11.7352 32.0923 15.5889 35.9255C19.4427 39.7587 25.6908 39.7587 29.5444 35.9255L40.9627 24.5684C43.415 22.129 47.3911 22.129 49.8436 24.5684C52.2959 27.0076 52.2959 30.9625 49.8436 33.4017L38.4253 44.759Z" fill="black"/>
</g>
<defs>
<clipPath id="clip0_55_70">
<rect width="68" height="58" fill="white"/>
</clipPath>
</defs>
</svg>
