<svg width="100" height="100" viewBox="0 0 100 100" fill="none" xmlns="http://www.w3.org/2000/svg">
<path fill-rule="evenodd" clip-rule="evenodd" d="M45.8978 26.1217C54.2999 17.7341 67.9222 17.7341 76.3241 26.1217C84.7262 34.5092 84.7262 48.1081 76.3241 56.4958L65.3708 67.4303C63.0181 69.7789 59.2038 69.7789 56.8513 67.4303C54.4988 65.0818 54.4988 61.2741 56.8513 58.9256L67.8049 47.9909C71.5018 44.3004 71.5018 38.3169 67.8049 34.6263C64.108 30.936 58.1142 30.936 54.4172 34.6263L43.4637 45.561C41.1112 47.9095 37.2969 47.9095 34.9444 45.561C32.5919 43.2126 32.5919 39.4049 34.9444 37.0564L45.8978 26.1217ZM54.4172 56.4958C46.0152 64.8832 32.393 64.8832 23.9909 56.4958C15.589 48.1081 15.589 34.5092 23.9909 26.1217L34.9444 15.187C37.2969 12.8385 41.1112 12.8385 43.4637 15.187C45.8164 17.5356 45.8164 21.3432 43.4637 23.6918L32.5104 34.6263C28.8135 38.3169 28.8135 44.3004 32.5104 47.9909C36.2073 51.6815 42.2011 51.6815 45.8978 47.9909L56.8513 37.0564C59.2038 34.7078 63.0181 34.7078 65.3708 37.0564C67.7233 39.4049 67.7233 43.2126 65.3708 45.561L54.4172 56.4958Z" fill="black"/>
<path d="M11.8366 86.3904C9.35444 86.3904 7.45977 85.7012 6.15259 84.3231C4.86011 82.9449 4.21387 80.9875 4.21387 78.4509C4.21387 77.1899 4.41215 76.0682 4.8087 75.0859C5.20526 74.0889 5.74869 73.2531 6.439 72.5787C7.12931 71.8896 7.95178 71.3691 8.90647 71.0172C9.86115 70.6653 10.8966 70.4894 12.0128 70.4894C12.6591 70.4894 13.2466 70.5408 13.7753 70.6433C14.3041 70.7313 14.7667 70.8413 15.1633 70.9732C15.5598 71.0906 15.8903 71.2152 16.1547 71.3471C16.419 71.4791 16.61 71.5817 16.7275 71.655L15.7361 74.4262C15.2661 74.1768 14.7153 73.9643 14.0837 73.7884C13.4669 73.6124 12.7619 73.5244 11.9688 73.5244C11.44 73.5244 10.9186 73.6124 10.4046 73.7884C9.90521 73.9643 9.45724 74.2502 9.06068 74.6461C8.67881 75.0274 8.37037 75.5258 8.13538 76.1416C7.90039 76.7574 7.78289 77.5052 7.78289 78.3849C7.78289 79.0887 7.85633 79.7485 8.0032 80.3643C8.16476 80.9655 8.41444 81.4859 8.75225 81.9258C9.10474 82.3657 9.56005 82.7176 10.1182 82.9815C10.6763 83.2308 11.3519 83.3554 12.145 83.3554C12.6444 83.3554 13.0924 83.326 13.4889 83.2674C13.8855 83.2088 14.238 83.1428 14.5464 83.0694C14.8548 82.9815 15.1266 82.8861 15.3615 82.7835C15.5965 82.681 15.8095 82.5856 16.0004 82.4976L16.9478 85.2468C16.4631 85.5401 15.7801 85.804 14.8989 86.0385C14.0177 86.2731 12.9969 86.3904 11.8366 86.3904ZM29.7415 80.2763C29.7415 81.1854 29.6093 82.0212 29.3449 82.7835C29.0806 83.5313 28.6988 84.1765 28.1993 84.7189C27.7 85.2468 27.0978 85.6573 26.3928 85.9505C25.7026 86.2438 24.9241 86.3904 24.0575 86.3904C23.2057 86.3904 22.4272 86.2438 21.7222 85.9505C21.032 85.6573 20.4372 85.2468 19.9377 84.7189C19.4384 84.1765 19.0492 83.5313 18.7701 82.7835C18.4911 82.0212 18.3515 81.1854 18.3515 80.2763C18.3515 79.3672 18.4911 78.5389 18.7701 77.7911C19.0639 77.0433 19.4604 76.4055 19.9597 75.8777C20.4739 75.3499 21.0761 74.9394 21.7663 74.6461C22.4713 74.3528 23.2351 74.2062 24.0575 74.2062C24.8947 74.2062 25.6585 74.3528 26.3487 74.6461C27.0537 74.9394 27.656 75.3499 28.1553 75.8777C28.6547 76.4055 29.0439 77.0433 29.3229 77.7911C29.6021 78.5389 29.7415 79.3672 29.7415 80.2763ZM26.3928 80.2763C26.3928 79.2646 26.1873 78.4729 25.7759 77.9011C25.3794 77.3146 24.8066 77.0213 24.0575 77.0213C23.3084 77.0213 22.7284 77.3146 22.3171 77.9011C21.9059 78.4729 21.7002 79.2646 21.7002 80.2763C21.7002 81.288 21.9059 82.0944 22.3171 82.6956C22.7284 83.282 23.3084 83.5753 24.0575 83.5753C24.8066 83.5753 25.3794 83.282 25.7759 82.6956C26.1873 82.0944 26.3928 81.288 26.3928 80.2763ZM32.5047 74.91C33.0628 74.7487 33.7825 74.6021 34.6637 74.4701C35.5449 74.3236 36.4702 74.2502 37.4396 74.2502C38.4238 74.2502 39.2389 74.3822 39.885 74.6461C40.546 74.8954 41.0675 75.2545 41.4492 75.7237C41.8312 76.193 42.1029 76.75 42.2644 77.3952C42.426 78.0404 42.5067 78.7588 42.5067 79.5506V86.0825H39.2241V79.9464C39.2241 78.8908 39.0847 78.143 38.8055 77.7031C38.5265 77.2633 38.0052 77.0433 37.2413 77.0433C37.0064 77.0433 36.7566 77.0579 36.4923 77.0873C36.2279 77.1019 35.993 77.1239 35.7873 77.1533V86.0825H32.5047V74.91ZM45.5881 71.633L48.8708 71.1052V74.5141H52.8143V77.2413H48.8708V81.31C48.8708 81.9992 48.9883 82.549 49.2232 82.9595C49.473 83.37 49.9651 83.5753 50.6993 83.5753C51.0518 83.5753 51.4117 83.5459 51.7788 83.4873C52.1608 83.414 52.5059 83.3188 52.8143 83.2014L53.277 85.7526C52.8804 85.9139 52.4398 86.0531 51.9551 86.1705C51.4704 86.2878 50.8756 86.3464 50.1706 86.3464C49.2747 86.3464 48.5331 86.2291 47.9455 85.9945C47.358 85.7452 46.888 85.4081 46.5355 84.9829C46.183 84.543 45.9334 84.0152 45.7864 83.3993C45.6542 82.7835 45.5881 82.1018 45.5881 81.354V71.633ZM62.6916 77.4172C62.3979 77.3438 62.0527 77.2707 61.6561 77.1973C61.2596 77.1093 60.8338 77.0653 60.3783 77.0653C60.1728 77.0653 59.9231 77.0873 59.6293 77.1313C59.3503 77.1607 59.1374 77.1973 58.9904 77.2413V86.0825H55.7078V75.1299C56.2954 74.9246 56.9856 74.7341 57.7787 74.5581C58.5866 74.3676 59.4825 74.2722 60.4664 74.2722C60.6427 74.2722 60.8558 74.2868 61.1054 74.3162C61.3551 74.3308 61.6048 74.3602 61.8544 74.4042C62.1041 74.4335 62.3539 74.4775 62.6035 74.5361C62.8532 74.5801 63.0661 74.6387 63.2424 74.7121L62.6916 77.4172ZM69.4355 83.7952C69.7587 83.7952 70.0671 83.7878 70.3608 83.7732C70.6546 83.7586 70.8895 83.7366 71.0658 83.7072V81.222C70.9336 81.1926 70.7353 81.1634 70.4709 81.1341C70.2066 81.1047 69.9642 81.0901 69.7439 81.0901C69.4355 81.0901 69.1418 81.1121 68.8627 81.156C68.5983 81.1854 68.3634 81.2514 68.1577 81.354C67.9522 81.4566 67.7905 81.5959 67.673 81.7719C67.5556 81.9478 67.4967 82.1677 67.4967 82.4317C67.4967 82.9449 67.6658 83.304 68.0035 83.5093C68.356 83.6999 68.8334 83.7952 69.4355 83.7952ZM69.1711 74.2062C70.1405 74.2062 70.9484 74.3162 71.5945 74.5361C72.2408 74.756 72.7549 75.0713 73.1367 75.4818C73.5332 75.8923 73.8124 76.3909 73.9739 76.9774C74.1355 77.5638 74.2162 78.2164 74.2162 78.9347V85.7526C73.7463 85.8552 73.0926 85.9725 72.2554 86.1045C71.4183 86.2511 70.4048 86.3244 69.2152 86.3244C68.4661 86.3244 67.7831 86.2585 67.1663 86.1265C66.5642 85.9945 66.0427 85.782 65.6021 85.4887C65.1615 85.1808 64.8238 84.7849 64.5887 84.3011C64.3537 83.8172 64.2362 83.2234 64.2362 82.5196C64.2362 81.8452 64.3683 81.2734 64.6327 80.8042C64.9119 80.3349 65.279 79.961 65.7343 79.6825C66.1897 79.404 66.711 79.206 67.2985 79.0887C67.8861 78.9567 68.4955 78.8908 69.127 78.8908C69.553 78.8908 69.9276 78.9128 70.2506 78.9567C70.5885 78.9861 70.8603 79.0301 71.0658 79.0887V78.7808C71.0658 78.2236 70.8969 77.7765 70.5591 77.4392C70.2214 77.1019 69.6338 76.9334 68.7966 76.9334C68.2386 76.9334 67.6878 76.9774 67.1442 77.0653C66.6009 77.1387 66.1308 77.2487 65.7343 77.3952L65.3157 74.756C65.5067 74.6975 65.7417 74.6387 66.0207 74.5801C66.3145 74.5067 66.6303 74.4481 66.968 74.4042C67.3059 74.3456 67.6584 74.3016 68.0255 74.2722C68.4074 74.2282 68.7893 74.2062 69.1711 74.2062ZM76.8541 80.2983C76.8541 79.4626 76.9862 78.6782 77.2506 77.9451C77.5298 77.1973 77.9264 76.5521 78.4403 76.0097C78.9544 75.4524 79.5787 75.0126 80.3129 74.6901C81.0473 74.3676 81.8845 74.2062 82.8245 74.2062C83.4413 74.2062 84.0069 74.2648 84.5208 74.3822C85.035 74.4847 85.5343 74.6387 86.0189 74.844L85.336 77.4612C85.0276 77.3439 84.6899 77.2413 84.3226 77.1533C83.9554 77.0653 83.5443 77.0213 83.0888 77.0213C82.1195 77.0213 81.3924 77.3219 80.9078 77.9231C80.4379 78.5243 80.2028 79.316 80.2028 80.2983C80.2028 81.3394 80.4231 82.1457 80.8637 82.7176C81.3191 83.2894 82.1048 83.5753 83.221 83.5753C83.6176 83.5753 84.0436 83.5387 84.4988 83.4653C84.9542 83.392 85.3728 83.2748 85.7546 83.1134L86.2172 85.7966C85.8355 85.9579 85.358 86.0971 84.7852 86.2145C84.2124 86.3318 83.5809 86.3904 82.8905 86.3904C81.8331 86.3904 80.9226 86.2365 80.1587 85.9286C79.395 85.606 78.7635 85.1734 78.264 84.631C77.7794 84.0885 77.4196 83.4507 77.1845 82.7176C76.9642 81.9698 76.8541 81.1634 76.8541 80.2983ZM88.5305 71.633L91.8131 71.1052V74.5141H95.7567V77.2413H91.8131V81.31C91.8131 81.9992 91.9307 82.549 92.1656 82.9595C92.4153 83.37 92.9074 83.5753 93.6417 83.5753C93.9942 83.5753 94.3541 83.5459 94.7212 83.4873C95.1031 83.414 95.4482 83.3188 95.7567 83.2014L96.2193 85.7526C95.8227 85.9139 95.3821 86.0531 94.8974 86.1705C94.4128 86.2878 93.8179 86.3464 93.1129 86.3464C92.2171 86.3464 91.4754 86.2291 90.8878 85.9945C90.3004 85.7452 89.8303 85.4081 89.4778 84.9829C89.1253 84.543 88.8757 84.0152 88.7288 83.3993C88.5966 82.7835 88.5305 82.1018 88.5305 81.354V71.633Z" fill="black"/>
</svg>
