<svg width="165" height="50" viewBox="0 0 165 50" fill="none" xmlns="http://www.w3.org/2000/svg">
<path fill-rule="evenodd" clip-rule="evenodd" d="M21.7114 15.8033C26.6258 10.7289 34.5935 10.7289 39.5078 15.8033C44.4221 20.8776 44.4221 29.1048 39.5078 34.1793L33.1012 40.7946C31.7251 42.2154 29.4941 42.2154 28.1182 40.7946C26.7422 39.3738 26.7422 37.0701 28.1182 35.6493L34.5249 29.034C36.6872 26.8012 36.6872 23.1812 34.5249 20.9485C32.3625 18.7159 28.8568 18.7159 26.6945 20.9485L20.2877 27.5639C18.9118 28.9847 16.6808 28.9847 15.3048 27.5639C13.9289 26.1431 13.9289 23.8395 15.3048 22.4187L21.7114 15.8033ZM26.6945 34.1793C21.7801 39.2536 13.8125 39.2536 8.89814 34.1793C3.98382 29.1048 3.98382 20.8776 8.89814 15.8033L15.3048 9.18793C16.6808 7.76711 18.9118 7.76711 20.2877 9.18793C21.6638 10.6088 21.6638 12.9123 20.2877 14.3332L13.8811 20.9485C11.7188 23.1812 11.7188 26.8012 13.8811 29.034C16.0435 31.2667 19.5492 31.2667 21.7114 29.034L28.1182 22.4187C29.4941 20.9978 31.7251 20.9978 33.1012 22.4187C34.4771 23.8395 34.4771 26.1431 33.1012 27.5639L26.6945 34.1793Z" fill="black"/>
<path d="M60.1048 34.6762C57.2011 34.6762 54.9848 33.8424 53.4557 32.1747C51.9437 30.5071 51.1877 28.1387 51.1877 25.0695C51.1877 23.5439 51.4197 22.1867 51.8836 20.998C52.3475 19.7917 52.9832 18.7805 53.7907 17.9643C54.5982 17.1306 55.5604 16.5007 56.6771 16.0749C57.7939 15.6492 59.0052 15.4363 60.311 15.4363C61.0669 15.4363 61.7542 15.4983 62.3727 15.6226C62.9912 15.729 63.5324 15.8621 63.9963 16.0217C64.4602 16.1636 64.8468 16.3144 65.1561 16.4741C65.4653 16.6338 65.6887 16.758 65.8261 16.8467L64.6664 20.1997C64.1166 19.8981 63.4723 19.6409 62.7335 19.428C62.0119 19.2151 61.1872 19.1086 60.2594 19.1086C59.6409 19.1086 59.0309 19.2151 58.4296 19.428C57.8454 19.6409 57.3214 19.9868 56.8575 20.4658C56.4109 20.927 56.0501 21.5302 55.7751 22.2754C55.5002 23.0205 55.3628 23.9253 55.3628 24.9897C55.3628 25.8413 55.4487 26.6396 55.6205 27.3847C55.8095 28.1121 56.1016 28.7419 56.4967 29.2741C56.9091 29.8063 57.4417 30.2321 58.0946 30.5515C58.7474 30.853 59.5378 31.0038 60.4656 31.0038C61.0498 31.0038 61.5738 30.9684 62.0377 30.8974C62.5016 30.8264 62.9139 30.7466 63.2747 30.6579C63.6355 30.5515 63.9533 30.4362 64.2283 30.312C64.5032 30.1877 64.7523 30.0725 64.9757 29.966L66.0839 33.2924C65.5169 33.6472 64.7179 33.9665 63.6871 34.2504C62.6562 34.5343 61.4621 34.6762 60.1048 34.6762ZM81.05 27.2783C81.05 28.3782 80.8954 29.3894 80.5861 30.312C80.2769 31.2167 79.8302 31.9973 79.246 32.6537C78.6618 33.2924 77.9574 33.7892 77.1327 34.144C76.3252 34.4988 75.4146 34.6762 74.4009 34.6762C73.4044 34.6762 72.4938 34.4988 71.6691 34.144C70.8616 33.7892 70.1658 33.2924 69.5816 32.6537C68.9974 31.9973 68.5421 31.2167 68.2157 30.312C67.8892 29.3894 67.726 28.3782 67.726 27.2783C67.726 26.1784 67.8892 25.176 68.2157 24.2712C68.5593 23.3664 69.0231 22.5947 69.6073 21.956C70.2086 21.3174 70.9131 20.8206 71.7206 20.4658C72.5453 20.111 73.4388 19.9336 74.4009 19.9336C75.3802 19.9336 76.2737 20.111 77.0812 20.4658C77.9059 20.8206 78.6103 21.3174 79.1945 21.956C79.7786 22.5947 80.2339 23.3664 80.5604 24.2712C80.8868 25.176 81.05 26.1784 81.05 27.2783ZM77.1327 27.2783C77.1327 26.0542 76.8922 25.0962 76.4111 24.4043C75.9472 23.6946 75.2771 23.3398 74.4009 23.3398C73.5247 23.3398 72.846 23.6946 72.3649 24.4043C71.8838 25.0962 71.6433 26.0542 71.6433 27.2783C71.6433 28.5024 71.8838 29.4782 72.3649 30.2055C72.846 30.9152 73.5247 31.27 74.4009 31.27C75.2771 31.27 75.9472 30.9152 76.4111 30.2055C76.8922 29.4782 77.1327 28.5024 77.1327 27.2783ZM84.2824 20.7851C84.9352 20.59 85.7771 20.4126 86.808 20.2529C87.8389 20.0755 88.9213 19.9868 90.0553 19.9868C91.2064 19.9868 92.16 20.1465 92.9159 20.4658C93.6891 20.7674 94.2991 21.2021 94.7457 21.7698C95.1924 22.3374 95.5103 23.0116 95.6993 23.7922C95.8882 24.5728 95.9828 25.4421 95.9828 26.4001V34.3036H92.1428V26.8791C92.1428 25.6018 91.9796 24.697 91.6531 24.1648C91.3266 23.6325 90.7168 23.3664 89.8233 23.3664C89.5484 23.3664 89.2563 23.3842 88.9471 23.4196C88.6378 23.4374 88.3629 23.464 88.1224 23.4995V34.3036H84.2824V20.7851ZM99.5874 16.8201L103.428 16.1814V20.3061H108.04V23.6059H103.428V28.529C103.428 29.3628 103.564 30.0281 103.839 30.5248C104.132 31.0216 104.707 31.27 105.567 31.27C105.979 31.27 106.399 31.2345 106.829 31.1635C107.276 31.0748 107.68 30.9595 108.04 30.8176L108.582 33.9045C108.118 34.0996 107.602 34.2682 107.036 34.4101C106.469 34.552 105.772 34.623 104.948 34.623C103.9 34.623 103.032 34.4811 102.345 34.1972C101.658 33.8956 101.108 33.4875 100.695 32.9731C100.283 32.4409 99.9912 31.8022 99.8194 31.0571C99.6647 30.312 99.5874 29.487 99.5874 28.5822V16.8201ZM119.595 23.8188C119.251 23.7301 118.847 23.6414 118.383 23.5527C117.92 23.4463 117.422 23.393 116.889 23.393C116.649 23.393 116.357 23.4196 116.012 23.4729C115.686 23.5083 115.438 23.5527 115.265 23.6059V34.3036H111.425V21.0512C112.112 20.8029 112.92 20.5722 113.848 20.3594C114.793 20.1287 115.841 20.0134 116.992 20.0134C117.198 20.0134 117.447 20.0312 117.739 20.0666C118.032 20.0844 118.324 20.1199 118.616 20.1731C118.908 20.2085 119.2 20.2617 119.492 20.3327C119.784 20.386 120.033 20.457 120.24 20.5456L119.595 23.8188ZM127.484 31.5361C127.862 31.5361 128.223 31.5272 128.566 31.5095C128.91 31.4917 129.185 31.4651 129.391 31.4296V28.4226C129.237 28.3871 129.004 28.3516 128.695 28.3161C128.386 28.2807 128.102 28.2629 127.844 28.2629C127.484 28.2629 127.141 28.2895 126.813 28.3427C126.504 28.3782 126.23 28.458 125.989 28.5822C125.748 28.7064 125.56 28.8749 125.422 29.0878C125.285 29.3007 125.216 29.5668 125.216 29.8862C125.216 30.5071 125.414 30.9418 125.809 31.1901C126.221 31.4208 126.779 31.5361 127.484 31.5361ZM127.175 19.9336C128.308 19.9336 129.254 20.0666 130.01 20.3327C130.766 20.5989 131.367 20.9802 131.814 21.477C132.278 21.9738 132.604 22.5769 132.793 23.2866C132.982 23.9963 133.076 24.7857 133.076 25.655V33.9045C132.527 34.0287 131.762 34.1706 130.783 34.3302C129.803 34.5077 128.617 34.5964 127.226 34.5964C126.35 34.5964 125.551 34.5165 124.829 34.3569C124.125 34.1972 123.515 33.9399 123 33.5851C122.485 33.2126 122.089 32.7336 121.814 32.1481C121.539 31.5627 121.401 30.8442 121.401 29.9926C121.401 29.1765 121.556 28.4846 121.865 27.9169C122.193 27.3493 122.621 26.8969 123.154 26.5598C123.687 26.2227 124.297 25.9832 124.984 25.8413C125.672 25.6816 126.385 25.6018 127.123 25.6018C127.622 25.6018 128.06 25.6284 128.437 25.6816C128.833 25.717 129.151 25.7703 129.391 25.8413V25.4687C129.391 24.7946 129.193 24.2534 128.799 23.8454C128.403 23.4374 127.715 23.2334 126.737 23.2334C126.084 23.2334 125.439 23.2866 124.804 23.393C124.168 23.4817 123.618 23.6148 123.154 23.7922L122.665 20.5989C122.888 20.5279 123.163 20.457 123.489 20.386C123.833 20.2973 124.202 20.2263 124.598 20.1731C124.992 20.1021 125.405 20.0489 125.835 20.0134C126.281 19.9602 126.728 19.9336 127.175 19.9336ZM136.162 27.3049C136.162 26.2937 136.317 25.3445 136.626 24.4575C136.953 23.5527 137.416 22.7721 138.018 22.1157C138.619 21.4416 139.349 20.9094 140.209 20.519C141.067 20.1287 142.047 19.9336 143.146 19.9336C143.868 19.9336 144.53 20.0046 145.131 20.1465C145.733 20.2707 146.316 20.457 146.883 20.7053L146.084 23.872C145.723 23.7301 145.329 23.6059 144.899 23.4995C144.469 23.393 143.988 23.3398 143.455 23.3398C142.322 23.3398 141.471 23.7035 140.904 24.4309C140.355 25.1582 140.08 26.1162 140.08 27.3049C140.08 28.5644 140.338 29.5402 140.853 30.2321C141.386 30.924 142.305 31.27 143.61 31.27C144.074 31.27 144.573 31.2256 145.105 31.1369C145.638 31.0482 146.127 30.9062 146.574 30.7111L147.115 33.9577C146.669 34.1528 146.11 34.3214 145.44 34.4633C144.77 34.6052 144.031 34.6762 143.224 34.6762C141.987 34.6762 140.921 34.4899 140.028 34.1174C139.135 33.727 138.396 33.2037 137.812 32.5473C137.245 31.8909 136.824 31.1191 136.548 30.2321C136.291 29.3273 136.162 28.3516 136.162 27.3049ZM149.821 16.8201L153.661 16.1814V20.3061H158.274V23.6059H153.661V28.529C153.661 29.3628 153.798 30.0281 154.073 30.5248C154.366 31.0216 154.941 31.27 155.801 31.27C156.212 31.27 156.633 31.2345 157.063 31.1635C157.51 31.0748 157.914 30.9595 158.274 30.8176L158.816 33.9045C158.352 34.0996 157.836 34.2682 157.269 34.4101C156.703 34.552 156.006 34.623 155.182 34.623C154.134 34.623 153.266 34.4811 152.579 34.1972C151.892 33.8956 151.342 33.4875 150.929 32.9731C150.517 32.4409 150.226 31.8022 150.053 31.0571C149.898 30.312 149.821 29.487 149.821 28.5822V16.8201Z" fill="black"/>
</svg>
