<svg width="213" height="46" viewBox="0 0 213 46" fill="none" xmlns="http://www.w3.org/2000/svg">
<path d="M212.998 39.5283C213.03 40.0797 212.609 40.5525 212.058 40.5844L203.073 41.1045C202.521 41.1364 202.049 40.7153 202.017 40.164C201.985 39.6126 202.406 39.1398 202.957 39.1079L210.944 38.6455L210.482 30.6589C210.45 30.1076 210.871 29.6347 211.422 29.6028C211.973 29.5709 212.446 29.992 212.478 30.5433L212.998 39.5283ZM136.937 3.2068L136.618 2.259L136.937 3.2068ZM55.9241 39.5861L56.6308 38.8786L55.9241 39.5861ZM211.335 40.3329C210.829 39.8824 210.327 39.4364 209.829 38.9948L211.157 37.4986C211.655 37.9411 212.158 38.388 212.665 38.8393L211.335 40.3329ZM206.851 36.3647C205.838 35.4745 204.842 34.6034 203.862 33.7513L205.174 32.242C206.157 33.0966 207.156 33.97 208.171 34.8625L206.851 36.3647ZM200.858 31.156C199.832 30.2753 198.824 29.4167 197.833 28.5798L199.124 27.0521C200.119 27.8925 201.131 28.7545 202.16 29.6382L200.858 31.156ZM194.786 26.0276C193.742 25.1623 192.719 24.3226 191.715 23.5082L192.974 21.9548C193.985 22.7741 195.014 23.6184 196.062 24.4881L194.786 26.0276ZM188.61 21.0237C187.542 20.1808 186.496 19.3686 185.47 18.5865L186.684 16.9964C187.718 17.7856 188.773 18.6045 189.849 19.4535L188.61 21.0237ZM182.293 16.2101C181.197 15.4074 180.125 14.6417 179.075 13.9121L180.217 12.2699C181.281 13.0095 182.366 13.7848 183.475 14.5963L182.293 16.2101ZM175.803 11.7074C174.659 10.9625 173.543 10.2637 172.451 9.61006L173.478 7.89393C174.593 8.56159 175.731 9.27385 176.895 10.0315L175.803 11.7074ZM169.036 7.67125C167.838 7.02922 166.668 6.44537 165.524 5.91786L166.361 4.10147C167.545 4.64699 168.75 5.24888 169.981 5.90828L169.036 7.67125ZM161.916 4.4109C160.658 3.94176 159.427 3.54439 158.216 3.21593L158.74 1.28572C160.013 1.6312 161.303 2.04769 162.615 2.53688L161.916 4.4109ZM154.432 2.40069C153.138 2.19611 151.861 2.07128 150.59 2.02297L150.666 0.0244186C152.017 0.0757788 153.374 0.208457 154.744 0.425263L154.432 2.40069ZM146.731 2.10924C145.46 2.21359 144.185 2.39215 142.896 2.64255L142.515 0.679295C143.871 0.415641 145.219 0.226613 146.568 0.115943L146.731 2.10924ZM139.118 3.5678C138.502 3.74831 137.882 3.94399 137.256 4.1546L136.618 2.259C137.268 2.04042 137.914 1.8368 138.556 1.64855L139.118 3.5678ZM137.256 4.1546C136.686 4.34624 136.098 4.57521 135.491 4.83971L134.692 3.00639C135.345 2.72174 135.987 2.47127 136.618 2.259L137.256 4.1546ZM132.068 6.58687C130.996 7.20358 129.887 7.89837 128.744 8.66037L127.635 6.99621C128.807 6.21479 129.954 5.49591 131.071 4.85323L132.068 6.58687ZM125.532 10.9061C124.498 11.6582 123.444 12.4509 122.371 13.2768L121.151 11.6918C122.236 10.8573 123.304 10.0536 124.355 9.28906L125.532 10.9061ZM119.252 15.7224C118.238 16.5303 117.21 17.3592 116.171 18.2036L114.91 16.6512C115.952 15.8042 116.985 14.971 118.006 14.158L119.252 15.7224ZM113.097 20.7116C112.081 21.5434 111.055 22.3845 110.022 23.2279L108.757 21.6787C109.789 20.8363 110.813 19.9967 111.831 19.1639L113.097 20.7116ZM106.933 25.7367C105.902 26.5693 104.864 27.3998 103.822 28.2232L102.582 26.6539C103.617 25.8357 104.65 25.0095 105.677 24.1802L106.933 25.7367ZM100.676 30.6723C99.6154 31.4851 98.5511 32.2854 97.4853 33.0679L96.3017 31.4557C97.3552 30.6823 98.4085 29.8903 99.4603 29.0846L100.676 30.6723ZM94.2296 35.3948C93.1189 36.1655 92.0078 36.9113 90.8981 37.626L89.8151 35.9446C90.9034 35.2436 91.9954 34.5107 93.0894 33.7516L94.2296 35.3948ZM87.4755 39.7292C86.2954 40.4173 85.118 41.0635 83.9455 41.66L83.0387 39.8774C84.1734 39.3001 85.3171 38.6726 86.468 38.0015L87.4755 39.7292ZM80.2762 43.3635C78.9905 43.8998 77.7116 44.3662 76.4426 44.7513L75.8618 42.8375C77.0592 42.4741 78.2748 42.0314 79.5061 41.5176L80.2762 43.3635ZM72.4609 45.6863C71.0648 45.9121 69.6829 46.0212 68.3204 45.9966L68.3566 43.9969C69.5878 44.0192 70.8504 43.9208 72.1416 43.712L72.4609 45.6863ZM64.1771 45.4754C62.832 45.1497 61.5193 44.6668 60.2449 44.0121L61.1588 42.2332C62.2906 42.8146 63.4544 43.2426 64.6478 43.5316L64.1771 45.4754ZM56.7706 41.7082C56.2432 41.2722 55.7254 40.801 55.2174 40.2936L56.6308 38.8786C57.096 39.3432 57.5675 39.7721 58.0449 40.1667L56.7706 41.7082ZM55.2174 40.2936C54.7363 39.8131 54.2484 39.3351 53.7542 38.8598L55.1406 37.4183C55.6436 37.9021 56.1405 38.3889 56.6308 38.8786L55.2174 40.2936ZM50.7485 36.0684C49.7347 35.1582 48.7006 34.2592 47.6501 33.3724L48.9402 31.8442C50.0055 32.7434 51.0549 33.6557 52.0847 34.5802L50.7485 36.0684ZM44.4725 30.7651C43.4016 29.9103 42.3183 29.0685 41.2264 28.2406L42.4347 26.6469C43.5392 27.4843 44.6357 28.3364 45.7202 29.202L44.4725 30.7651ZM37.9187 25.7923C36.8017 24.9849 35.6799 24.1927 34.5571 23.4166L35.6943 21.7714C36.8282 22.5551 37.9615 23.3555 39.0904 24.1715L37.9187 25.7923ZM31.1482 21.1101C29.9916 20.344 28.8382 19.596 27.6922 18.8672L28.7654 17.1796C29.9215 17.9148 31.0854 18.6695 32.2527 19.4428L31.1482 21.1101ZM24.1949 16.6871C23.0016 15.9578 21.8215 15.2513 20.6599 14.5688L21.673 12.8444C22.8444 13.5326 24.0343 14.245 25.2378 14.9805L24.1949 16.6871ZM17.0891 12.5118C15.8563 11.8156 14.6524 11.1502 13.4842 10.5171L14.4371 8.75871C15.6154 9.39726 16.8295 10.0683 18.0725 10.7702L17.0891 12.5118ZM9.84914 8.58961C8.55745 7.92003 7.32706 7.29892 6.16948 6.72898L7.05292 4.93467C8.22316 5.51085 9.46588 6.1382 10.7696 6.814L9.84914 8.58961ZM2.45935 4.95925C1.79767 4.65485 1.17627 4.37576 0.598755 4.12277L1.40126 2.29083C1.99086 2.54912 2.6234 2.83324 3.29521 3.14229L2.45935 4.95925Z" fill="#9D9D9D"/>
</svg>
