<svg width="24" height="24" viewBox="0 0 24 24" fill="none" xmlns="http://www.w3.org/2000/svg">
<path d="M19.44 5.33957L19.38 5.26957C18.443 4.24487 17.3029 3.42651 16.0323 2.86662C14.7617 2.30673 13.3885 2.01758 12 2.01758C10.6115 2.01758 9.23821 2.30673 7.96761 2.86662C6.69701 3.42651 5.55693 4.24487 4.61998 5.26957L4.55998 5.33957C3.4757 6.5469 2.70152 7.99996 2.30427 9.57332C1.90702 11.1467 1.89863 12.7931 2.27983 14.3704C2.66103 15.9478 3.42036 17.4086 4.49228 18.627C5.5642 19.8453 6.91651 20.7844 8.43247 21.3633C9.94844 21.9422 11.5825 22.1435 13.1937 21.9498C14.8048 21.7561 16.3446 21.1733 17.6802 20.2515C19.0157 19.3298 20.1069 18.0969 20.8595 16.6592C21.6121 15.2215 22.0035 13.6223 22 11.9996C22.0012 9.53908 21.089 7.16574 19.44 5.33957ZM12 3.99957C13.3512 3.99602 14.6805 4.34041 15.86 4.99957H8.13998C9.31947 4.34041 10.6488 3.99602 12 3.99957ZM5.75998 6.99957H18.24C19.1613 8.15159 19.7462 9.53593 19.93 10.9996H4.06998C4.25375 9.53593 4.83863 8.15159 5.75998 6.99957ZM12 19.9996C10.0527 19.9978 8.17289 19.2858 6.71301 17.9972C5.25312 16.7085 4.31339 14.9316 4.06998 12.9996H19.93C19.6866 14.9316 18.7468 16.7085 17.2869 17.9972C15.8271 19.2858 13.9473 19.9978 12 19.9996ZM7.99998 7.99957C7.8022 7.99957 7.60886 8.05822 7.44441 8.1681C7.27996 8.27798 7.15178 8.43416 7.0761 8.61689C7.00041 8.79961 6.98061 9.00068 7.01919 9.19466C7.05778 9.38864 7.15302 9.56682 7.29287 9.70668C7.43272 9.84653 7.6109 9.94177 7.80489 9.98036C7.99887 10.0189 8.19993 9.99914 8.38266 9.92345C8.56539 9.84776 8.72156 9.71959 8.83145 9.55514C8.94133 9.39069 8.99998 9.19735 8.99998 8.99957C8.99998 8.73435 8.89462 8.48 8.70708 8.29246C8.51955 8.10493 8.26519 7.99957 7.99998 7.99957ZM14 7.99957C13.8022 7.99957 13.6089 8.05822 13.4444 8.1681C13.28 8.27798 13.1518 8.43416 13.0761 8.61689C13.0004 8.79961 12.9806 9.00068 13.0192 9.19466C13.0578 9.38864 13.153 9.56682 13.2929 9.70668C13.4327 9.84653 13.6109 9.94177 13.8049 9.98036C13.9989 10.0189 14.1999 9.99914 14.3827 9.92345C14.5654 9.84776 14.7216 9.71959 14.8314 9.55514C14.9413 9.39069 15 9.19735 15 8.99957C15 8.73435 14.8946 8.48 14.7071 8.29246C14.5195 8.10493 14.2652 7.99957 14 7.99957ZM11 17.9296C11.1494 18.0143 11.3182 18.059 11.49 18.0596C11.6672 18.0593 11.8411 18.0119 11.994 17.9223C12.1468 17.8327 12.2731 17.704 12.36 17.5496C12.6203 17.078 13.0029 16.6852 13.4674 16.4125C13.9319 16.1397 14.4613 15.9971 15 15.9996C15.2652 15.9996 15.5195 15.8942 15.7071 15.7067C15.8946 15.5191 16 15.2648 16 14.9996C16 14.7344 15.8946 14.48 15.7071 14.2925C15.5195 14.1049 15.2652 13.9996 15 13.9996C14.1086 13.9995 13.2334 14.2378 12.4651 14.6896C11.6968 15.1415 11.0632 15.7906 10.63 16.5696C10.4996 16.7992 10.4653 17.071 10.5347 17.3258C10.604 17.5806 10.7712 17.7977 11 17.9296Z" fill="black"/>
</svg>
