<svg width="12" height="12" viewBox="0 0 12 12" fill="none" xmlns="http://www.w3.org/2000/svg">
<path fill-rule="evenodd" clip-rule="evenodd" d="M11.2941 6C11.2941 8.92384 8.92384 11.2941 6 11.2941C3.07614 11.2941 0.705882 8.92384 0.705882 6C0.705882 3.07614 3.07614 0.705882 6 0.705882C8.92384 0.705882 11.2941 3.07614 11.2941 6ZM12 6C12 9.31369 9.31369 12 6 12C2.68629 12 0 9.31369 0 6C0 2.68629 2.68629 0 6 0C9.31369 0 12 2.68629 12 6ZM9.58595 4.65757C9.81918 4.43142 9.82489 4.05903 9.59873 3.82581C9.37257 3.5926 9.00021 3.58686 8.76699 3.81301L4.80882 7.65127L3.23301 6.12318C2.9998 5.89703 2.6274 5.90276 2.40125 6.13597C2.1751 6.36919 2.18083 6.74158 2.41405 6.96773L4.39934 8.89285C4.6275 9.11414 4.99014 9.11414 5.21831 8.89285L9.58595 4.65757Z" fill="#9D9D9D"/>
</svg>
