<svg width="20" height="20" viewBox="0 0 20 20" fill="none" xmlns="http://www.w3.org/2000/svg">
<path d="M18 5C17.5752 5.0014 17.1619 5.13799 16.82 5.39L15.07 4.59L17 3.71C17.3019 3.89326 17.6469 3.99332 18 4C18.3956 4 18.7822 3.8827 19.1111 3.66294C19.44 3.44318 19.6964 3.13082 19.8478 2.76537C19.9991 2.39992 20.0387 1.99778 19.9616 1.60982C19.8844 1.22186 19.6939 0.865492 19.4142 0.585787C19.1345 0.306082 18.7781 0.115601 18.3902 0.0384303C18.0022 -0.0387401 17.6001 0.000866562 17.2346 0.152242C16.8692 0.303617 16.5568 0.559962 16.3371 0.88886C16.1173 1.21776 16 1.60444 16 2L14.11 2.87C13.8518 2.68659 13.5537 2.56713 13.2402 2.52147C12.9268 2.47581 12.607 2.50524 12.3071 2.60736C12.0073 2.70947 11.736 2.88133 11.5156 3.1088C11.2952 3.33627 11.1319 3.61284 11.0393 3.91574C10.9467 4.21864 10.9273 4.53921 10.9828 4.85105C11.0383 5.1629 11.1671 5.4571 11.3586 5.70944C11.55 5.96177 11.7987 6.16503 12.084 6.30248C12.3694 6.43992 12.6833 6.50762 13 6.5C13.3222 6.50015 13.639 6.41751 13.92 6.26L16.02 7.26C16.07 7.64133 16.2289 8.00016 16.4776 8.29349C16.7264 8.58683 17.0544 8.80222 17.4224 8.91387C17.7905 9.02552 18.1829 9.02868 18.5527 8.92299C18.9224 8.8173 19.2539 8.60723 19.5074 8.31795C19.7608 8.02867 19.9255 7.67245 19.9816 7.29198C20.0377 6.91151 19.983 6.52291 19.8239 6.17276C19.6649 5.8226 19.4082 5.52574 19.0847 5.31774C18.7612 5.10974 18.3846 4.99942 18 5ZM17 11C16.7348 11 16.4804 11.1054 16.2929 11.2929C16.1054 11.4804 16 11.7348 16 12V12.39L14.52 10.91C14.2626 10.6509 13.9564 10.4452 13.6192 10.3049C13.2819 10.1646 12.9203 10.0924 12.555 10.0924C12.1897 10.0924 11.8281 10.1646 11.4908 10.3049C11.1536 10.4452 10.8474 10.6509 10.59 10.91L9.89 11.61L7.41 9.12C6.88742 8.60155 6.18113 8.31063 5.445 8.31063C4.70887 8.31063 4.00258 8.60155 3.48 9.12L2 10.6V5C2 4.73478 2.10536 4.48043 2.29289 4.29289C2.48043 4.10536 2.73478 4 3 4H8C8.26522 4 8.51957 3.89464 8.70711 3.70711C8.89464 3.51957 9 3.26522 9 3C9 2.73478 8.89464 2.48043 8.70711 2.29289C8.51957 2.10536 8.26522 2 8 2H3C2.20435 2 1.44129 2.31607 0.87868 2.87868C0.316071 3.44129 0 4.20435 0 5V17C0 17.7956 0.316071 18.5587 0.87868 19.1213C1.44129 19.6839 2.20435 20 3 20H15C15.7956 20 16.5587 19.6839 17.1213 19.1213C17.6839 18.5587 18 17.7956 18 17V12C18 11.7348 17.8946 11.4804 17.7071 11.2929C17.5196 11.1054 17.2652 11 17 11ZM3 18C2.73478 18 2.48043 17.8946 2.29289 17.7071C2.10536 17.5196 2 17.2652 2 17V13.43L4.9 10.53C5.04691 10.39 5.24206 10.3119 5.445 10.3119C5.64794 10.3119 5.84309 10.39 5.99 10.53L9.16 13.7L13.45 18H3ZM16 17C15.9986 17.1914 15.9354 17.3773 15.82 17.53L11.31 13L12.01 12.3C12.1562 12.1547 12.3539 12.0731 12.56 12.0731C12.7661 12.0731 12.9638 12.1547 13.11 12.3L16 15.22V17Z" fill="black"/>
</svg>
