<svg width="19" height="19" viewBox="0 0 19 19" fill="none" xmlns="http://www.w3.org/2000/svg">
<g clip-path="url(#clip0_83_581)">
<path d="M15 0.5H4C2.067 0.5 0.5 2.067 0.5 4V15C0.5 16.933 2.067 18.5 4 18.5H15C16.933 18.5 18.5 16.933 18.5 15V4C18.5 2.067 16.933 0.5 15 0.5Z" fill="white"/>
<path d="M15 0.5H4C2.067 0.5 0.5 2.067 0.5 4V15C0.5 16.933 2.067 18.5 4 18.5H15C16.933 18.5 18.5 16.933 18.5 15V4C18.5 2.067 16.933 0.5 15 0.5Z" stroke="#9D9D9D"/>
</g>
<defs>
<clipPath id="clip0_83_581">
<rect width="19" height="19" fill="white"/>
</clipPath>
</defs>
</svg>
