<svg width="19" height="19" viewBox="0 0 19 19" fill="none" xmlns="http://www.w3.org/2000/svg">
<g clip-path="url(#clip0_83_586)">
<path d="M14.25 0.59375H4.75C2.45457 0.59375 0.59375 2.45457 0.59375 4.75V14.25C0.59375 16.5454 2.45457 18.4062 4.75 18.4062H14.25C16.5454 18.4062 18.4062 16.5454 18.4062 14.25V4.75C18.4062 2.45457 16.5454 0.59375 14.25 0.59375Z" fill="white"/>
<path d="M14.25 0.59375H4.75C2.45457 0.59375 0.59375 2.45457 0.59375 4.75V14.25C0.59375 16.5454 2.45457 18.4062 4.75 18.4062H14.25C16.5454 18.4062 18.4062 16.5454 18.4062 14.25V4.75C18.4062 2.45457 16.5454 0.59375 14.25 0.59375Z" stroke="black"/>
<path d="M14.25 5.9375L7.71875 12.4688L4.75 9.5" stroke="black" stroke-width="1.6666" stroke-linecap="round" stroke-linejoin="round"/>
</g>
<defs>
<clipPath id="clip0_83_586">
<rect width="19" height="19" fill="white"/>
</clipPath>
</defs>
</svg>
