<svg width="20" height="20" viewBox="0 0 20 20" fill="none" xmlns="http://www.w3.org/2000/svg">
<path d="M19.7082 2.72079L17.2782 0.290793C17.0908 0.104542 16.8374 0 16.5732 0C16.309 0 16.0555 0.104542 15.8682 0.290793L10.2882 5.87079C10.1955 5.96423 10.1222 6.07505 10.0724 6.19689C10.0227 6.31872 9.99743 6.44919 9.99819 6.58079V9.00079C9.99819 9.26601 10.1035 9.52036 10.2911 9.7079C10.4786 9.89544 10.733 10.0008 10.9982 10.0008H13.4182C13.5498 10.0016 13.6803 9.97633 13.8021 9.92656C13.9239 9.8768 14.0347 9.80347 14.1282 9.71079L19.7082 4.13079C19.8944 3.94343 19.999 3.68998 19.999 3.42579C19.999 3.16161 19.8944 2.90815 19.7082 2.72079ZM12.9982 8.00079H11.9982V7.00079L16.5782 2.42079L17.5782 3.42079L12.9982 8.00079ZM16.9982 10.0008C16.733 10.0008 16.4786 10.1061 16.2911 10.2937C16.1035 10.4812 15.9982 10.7356 15.9982 11.0008C15.9982 12.8573 15.2607 14.6378 13.9479 15.9505C12.6352 17.2633 10.8547 18.0008 8.99819 18.0008H3.40819L4.04819 17.3708C4.14192 17.2778 4.21631 17.1672 4.26708 17.0454C4.31785 16.9235 4.34399 16.7928 4.34399 16.6608C4.34399 16.5288 4.31785 16.3981 4.26708 16.2762C4.21631 16.1544 4.14192 16.0438 4.04819 15.9508C3.06912 14.9718 2.40235 13.7245 2.13221 12.3666C1.86207 11.0086 2.0007 9.60109 2.53055 8.32194C3.06041 7.0428 3.95769 5.94951 5.10893 5.18034C6.26017 4.41118 7.61364 4.00069 8.99819 4.00079C9.2634 4.00079 9.51776 3.89544 9.70529 3.7079C9.89283 3.52036 9.99819 3.26601 9.99819 3.00079C9.99819 2.73558 9.89283 2.48122 9.70529 2.29369C9.51776 2.10615 9.2634 2.00079 8.99819 2.00079C7.30565 2.00636 5.64899 2.48907 4.21837 3.39353C2.78776 4.29799 1.64118 5.58752 0.910255 7.11411C0.179332 8.64069 -0.106305 10.3424 0.0861309 12.024C0.278567 13.7056 0.941278 15.2988 1.99819 16.6208L0.288186 18.2908C0.149429 18.4314 0.0554325 18.61 0.0180584 18.804C-0.0193158 18.998 0.0016069 19.1987 0.0781863 19.3808C0.153206 19.5634 0.280604 19.7197 0.444325 19.8301C0.608045 19.9404 0.800761 19.9998 0.998186 20.0008H8.99819C10.1801 20.0008 11.3504 19.768 12.4423 19.3157C13.5343 18.8634 14.5264 18.2005 15.3621 17.3648C16.1979 16.529 16.8608 15.5369 17.3131 14.4449C17.7654 13.353 17.9982 12.1827 17.9982 11.0008C17.9982 10.7356 17.8928 10.4812 17.7053 10.2937C17.5178 10.1061 17.2634 10.0008 16.9982 10.0008Z" fill="black"/>
</svg>
