<svg width="20" height="17" viewBox="0 0 20 17" fill="none" xmlns="http://www.w3.org/2000/svg">
<path d="M0.50471 7.06398L9.50471 12.264C9.65673 12.3517 9.82917 12.3979 10.0047 12.3979C10.1802 12.3979 10.3527 12.3517 10.5047 12.264L19.5047 7.06398C19.6562 6.97607 19.782 6.8499 19.8695 6.69809C19.9569 6.54628 20.0029 6.37416 20.0029 6.19897C20.0029 6.02379 19.9569 5.85167 19.8695 5.69986C19.782 5.54805 19.6562 5.42188 19.5047 5.33397L10.5047 0.133975C10.3527 0.0462065 10.1802 0 10.0047 0C9.82917 0 9.65673 0.0462065 9.50471 0.133975L0.50471 5.33397C0.353171 5.42188 0.227385 5.54805 0.139945 5.69986C0.0525059 5.85167 0.00648221 6.02379 0.00648221 6.19897C0.00648221 6.37416 0.0525059 6.54628 0.139945 6.69809C0.227385 6.8499 0.353171 6.97607 0.50471 7.06398ZM10.0047 2.15397L17.0047 6.15397L10.0047 10.204L3.00471 6.19397L10.0047 2.15397ZM18.5047 9.94397L10.0047 14.854L1.50471 9.94397C1.39117 9.87744 1.26562 9.83397 1.13525 9.81606C1.00488 9.79815 0.872255 9.80614 0.74498 9.83959C0.617706 9.87303 0.498284 9.93127 0.393561 10.011C0.288838 10.0906 0.200874 10.1902 0.13471 10.304C0.0685914 10.4181 0.0257052 10.5442 0.00852188 10.675C-0.00866144 10.8058 0.000197522 10.9386 0.0345887 11.066C0.0689798 11.1933 0.128224 11.3126 0.208908 11.4169C0.289592 11.5213 0.390123 11.6086 0.50471 11.674L9.50471 16.874C9.65673 16.9617 9.82917 17.0079 10.0047 17.0079C10.1802 17.0079 10.3527 16.9617 10.5047 16.874L19.5047 11.674C19.6193 11.6086 19.7198 11.5213 19.8005 11.4169C19.8812 11.3126 19.9404 11.1933 19.9748 11.066C20.0092 10.9386 20.0181 10.8058 20.0009 10.675C19.9837 10.5442 19.9408 10.4181 19.8747 10.304C19.8085 10.1902 19.7206 10.0906 19.6159 10.011C19.5111 9.93127 19.3917 9.87303 19.2644 9.83959C19.1372 9.80614 19.0045 9.79815 18.8742 9.81606C18.7438 9.83397 18.6182 9.87744 18.5047 9.94397Z" fill="black"/>
</svg>
