<svg width="20" height="20" viewBox="0 0 20 20" fill="none" xmlns="http://www.w3.org/2000/svg">
<path d="M19.7765 1.62C19.8926 1.47365 19.9653 1.29773 19.9865 1.11215C20.0078 0.926569 19.9766 0.73876 19.8965 0.57C19.8155 0.399828 19.688 0.256027 19.5287 0.155177C19.3695 0.0543265 19.185 0.000533568 18.9965 0H0.996507C0.80802 0.000533568 0.623523 0.0543265 0.464285 0.155177C0.305048 0.256027 0.177555 0.399828 0.0965064 0.57C0.0164497 0.73876 -0.0147411 0.926569 0.00646788 1.11215C0.0276768 1.29773 0.100438 1.47365 0.216507 1.62L8.99651 12.6V18H3.24651C2.98129 18 2.72694 18.1054 2.5394 18.2929C2.35186 18.4804 2.24651 18.7348 2.24651 19C2.24651 19.2652 2.35186 19.5196 2.5394 19.7071C2.72694 19.8946 2.98129 20 3.24651 20H16.7465C17.0117 20 17.2661 19.8946 17.4536 19.7071C17.6411 19.5196 17.7465 19.2652 17.7465 19C17.7465 18.7348 17.6411 18.4804 17.4536 18.2929C17.2661 18.1054 17.0117 18 16.7465 18H10.9965V12.6L19.7765 1.62ZM3.07651 2H16.9165L14.5165 5H5.51651L3.07651 2ZM9.99651 10.65L7.07651 7H12.9165L9.99651 10.65Z" fill="black"/>
</svg>
