<svg width="20" height="21" viewBox="0 0 20 21" fill="none" xmlns="http://www.w3.org/2000/svg">
<path d="M19 7.99951C19.1313 7.99954 19.2614 7.9737 19.3827 7.92346C19.5041 7.87322 19.6143 7.79956 19.7072 7.70669C19.8 7.61383 19.8737 7.50357 19.9239 7.38223C19.9742 7.26089 20 7.13084 20 6.99951V3.99951C20.0001 3.78969 19.9341 3.58516 19.8114 3.41495C19.6887 3.24475 19.5155 3.1175 19.3164 3.05127L10.3164 0.0512694C10.111 -0.0170898 9.88899 -0.0170898 9.68359 0.0512694L0.68359 3.05127C0.484493 3.1175 0.311309 3.24475 0.188606 3.41495C0.0659032 3.58516 -8.61316e-05 3.78969 8.43742e-08 3.99951V6.99951C-3.40751e-05 7.13084 0.0258085 7.26089 0.0760511 7.38223C0.126294 7.50357 0.199952 7.61383 0.292817 7.70669C0.385683 7.79956 0.495935 7.87322 0.617276 7.92346C0.738617 7.9737 0.868669 7.99954 1 7.99951H2V15.1838C1.41674 15.3892 0.911365 15.7702 0.553267 16.2743C0.195169 16.7785 0.00190247 17.3811 8.43742e-08 17.9995V19.9995C-3.40751e-05 20.1308 0.0258085 20.2609 0.0760511 20.3822C0.126294 20.5036 0.199952 20.6138 0.292817 20.7067C0.385683 20.7996 0.495935 20.8732 0.617276 20.9235C0.738617 20.9737 0.868669 20.9995 1 20.9995H19C19.1313 20.9995 19.2614 20.9737 19.3827 20.9235C19.5041 20.8732 19.6143 20.7996 19.7072 20.7067C19.8 20.6138 19.8737 20.5036 19.9239 20.3822C19.9742 20.2609 20 20.1308 20 19.9995V17.9995C19.9981 17.3811 19.8048 16.7785 19.4467 16.2743C19.0886 15.7702 18.5833 15.3892 18 15.1838V7.99951H19ZM18 18.9995H2V17.9995C2.00026 17.7344 2.10571 17.4802 2.29319 17.2927C2.48066 17.1052 2.73486 16.9998 3 16.9995H17C17.2651 16.9998 17.5193 17.1052 17.7068 17.2927C17.8943 17.4802 17.9997 17.7344 18 17.9995V18.9995ZM4 14.9995V7.99951H6V14.9995H4ZM8 14.9995V7.99951H12V14.9995H8ZM14 14.9995V7.99951H16V14.9995H14ZM2 5.99951V4.72021L10 2.05321L18 4.72021V5.99951H2Z" fill="black"/>
</svg>
