<svg width="20" height="20" viewBox="0 0 20 20" fill="none" xmlns="http://www.w3.org/2000/svg">
<path d="M2.93 15.66C2.78955 15.7996 2.69372 15.9778 2.65465 16.1719C2.61558 16.3661 2.63504 16.5674 2.71055 16.7505C2.78606 16.9336 2.91423 17.0901 3.07881 17.2003C3.24339 17.3104 3.43697 17.3692 3.635 17.3692C3.83303 17.3692 4.02661 17.3104 4.19119 17.2003C4.35577 17.0901 4.48394 16.9336 4.55945 16.7505C4.63496 16.5674 4.65442 16.3661 4.61535 16.1719C4.57628 15.9778 4.48045 15.7996 4.34 15.66C4.15264 15.4737 3.89919 15.3692 3.635 15.3692C3.37081 15.3692 3.11736 15.4737 2.93 15.66ZM17.07 4.34C17.2104 4.20039 17.3063 4.02221 17.3453 3.82807C17.3844 3.63393 17.365 3.43256 17.2894 3.24948C17.2139 3.06641 17.0858 2.90988 16.9212 2.79974C16.7566 2.68959 16.563 2.63079 16.365 2.63079C16.167 2.63079 15.9734 2.68959 15.8088 2.79974C15.6442 2.90988 15.5161 3.06641 15.4406 3.24948C15.365 3.43256 15.3456 3.63393 15.3847 3.82807C15.4237 4.02221 15.5196 4.20039 15.66 4.34C15.8474 4.52625 16.1008 4.63079 16.365 4.63079C16.6292 4.63079 16.8826 4.52625 17.07 4.34ZM4.34 4.34C4.48045 4.20039 4.57628 4.02221 4.61535 3.82807C4.65442 3.63393 4.63496 3.43256 4.55945 3.24948C4.48394 3.06641 4.35577 2.90988 4.19119 2.79974C4.02661 2.68959 3.83303 2.63079 3.635 2.63079C3.43697 2.63079 3.24339 2.68959 3.07881 2.79974C2.91423 2.90988 2.78606 3.06641 2.71055 3.24948C2.63504 3.43256 2.61558 3.63393 2.65465 3.82807C2.69372 4.02221 2.78955 4.20039 2.93 4.34C3.11736 4.52625 3.37081 4.63079 3.635 4.63079C3.89919 4.63079 4.15264 4.52625 4.34 4.34ZM15.66 15.66C15.5196 15.7996 15.4237 15.9778 15.3847 16.1719C15.3456 16.3661 15.365 16.5674 15.4406 16.7505C15.5161 16.9336 15.6442 17.0901 15.8088 17.2003C15.9734 17.3104 16.167 17.3692 16.365 17.3692C16.563 17.3692 16.7566 17.3104 16.9212 17.2003C17.0858 17.0901 17.2139 16.9336 17.2894 16.7505C17.365 16.5674 17.3844 16.3661 17.3453 16.1719C17.3063 15.9778 17.2104 15.7996 17.07 15.66C16.8826 15.4737 16.6292 15.3692 16.365 15.3692C16.1008 15.3692 15.8474 15.4737 15.66 15.66ZM19 9H17.41L18.71 7.71C18.8032 7.61676 18.8772 7.50607 18.9277 7.38425C18.9781 7.26243 19.0041 7.13186 19.0041 7C19.0041 6.86814 18.9781 6.73757 18.9277 6.61575C18.8772 6.49393 18.8032 6.38324 18.71 6.29C18.6168 6.19676 18.5061 6.1228 18.3842 6.07234C18.2624 6.02188 18.1319 5.99591 18 5.99591C17.8681 5.99591 17.7376 6.02188 17.6158 6.07234C17.4939 6.1228 17.3832 6.19676 17.29 6.29L14.59 9H12.41L14.71 6.71C14.8032 6.61676 14.8772 6.50607 14.9277 6.38425C14.9781 6.26243 15.0041 6.13186 15.0041 6C15.0041 5.86814 14.9781 5.73757 14.9277 5.61575C14.8772 5.49393 14.8032 5.38324 14.71 5.29C14.6168 5.19676 14.5061 5.1228 14.3842 5.07234C14.2624 5.02188 14.1319 4.99591 14 4.99591C13.8681 4.99591 13.7376 5.02188 13.6158 5.07234C13.4939 5.1228 13.3832 5.19676 13.29 5.29L11 7.59V5.41L13.71 2.71C13.8032 2.61676 13.8772 2.50607 13.9277 2.38425C13.9781 2.26243 14.0041 2.13186 14.0041 2C14.0041 1.86814 13.9781 1.73757 13.9277 1.61575C13.8772 1.49393 13.8032 1.38324 13.71 1.29C13.6168 1.19676 13.5061 1.1228 13.3842 1.07234C13.2624 1.02188 13.1319 0.995908 13 0.995908C12.7337 0.995908 12.4783 1.1017 12.29 1.29L11 2.59V1C11 0.734784 10.8946 0.48043 10.7071 0.292893C10.5196 0.105357 10.2652 0 10 0C9.73478 0 9.48043 0.105357 9.29289 0.292893C9.10536 0.48043 9 0.734784 9 1V2.59L7.71 1.29C7.5217 1.1017 7.2663 0.995908 7 0.995908C6.7337 0.995908 6.4783 1.1017 6.29 1.29C6.1017 1.4783 5.99591 1.7337 5.99591 2C5.99591 2.2663 6.1017 2.5217 6.29 2.71L9 5.41V7.59L6.71 5.29C6.61676 5.19676 6.50607 5.1228 6.38425 5.07234C6.26243 5.02188 6.13186 4.99591 6 4.99591C5.86814 4.99591 5.73757 5.02188 5.61575 5.07234C5.49393 5.1228 5.38324 5.19676 5.29 5.29C5.19676 5.38324 5.1228 5.49393 5.07234 5.61575C5.02188 5.73757 4.99591 5.86814 4.99591 6C4.99591 6.13186 5.02188 6.26243 5.07234 6.38425C5.1228 6.50607 5.19676 6.61676 5.29 6.71L7.59 9H5.41L2.71 6.29C2.5217 6.1017 2.2663 5.99591 2 5.99591C1.7337 5.99591 1.4783 6.1017 1.29 6.29C1.1017 6.4783 0.995908 6.7337 0.995908 7C0.995908 7.2663 1.1017 7.5217 1.29 7.71L2.59 9H1C0.734784 9 0.48043 9.10536 0.292893 9.29289C0.105357 9.48043 0 9.73478 0 10C0 10.2652 0.105357 10.5196 0.292893 10.7071C0.48043 10.8946 0.734784 11 1 11H2.59L1.29 12.29C1.19627 12.383 1.12188 12.4936 1.07111 12.6154C1.02034 12.7373 0.994202 12.868 0.994202 13C0.994202 13.132 1.02034 13.2627 1.07111 13.3846C1.12188 13.5064 1.19627 13.617 1.29 13.71C1.38296 13.8037 1.49356 13.8781 1.61542 13.9289C1.73728 13.9797 1.86799 14.0058 2 14.0058C2.13201 14.0058 2.26272 13.9797 2.38458 13.9289C2.50644 13.8781 2.61704 13.8037 2.71 13.71L5.41 11H7.59L5.29 13.29C5.19627 13.383 5.12188 13.4936 5.07111 13.6154C5.02034 13.7373 4.9942 13.868 4.9942 14C4.9942 14.132 5.02034 14.2627 5.07111 14.3846C5.12188 14.5064 5.19627 14.617 5.29 14.71C5.38296 14.8037 5.49356 14.8781 5.61542 14.9289C5.73728 14.9797 5.86799 15.0058 6 15.0058C6.13201 15.0058 6.26272 14.9797 6.38458 14.9289C6.50644 14.8781 6.61704 14.8037 6.71 14.71L9 12.41V14.59L6.29 17.29C6.1017 17.4783 5.99591 17.7337 5.99591 18C5.99591 18.2663 6.1017 18.5217 6.29 18.71C6.4783 18.8983 6.7337 19.0041 7 19.0041C7.2663 19.0041 7.5217 18.8983 7.71 18.71L9 17.41V19C9 19.2652 9.10536 19.5196 9.29289 19.7071C9.48043 19.8946 9.73478 20 10 20C10.2652 20 10.5196 19.8946 10.7071 19.7071C10.8946 19.5196 11 19.2652 11 19V17.41L12.29 18.71C12.383 18.8037 12.4936 18.8781 12.6154 18.9289C12.7373 18.9797 12.868 19.0058 13 19.0058C13.132 19.0058 13.2627 18.9797 13.3846 18.9289C13.5064 18.8781 13.617 18.8037 13.71 18.71C13.8037 18.617 13.8781 18.5064 13.9289 18.3846C13.9797 18.2627 14.0058 18.132 14.0058 18C14.0058 17.868 13.9797 17.7373 13.9289 17.6154C13.8781 17.4936 13.8037 17.383 13.71 17.29L11 14.59V12.41L13.29 14.71C13.383 14.8037 13.4936 14.8781 13.6154 14.9289C13.7373 14.9797 13.868 15.0058 14 15.0058C14.132 15.0058 14.2627 14.9797 14.3846 14.9289C14.5064 14.8781 14.617 14.8037 14.71 14.71C14.8037 14.617 14.8781 14.5064 14.9289 14.3846C14.9797 14.2627 15.0058 14.132 15.0058 14C15.0058 13.868 14.9797 13.7373 14.9289 13.6154C14.8781 13.4936 14.8037 13.383 14.71 13.29L12.41 11H14.59L17.29 13.71C17.383 13.8037 17.4936 13.8781 17.6154 13.9289C17.7373 13.9797 17.868 14.0058 18 14.0058C18.132 14.0058 18.2627 13.9797 18.3846 13.9289C18.5064 13.8781 18.617 13.8037 18.71 13.71C18.8037 13.617 18.8781 13.5064 18.9289 13.3846C18.9797 13.2627 19.0058 13.132 19.0058 13C19.0058 12.868 18.9797 12.7373 18.9289 12.6154C18.8781 12.4936 18.8037 12.383 18.71 12.29L17.41 11H19C19.2652 11 19.5196 10.8946 19.7071 10.7071C19.8946 10.5196 20 10.2652 20 10C20 9.73478 19.8946 9.48043 19.7071 9.29289C19.5196 9.10536 19.2652 9 19 9Z" fill="black"/>
</svg>
