<svg width="20" height="18" viewBox="0 0 20 18" fill="none" xmlns="http://www.w3.org/2000/svg">
<path fill-rule="evenodd" clip-rule="evenodd" d="M18.172 1.87907C17.112 0.816279 15.7068 0.167612 14.2103 0.0502417C12.7139 -0.0671284 11.2248 0.354538 10.012 1.23907C8.73965 0.292709 7.15599 -0.136417 5.57991 0.038109C4.00384 0.212635 2.55243 0.97785 1.51797 2.17966C0.483501 3.38146 -0.0571834 4.93059 0.00479541 6.51509C0.0667742 8.09958 0.726812 9.60174 1.85199 10.7191L8.06199 16.9391C8.58201 17.4509 9.28238 17.7377 10.012 17.7377C10.7416 17.7377 11.442 17.4509 11.962 16.9391L18.172 10.7191C19.3396 9.54434 19.9949 7.95535 19.9949 6.29907C19.9949 4.6428 19.3396 3.0538 18.172 1.87907Z" fill="#D6001C"/>
</svg>
