<svg width="20" height="20" viewBox="0 0 20 20" fill="none" xmlns="http://www.w3.org/2000/svg">
<path fill-rule="evenodd" clip-rule="evenodd" d="M18 10C18 14.4183 14.4183 18 10 18C5.58172 18 2 14.4183 2 10C2 5.58172 5.58172 2 10 2C14.4183 2 18 5.58172 18 10ZM20 10C20 15.5228 15.5228 20 10 20C4.47715 20 0 15.5228 0 10C0 4.47715 4.47715 0 10 0C15.5228 0 20 4.47715 20 10ZM9.00001 13.3484C9.00111 13.086 9.10526 12.8346 9.29001 12.6484C9.38297 12.5546 9.49357 12.4802 9.61543 12.4295C9.73729 12.3787 9.86799 12.3526 10 12.3526C10.132 12.3526 10.2627 12.3787 10.3846 12.4295C10.5064 12.4802 10.617 12.5546 10.71 12.6484C10.8947 12.8346 10.9989 13.086 11 13.3484C10.9996 13.5787 10.9196 13.8018 10.7737 13.98C10.6278 14.1582 10.4248 14.2806 10.1991 14.3264C9.97334 14.3723 9.73872 14.3388 9.53482 14.2317C9.33093 14.1245 9.17028 13.9503 9.08001 13.7384C9.02747 13.615 9.00026 13.4824 9.00001 13.3484ZM8.49891 5.7498C8.95534 5.48648 9.47307 5.34802 10 5.34836C10.7957 5.34836 11.5587 5.66443 12.1213 6.22704C12.6839 6.78964 13 7.55271 13 8.34836C13 9.144 12.6839 9.90707 12.1213 10.4697C11.5587 11.0323 10.7957 11.3484 10 11.3484C9.73479 11.3484 9.48044 11.243 9.2929 11.0555C9.10536 10.8679 9.00001 10.6136 9.00001 10.3484C9.00001 10.0831 9.10536 9.82878 9.2929 9.64125C9.48044 9.45371 9.73479 9.34836 10 9.34836C10.1754 9.34766 10.3475 9.30086 10.499 9.21264C10.6506 9.12443 10.7763 8.99791 10.8635 8.84578C10.9508 8.69364 10.9965 8.52125 10.996 8.34588C10.9956 8.17051 10.949 7.99834 10.8611 7.84665C10.7731 7.69495 10.6467 7.56905 10.4947 7.4816C10.3427 7.39414 10.1704 7.34819 9.99504 7.34836C9.81967 7.34854 9.64743 7.39482 9.4956 7.48258C9.34377 7.57034 9.21769 7.69648 9.13001 7.84836C8.99164 8.06602 8.77452 8.2218 8.524 8.28317C8.27348 8.34453 8.00895 8.30672 7.78565 8.17765C7.56234 8.04857 7.39755 7.83821 7.32569 7.5905C7.25383 7.34279 7.28045 7.0769 7.40001 6.84836C7.66347 6.39201 8.04249 6.01312 8.49891 5.7498Z" fill="black"/>
</svg>
