<svg width="13" height="16" viewBox="0 0 13 16" fill="none" xmlns="http://www.w3.org/2000/svg">
<g clip-path="url(#clip0_187_284)">
<path d="M13 8C13 7.78782 12.9144 7.58434 12.762 7.43431C12.6097 7.28429 12.403 7.2 12.1875 7.2H6.02063L7.88938 5.368C7.96513 5.29341 8.02522 5.20486 8.06622 5.1074C8.10722 5.00994 8.12833 4.90549 8.12833 4.8C8.12833 4.69451 8.10722 4.59006 8.06622 4.4926C8.02522 4.39514 7.96513 4.30659 7.88938 4.232C7.81362 4.15741 7.72368 4.09824 7.6247 4.05787C7.52572 4.0175 7.41964 3.99673 7.3125 3.99673C7.20536 3.99673 7.09928 4.0175 7.0003 4.05787C6.90132 4.09824 6.81138 4.15741 6.73562 4.232L3.48563 7.432C3.41165 7.50808 3.35367 7.5978 3.315 7.696C3.23373 7.89077 3.23373 8.1092 3.315 8.304C3.35367 8.40224 3.41165 8.49192 3.48563 8.568L6.73562 11.768C6.81115 11.843 6.90102 11.9025 7.00003 11.9431C7.09904 11.9838 7.20524 12.0046 7.3125 12.0046C7.41976 12.0046 7.52596 11.9838 7.62497 11.9431C7.72398 11.9025 7.81385 11.843 7.88938 11.768C7.96553 11.6936 8.02597 11.6051 8.06722 11.5077C8.10847 11.4102 8.12971 11.3056 8.12971 11.2C8.12971 11.0944 8.10847 10.9898 8.06722 10.8923C8.02597 10.7949 7.96553 10.7064 7.88938 10.632L6.02063 8.8H12.1875C12.403 8.8 12.6097 8.71568 12.762 8.56568C12.9144 8.41568 13 8.21216 13 8ZM10.5625 0H2.4375C1.79103 0 1.17105 0.252857 0.713928 0.702944C0.256808 1.15303 0 1.76348 0 2.4V13.6C0 14.2365 0.256808 14.847 0.713928 15.297C1.17105 15.7471 1.79103 16 2.4375 16H10.5625C11.2089 16 11.8289 15.7471 12.2861 15.297C12.7432 14.847 13 14.2365 13 13.6V11.2C13 10.9878 12.9144 10.7843 12.762 10.6343C12.6097 10.4843 12.403 10.4 12.1875 10.4C11.972 10.4 11.7653 10.4843 11.613 10.6343C11.4606 10.7843 11.375 10.9878 11.375 11.2V13.6C11.375 13.8122 11.2894 14.0157 11.137 14.1657C10.9847 14.3157 10.778 14.4 10.5625 14.4H2.4375C2.22201 14.4 2.01535 14.3157 1.86297 14.1657C1.71061 14.0157 1.625 13.8122 1.625 13.6V2.4C1.625 2.18782 1.71061 1.98434 1.86297 1.83431C2.01535 1.68429 2.22201 1.6 2.4375 1.6H10.5625C10.778 1.6 10.9847 1.68429 11.137 1.83431C11.2894 1.98434 11.375 2.18782 11.375 2.4V4.8C11.375 5.01218 11.4606 5.21566 11.613 5.36569C11.7653 5.51571 11.972 5.6 12.1875 5.6C12.403 5.6 12.6097 5.51571 12.762 5.36569C12.9144 5.21566 13 5.01218 13 4.8V2.4C13 1.76348 12.7432 1.15303 12.2861 0.702944C11.8289 0.252857 11.2089 0 10.5625 0Z" fill="#D6001C"/>
</g>
<defs>
<clipPath id="clip0_187_284">
<rect width="13" height="16" fill="white"/>
</clipPath>
</defs>
</svg>
