<svg width="20" height="20" viewBox="0 0 20 20" fill="none" xmlns="http://www.w3.org/2000/svg">
<path d="M7.87093 15.5452L6.10093 17.2652C5.6368 17.7293 5.00731 17.9901 4.35093 17.9901C3.69455 17.9901 3.06506 17.7293 2.60093 17.2652C2.1368 16.8011 1.87606 16.1716 1.87606 15.5152C1.87606 14.8588 2.1368 14.2293 2.60093 13.7652L7.14093 9.21521C7.58654 8.76815 8.18695 8.50949 8.81794 8.49274C9.44894 8.47599 10.0622 8.70243 10.5309 9.12521L10.6509 9.22521C10.8406 9.41086 11.0962 9.51358 11.3615 9.51077C11.6269 9.50795 11.8803 9.39984 12.0659 9.21021C12.2516 9.02058 12.3543 8.76497 12.3515 8.49961C12.3487 8.23424 12.2406 7.98086 12.0509 7.79521C11.9945 7.72224 11.9344 7.65215 11.8709 7.58521C11.0173 6.84253 9.91326 6.45206 8.7825 6.49291C7.65173 6.53376 6.57876 7.00287 5.78093 7.80521L1.18093 12.3552C0.399287 13.206 -0.0234493 14.3259 0.00100474 15.481C0.0254587 16.636 0.495212 17.737 1.31216 18.554C2.12911 19.3709 3.23009 19.8407 4.38518 19.8651C5.54026 19.8896 6.66014 19.4669 7.51093 18.6852L9.24093 16.9952C9.41175 16.8089 9.50565 16.5647 9.50374 16.3119C9.50183 16.0592 9.40425 15.8165 9.23064 15.6327C9.05703 15.449 8.82027 15.3378 8.568 15.3216C8.31573 15.3053 8.06666 15.3852 7.87093 15.5452ZM18.5609 1.30521C17.7197 0.469219 16.5819 0 15.3959 0C14.21 0 13.0722 0.469219 12.2309 1.30521L10.5009 2.99521C10.3301 3.18156 10.2362 3.42569 10.2381 3.67848C10.24 3.93126 10.3376 4.17395 10.5112 4.3577C10.6848 4.54145 10.9216 4.65263 11.1739 4.66886C11.4261 4.6851 11.6752 4.60519 11.8709 4.44521L13.6009 2.72521C14.0651 2.26108 14.6946 2.00034 15.3509 2.00034C16.0073 2.00034 16.6368 2.26108 17.1009 2.72521C17.5651 3.18934 17.8258 3.81883 17.8258 4.47521C17.8258 5.13159 17.5651 5.76108 17.1009 6.22521L12.5609 10.7752C12.1153 11.2223 11.5149 11.4809 10.8839 11.4977C10.2529 11.5144 9.63964 11.288 9.17093 10.8652L9.05093 10.7652C8.8613 10.5796 8.60569 10.4768 8.34032 10.4797C8.07496 10.4825 7.82158 10.5906 7.63593 10.7802C7.45028 10.9698 7.34756 11.2255 7.35037 11.4908C7.35319 11.7562 7.4613 12.0096 7.65093 12.1952C7.72357 12.2695 7.80036 12.3396 7.88093 12.4052C8.73561 13.1457 9.83916 13.5347 10.9692 13.4938C12.0993 13.453 13.1719 12.9854 13.9709 12.1852L18.5209 7.63521C19.3623 6.79929 19.8387 5.66444 19.8462 4.47846C19.8537 3.29248 19.3916 2.1517 18.5609 1.30521Z" fill="black"/>
</svg>
