<svg width="21" height="21" viewBox="0 0 21 21" fill="none" xmlns="http://www.w3.org/2000/svg">
<path fill-rule="evenodd" clip-rule="evenodd" d="M17.3658 7.0058L19.7158 9.2958C19.8129 9.38542 19.8912 9.49338 19.9463 9.61346C20.0014 9.73353 20.0322 9.86334 20.0369 9.99537C20.0415 10.1274 20.0199 10.2591 19.9734 10.3827C19.9269 10.5064 19.8563 10.6196 19.7658 10.7158L17.4158 13.0558V16.3658C17.4158 16.631 17.3104 16.8854 17.1229 17.0729C16.9354 17.2604 16.681 17.3658 16.4158 17.3658H13.1058L10.7658 19.7158C10.6728 19.8095 10.5622 19.8839 10.4404 19.9347C10.3185 19.9855 10.1878 20.0116 10.0558 20.0116C9.92379 20.0116 9.79308 19.9855 9.67122 19.9347C9.54936 19.8839 9.43876 19.8095 9.3458 19.7158L7.0058 17.3658H3.6458C3.38058 17.3658 3.12623 17.2604 2.93869 17.0729C2.75116 16.8854 2.6458 16.631 2.6458 16.3658V13.0558L0.295798 10.7158C0.20207 10.6228 0.127676 10.5122 0.0769069 10.3904C0.0261382 10.2685 0 10.1378 0 10.0058C0 9.87379 0.0261382 9.74308 0.0769069 9.62122C0.127676 9.49936 0.20207 9.38876 0.295798 9.2958L2.6458 7.0058V3.6458C2.6458 3.38058 2.75116 3.12623 2.93869 2.93869C3.12623 2.75116 3.38058 2.6458 3.6458 2.6458H7.0058L9.2958 0.295798C9.38876 0.20207 9.49936 0.127676 9.62122 0.0769069C9.74308 0.0261382 9.87379 0 10.0058 0C10.1378 0 10.2685 0.0261382 10.3904 0.0769069C10.5122 0.127676 10.6228 0.20207 10.7158 0.295798L13.0558 2.6458H16.3658C16.631 2.6458 16.8854 2.75116 17.0729 2.93869C17.2604 3.12623 17.3658 3.38058 17.3658 3.6458V7.0058ZM15.4446 12.2607C15.4961 12.1389 15.5713 12.0284 15.6658 11.9358L17.5958 10.0058L15.6658 8.0758C15.5713 7.98318 15.4961 7.87274 15.4446 7.75086C15.3931 7.62899 15.3663 7.49811 15.3658 7.3658V4.6458H12.6458C12.5135 4.64525 12.3826 4.61845 12.2607 4.56695C12.1389 4.51546 12.0284 4.44029 11.9358 4.3458L10.0058 2.4158L8.0758 4.3458C7.98318 4.44029 7.87274 4.51546 7.75086 4.56695C7.62899 4.61845 7.49811 4.64525 7.3658 4.6458H4.6458V7.3658C4.64525 7.49811 4.61845 7.62899 4.56695 7.75086C4.51546 7.87274 4.44029 7.98318 4.3458 8.0758L2.4158 10.0058L4.3458 11.9358C4.44029 12.0284 4.51546 12.1389 4.56695 12.2607C4.61845 12.3826 4.64525 12.5135 4.6458 12.6458V15.3658H7.3658C7.49811 15.3663 7.62899 15.3931 7.75086 15.4446C7.87274 15.4961 7.98318 15.5713 8.0758 15.6658L10.0058 17.5958L11.9358 15.6658C12.0284 15.5713 12.1389 15.4961 12.2607 15.4446C12.3826 15.3931 12.5135 15.3663 12.6458 15.3658H15.3658V12.6458C15.3663 12.5135 15.3931 12.3826 15.4446 12.2607ZM10.2648 11.1801C10.8888 12.1081 11.4688 13.0481 12.0048 14.0001H13.5768V5.68408H11.7168V10.5921C11.4288 10.1601 11.1208 9.71208 10.7928 9.24808C10.4648 8.77608 10.1328 8.32408 9.7968 7.89208C9.46881 7.45208 9.1448 7.04008 8.8248 6.65608C8.5048 6.27208 8.2128 5.94808 7.9488 5.68408H6.4248V14.0001H8.2728V8.55208C8.9768 9.37608 9.6408 10.2521 10.2648 11.1801Z" fill="black"/>
</svg>
