<svg width="90" height="90" viewBox="0 0 90 90" fill="none" xmlns="http://www.w3.org/2000/svg">
<circle cx="45" cy="45" r="45" fill="#D9D9D9"/>
<path d="M54.32 42.55L52.43 41.92L53.32 40.14C53.4102 39.9537 53.4404 39.744 53.4064 39.5398C53.3723 39.3356 53.2758 39.147 53.13 39L51 36.87C50.8522 36.7221 50.6618 36.6242 50.4555 36.5901C50.2493 36.556 50.0375 36.5875 49.85 36.68L48.07 37.57L47.44 35.68C47.3735 35.483 47.2472 35.3116 47.0787 35.1898C46.9102 35.0679 46.7079 35.0015 46.5 35H43.5C43.2904 34.9995 43.0858 35.0648 42.9154 35.1868C42.7449 35.3089 42.6171 35.4814 42.55 35.68L41.92 37.57L40.14 36.68C39.9537 36.5898 39.744 36.5596 39.5398 36.5936C39.3356 36.6277 39.147 36.7242 39 36.87L36.87 39C36.7221 39.1478 36.6242 39.3382 36.5901 39.5445C36.556 39.7507 36.5875 39.9625 36.68 40.15L37.57 41.93L35.68 42.56C35.483 42.6265 35.3116 42.7528 35.1898 42.9213C35.0679 43.0898 35.0015 43.2921 35 43.5V46.5C34.9995 46.7096 35.0648 46.9142 35.1868 47.0846C35.3089 47.2551 35.4814 47.3829 35.68 47.45L37.57 48.08L36.68 49.86C36.5898 50.0463 36.5596 50.256 36.5936 50.4602C36.6277 50.6644 36.7242 50.853 36.87 51L39 53.13C39.1478 53.2779 39.3382 53.3758 39.5445 53.4099C39.7507 53.444 39.9625 53.4125 40.15 53.32L41.93 52.43L42.56 54.32C42.6271 54.5186 42.7549 54.6911 42.9254 54.8132C43.0958 54.9352 43.3004 55.0005 43.51 55H46.51C46.7196 55.0005 46.9242 54.9352 47.0946 54.8132C47.2651 54.6911 47.3929 54.5186 47.46 54.32L48.09 52.43L49.87 53.32C50.0551 53.4079 50.2628 53.4369 50.4649 53.4029C50.667 53.3689 50.8538 53.2737 51 53.13L53.13 51C53.2779 50.8522 53.3758 50.6618 53.4099 50.4555C53.444 50.2493 53.4125 50.0375 53.32 49.85L52.43 48.07L54.32 47.44C54.517 47.3735 54.6884 47.2472 54.8103 47.0787C54.9321 46.9102 54.9985 46.7079 55 46.5V43.5C55.0005 43.2904 54.9352 43.0858 54.8132 42.9154C54.6911 42.7449 54.5186 42.6171 54.32 42.55ZM53 45.78L51.8 46.18C51.5241 46.2695 51.2709 46.418 51.0581 46.6151C50.8452 46.8122 50.6778 47.0533 50.5675 47.3216C50.4571 47.5899 50.4064 47.879 50.419 48.1688C50.4315 48.4586 50.5069 48.7422 50.64 49L51.21 50.14L50.11 51.24L49 50.64C48.7436 50.5122 48.4627 50.4411 48.1763 50.4313C47.89 50.4215 47.6049 50.4734 47.3403 50.5834C47.0758 50.6934 46.8379 50.8589 46.6429 51.0688C46.4479 51.2787 46.3003 51.5281 46.21 51.8L45.81 53H44.22L43.82 51.8C43.7305 51.5241 43.582 51.2709 43.3849 51.0581C43.1878 50.8452 42.9467 50.6778 42.6784 50.5675C42.4101 50.4571 42.1211 50.4064 41.8312 50.419C41.5414 50.4315 41.2578 50.5069 41 50.64L39.86 51.21L38.76 50.11L39.36 49C39.4931 48.7422 39.5685 48.4586 39.581 48.1688C39.5936 47.879 39.5429 47.5899 39.4325 47.3216C39.3222 47.0533 39.1548 46.8122 38.9419 46.6151C38.7291 46.418 38.4759 46.2695 38.2 46.18L37 45.78V44.22L38.2 43.82C38.4759 43.7305 38.7291 43.582 38.9419 43.3849C39.1548 43.1878 39.3222 42.9467 39.4325 42.6784C39.5429 42.4101 39.5936 42.1211 39.581 41.8312C39.5685 41.5414 39.4931 41.2578 39.36 41L38.79 39.89L39.89 38.79L41 39.36C41.2578 39.4931 41.5414 39.5685 41.8312 39.581C42.1211 39.5936 42.4101 39.5429 42.6784 39.4325C42.9467 39.3222 43.1878 39.1548 43.3849 38.9419C43.582 38.7291 43.7305 38.4759 43.82 38.2L44.22 37H45.78L46.18 38.2C46.2695 38.4759 46.418 38.7291 46.6151 38.9419C46.8122 39.1548 47.0533 39.3222 47.3216 39.4325C47.5899 39.5429 47.879 39.5936 48.1688 39.581C48.4586 39.5685 48.7422 39.4931 49 39.36L50.14 38.79L51.24 39.89L50.64 41C50.5122 41.2564 50.4411 41.5373 50.4313 41.8237C50.4215 42.11 50.4734 42.3951 50.5834 42.6597C50.6934 42.9242 50.8589 43.1621 51.0688 43.3571C51.2787 43.5521 51.5281 43.6997 51.8 43.79L53 44.19V45.78ZM45 41C44.2089 41 43.4355 41.2346 42.7777 41.6741C42.1199 42.1137 41.6072 42.7384 41.3045 43.4693C41.0017 44.2002 40.9225 45.0044 41.0769 45.7804C41.2312 46.5563 41.6122 47.269 42.1716 47.8284C42.731 48.3878 43.4437 48.7688 44.2196 48.9231C44.9956 49.0775 45.7998 48.9983 46.5307 48.6955C47.2616 48.3928 47.8864 47.8801 48.3259 47.2223C48.7654 46.5645 49 45.7911 49 45C49 43.9391 48.5786 42.9217 47.8284 42.1716C47.0783 41.4214 46.0609 41 45 41ZM45 47C44.6044 47 44.2178 46.8827 43.8889 46.6629C43.56 46.4432 43.3036 46.1308 43.1522 45.7654C43.0009 45.3999 42.9613 44.9978 43.0384 44.6098C43.1156 44.2219 43.3061 43.8655 43.5858 43.5858C43.8655 43.3061 44.2219 43.1156 44.6098 43.0384C44.9978 42.9613 45.3999 43.0009 45.7654 43.1522C46.1308 43.3036 46.4432 43.56 46.6629 43.8889C46.8827 44.2178 47 44.6044 47 45C47 45.5304 46.7893 46.0391 46.4142 46.4142C46.0391 46.7893 45.5304 47 45 47Z" fill="white"/>
</svg>
