<svg width="19" height="19" viewBox="0 0 19 19" fill="none" xmlns="http://www.w3.org/2000/svg">
<g clip-path="url(#clip0_83_595)">
<path d="M18.4062 9.5C18.4062 4.58121 14.4188 0.59375 9.5 0.59375C4.58121 0.59375 0.59375 4.58121 0.59375 9.5C0.59375 14.4188 4.58121 18.4062 9.5 18.4062C14.4188 18.4062 18.4062 14.4188 18.4062 9.5Z" fill="white"/>
<path d="M18.4062 9.5C18.4062 4.58121 14.4188 0.59375 9.5 0.59375C4.58121 0.59375 0.59375 4.58121 0.59375 9.5C0.59375 14.4188 4.58121 18.4062 9.5 18.4062C14.4188 18.4062 18.4062 14.4188 18.4062 9.5Z" stroke="black"/>
<path d="M9.5 13.0625C11.4675 13.0625 13.0625 11.4675 13.0625 9.5C13.0625 7.53249 11.4675 5.9375 9.5 5.9375C7.53249 5.9375 5.9375 7.53249 5.9375 9.5C5.9375 11.4675 7.53249 13.0625 9.5 13.0625Z" fill="black"/>
</g>
<defs>
<clipPath id="clip0_83_595">
<rect width="19" height="19" fill="white"/>
</clipPath>
</defs>
</svg>
