<svg width="21" height="20" viewBox="0 0 21 20" fill="none" xmlns="http://www.w3.org/2000/svg">
<path fill-rule="evenodd" clip-rule="evenodd" d="M13.7147 7.57396C13.7147 10.5838 11.1622 13.1479 7.85735 13.1479C4.55254 13.1479 2 10.5838 2 7.57396C2 4.56416 4.55254 2 7.85735 2C11.1622 2 13.7147 4.56416 13.7147 7.57396ZM11.9834 14.0209C10.7842 14.7355 9.37074 15.1479 7.85735 15.1479C3.51786 15.1479 0 11.7569 0 7.57396C0 3.39098 3.51786 0 7.85735 0C12.1968 0 15.7147 3.39098 15.7147 7.57396C15.7147 9.23551 15.1597 10.7721 14.2185 12.0208C14.2257 12.0275 14.2328 12.0342 14.2399 12.041L19.7327 17.3357C20.3291 17.9106 20.3291 18.8428 19.7327 19.4177C19.1362 19.9927 18.1692 19.9927 17.5728 19.4177L12.08 14.123C12.0458 14.0901 12.0136 14.056 11.9834 14.0209Z" fill="black"/>
</svg>
