<svg width="25" height="21" viewBox="0 0 25 21" fill="none" xmlns="http://www.w3.org/2000/svg">
<path d="M22.821 7.2681L6.15431 0.52477C5.52369 0.26902 4.83149 0.195704 4.15967 0.3135C3.48785 0.431298 2.86454 0.735274 2.36352 1.18944C1.86251 1.64361 1.50477 2.22895 1.33267 2.87618C1.16056 3.5234 1.18129 4.2054 1.3924 4.84143L3.22574 10.4998L1.34479 16.1581C1.12797 16.7967 1.10361 17.483 1.27463 18.1348C1.44567 18.7865 1.80482 19.3763 2.30907 19.8331C2.95745 20.4223 3.80583 20.7549 4.69002 20.7665C5.15994 20.7661 5.62518 20.6749 6.05907 20.4981L22.7852 13.7548C23.4367 13.4893 23.9932 13.0407 24.3848 12.4655C24.7763 11.8904 24.9853 11.2145 24.9853 10.5231C24.9853 9.83172 24.7763 9.15582 24.3848 8.58068C23.9932 8.00554 23.4367 7.55693 22.7852 7.29143L22.821 7.2681ZM5.19002 18.3165C4.98002 18.4013 4.74962 18.4256 4.52602 18.3862C4.30242 18.347 4.09495 18.2459 3.92812 18.0948C3.77096 17.9476 3.65792 17.761 3.60126 17.5553C3.5446 17.3498 3.54648 17.1328 3.60669 16.9281L5.34479 11.6664H21.69L5.19002 18.3165ZM5.34479 9.3331L3.57098 4.1181C3.51076 3.91341 3.50888 3.69647 3.56555 3.49081C3.6222 3.28515 3.73525 3.09861 3.8924 2.95143C4.00444 2.83626 4.13932 2.74476 4.28877 2.68256C4.43823 2.62037 4.59908 2.58879 4.76145 2.58977C4.92104 2.59007 5.07893 2.62181 5.22574 2.6831L21.69 9.3331H5.34479Z" fill="black"/>
</svg>
