<svg width="20" height="20" viewBox="0 0 20 20" fill="none" xmlns="http://www.w3.org/2000/svg">
<path d="M15.4841 4.55409L12.6441 1.71409C12.5511 1.62036 12.4405 1.54597 12.3187 1.4952C12.1968 1.44443 12.0661 1.41829 11.9341 1.41829C11.8021 1.41829 11.6714 1.44443 11.5495 1.4952C11.4277 1.54597 11.3171 1.62036 11.2241 1.71409C11.0378 1.90145 10.9333 2.15491 10.9333 2.41909C10.9333 2.68328 11.0378 2.93673 11.2241 3.12409L13.3441 5.24409L5.24409 13.3441L3.12409 11.2241C2.93673 11.0378 2.68328 10.9333 2.41909 10.9333C2.15491 10.9333 1.90145 11.0378 1.71409 11.2241C1.62036 11.3171 1.54597 11.4277 1.4952 11.5495C1.44443 11.6714 1.41829 11.8021 1.41829 11.9341C1.41829 12.0661 1.44443 12.1968 1.4952 12.3187C1.54597 12.4405 1.62036 12.5511 1.71409 12.6441L4.52409 15.4541L7.33409 18.2641C7.42671 18.3586 7.53715 18.4338 7.65903 18.4852C7.7809 18.5367 7.91178 18.5635 8.04409 18.5641C8.24272 18.5652 8.43719 18.5072 8.60271 18.3974C8.76822 18.2876 8.89729 18.131 8.97346 17.9476C9.04963 17.7641 9.06944 17.5622 9.03037 17.3674C8.9913 17.1727 8.89512 16.994 8.75409 16.8541L6.66409 14.7641L14.7641 6.66409L16.8841 8.78409C16.9773 8.87667 17.0879 8.94998 17.2095 8.99984C17.331 9.04969 17.4612 9.07511 17.5926 9.07465C17.724 9.07418 17.854 9.04784 17.9753 8.99713C18.0965 8.94642 18.2065 8.87233 18.2991 8.77909C18.3917 8.68585 18.465 8.57529 18.5148 8.45372C18.5647 8.33215 18.5901 8.20195 18.5896 8.07056C18.5892 7.93916 18.5628 7.80914 18.5121 7.68793C18.4614 7.56671 18.3873 7.45667 18.2941 7.36409L15.4841 4.55409ZM1.71409 15.4641C1.52579 15.2758 1.27039 15.17 1.00409 15.17C0.73779 15.17 0.482395 15.2758 0.294092 15.4641C0.105788 15.6524 1.9841e-09 15.9078 0 16.1741C-1.9841e-09 16.4404 0.105788 16.6958 0.294092 16.8841L3.12409 19.7141C3.21753 19.8068 3.32835 19.8801 3.45019 19.9299C3.57202 19.9796 3.70249 20.0049 3.83409 20.0041C3.9657 20.0049 4.09616 19.9796 4.218 19.9299C4.33984 19.8801 4.45065 19.8068 4.54409 19.7141C4.63782 19.6211 4.71221 19.5105 4.76298 19.3887C4.81375 19.2668 4.83989 19.1361 4.83989 19.0041C4.83989 18.8721 4.81375 18.7414 4.76298 18.6195C4.71221 18.4977 4.63782 18.3871 4.54409 18.2941L1.71409 15.4641ZM19.7141 3.12409L16.8841 0.294092C16.7909 0.200853 16.6802 0.126892 16.5583 0.0764319C16.4365 0.0259715 16.306 0 16.1741 0C16.0422 0 15.9117 0.0259715 15.7898 0.0764319C15.668 0.126892 15.5573 0.200853 15.4641 0.294092C15.3709 0.38733 15.2969 0.49802 15.2464 0.619842C15.196 0.741664 15.17 0.872232 15.17 1.00409C15.17 1.13595 15.196 1.26652 15.2464 1.38834C15.2969 1.51016 15.3709 1.62085 15.4641 1.71409L18.2941 4.54409C18.3871 4.63782 18.4977 4.71221 18.6195 4.76298C18.7414 4.81375 18.8721 4.83989 19.0041 4.83989C19.1361 4.83989 19.2668 4.81375 19.3887 4.76298C19.5105 4.71221 19.6211 4.63782 19.7141 4.54409C19.8078 4.45113 19.8822 4.34053 19.933 4.21867C19.9838 4.09681 20.0099 3.9661 20.0099 3.83409C20.0099 3.70208 19.9838 3.57137 19.933 3.44952C19.8822 3.32766 19.8078 3.21705 19.7141 3.12409Z" fill="black"/>
</svg>
