<svg width="20" height="18" viewBox="0 0 20 18" fill="none" xmlns="http://www.w3.org/2000/svg">
<path d="M19.9846 7.20773C20.0845 6.73608 19.6848 6.17009 19.1852 6.17009L13.4896 5.41545L10.8916 0.510283C10.7917 0.321623 10.6918 0.227292 10.4919 0.132962C9.99229 -0.150028 9.39276 0.038632 9.09299 0.510283L6.59491 5.41545L0.899306 6.17009C0.599538 6.17009 0.399692 6.26442 0.299769 6.45309C-0.0999229 6.83041 -0.0999229 7.39639 0.299769 7.77371L4.39661 11.5469L3.39738 16.9237C3.39738 17.1124 3.39738 17.3011 3.4973 17.4897C3.79707 17.9614 4.39661 18.15 4.89622 17.867L9.99229 15.3201L15.0884 17.867C15.1883 17.9614 15.3881 17.9614 15.588 17.9614C15.6879 17.9614 15.6879 17.9614 15.7878 17.9614C16.2874 17.867 16.6871 17.3954 16.5872 16.8294L15.588 11.4526L19.6848 7.67938C19.8847 7.58505 19.9846 7.39639 19.9846 7.20773Z" fill="black"/>
</svg>
