<svg width="20" height="18" viewBox="0 0 20 18" fill="none" xmlns="http://www.w3.org/2000/svg">
<path d="M10.0141 0C8.7027 0 7.40417 0.232782 6.19262 0.685054C4.98108 1.13733 3.88024 1.80023 2.95296 2.63592C1.08023 4.32368 0.0281467 6.61276 0.0281467 8.9996C0.0194168 11.0777 0.817826 13.0931 2.28497 14.6963L0.287781 16.4963C0.149218 16.6228 0.0553545 16.7835 0.0180329 16.9581C-0.0192886 17.1327 0.00160464 17.3133 0.0780763 17.4772C0.161017 17.6392 0.295474 17.7752 0.464379 17.8682C0.633283 17.9611 0.829019 18.0067 1.02674 17.9992H10.0141C12.6625 17.9992 15.2025 17.051 17.0752 15.3633C18.9479 13.6755 20 11.3864 20 8.9996C20 6.61276 18.9479 4.32368 17.0752 2.63592C15.2025 0.94817 12.6625 0 10.0141 0ZM10.0141 16.1993H3.43335L4.36204 15.3623C4.54803 15.1937 4.65242 14.9656 4.65242 14.7278C4.65242 14.4901 4.54803 14.262 4.36204 14.0934C3.05447 12.9163 2.2402 11.367 2.05798 9.70948C1.87575 8.05199 2.33684 6.38882 3.36267 5.00335C4.38851 3.61787 5.91564 2.59581 7.68387 2.11128C9.4521 1.62676 11.352 1.70975 13.06 2.34612C14.7679 2.98249 16.1782 4.13286 17.0506 5.60125C17.923 7.06964 18.2034 8.7652 17.8442 10.399C17.4849 12.0329 16.5082 13.5039 15.0805 14.5616C13.6527 15.6192 11.8622 16.198 10.0141 16.1993Z" fill="black"/>
</svg>
