<svg width="20" height="20" viewBox="0 0 20 20" fill="none" xmlns="http://www.w3.org/2000/svg">
<path fill-rule="evenodd" clip-rule="evenodd" d="M18 10C18 14.4183 14.4183 18 10 18C5.58172 18 2 14.4183 2 10C2 5.58172 5.58172 2 10 2C14.4183 2 18 5.58172 18 10ZM20 10C20 15.5228 15.5228 20 10 20C4.47715 20 0 15.5228 0 10C0 4.47715 4.47715 0 10 0C15.5228 0 20 4.47715 20 10ZM8.85001 10.2884L11.54 7.58836L11.58 7.57836C11.7683 7.39005 12.0237 7.28426 12.29 7.28426C12.5563 7.28426 12.8117 7.39005 13 7.57836C13.1883 7.76666 13.2941 8.02205 13.2941 8.28835C13.2941 8.55466 13.1883 8.81005 13 8.99836L9.56001 12.4084C9.46704 12.5021 9.35644 12.5765 9.23458 12.6272C9.11272 12.678 8.98202 12.7042 8.85001 12.7042C8.71799 12.7042 8.58729 12.678 8.46543 12.6272C8.34357 12.5765 8.23297 12.5021 8.14001 12.4084L6.54001 10.8084C6.3517 10.6201 6.24591 10.3647 6.24591 10.0984C6.24591 9.83205 6.3517 9.57666 6.54001 9.38836C6.72831 9.20005 6.9837 9.09426 7.25001 9.09426C7.51631 9.09426 7.7717 9.20005 7.96001 9.38836L8.85001 10.2884Z" fill="black"/>
</svg>
