<svg width="1440" height="24" viewBox="0 0 1440 24" fill="none" xmlns="http://www.w3.org/2000/svg">
<path d="M-43.7045 20.5V16.75H-42.9773C-42.7992 16.5644 -42.6458 16.3636 -42.517 16.1477C-42.3883 15.9318 -42.2765 15.6761 -42.1818 15.3807C-42.0833 15.0814 -42 14.7178 -41.9318 14.2898C-41.8636 13.858 -41.803 13.3371 -41.75 12.7273L-41.4545 9.27273H-35.9091V16.75H-34.5682V20.5H-35.9091V18H-42.3636V20.5H-43.7045ZM-41.4545 16.75H-37.25V10.5227H-40.2045L-40.4318 12.7273C-40.5265 13.6402 -40.6439 14.4375 -40.7841 15.1193C-40.9242 15.8011 -41.1477 16.3447 -41.4545 16.75ZM-31.4474 16.0227L-27.2429 9.27273H-25.6974V18H-27.0384V11.25L-31.2202 18H-32.7884V9.27273H-31.4474V16.0227ZM-23.7869 15.7727H-22.3551C-22.3248 16.1667 -22.1468 16.4659 -21.821 16.6705C-21.4915 16.875 -21.0634 16.9773 -20.5369 16.9773C-19.9991 16.9773 -19.5388 16.8674 -19.1562 16.6477C-18.7737 16.4242 -18.5824 16.0644 -18.5824 15.5682C-18.5824 15.2765 -18.6544 15.0227 -18.7983 14.8068C-18.9422 14.5871 -19.1449 14.4167 -19.4062 14.2955C-19.6676 14.1742 -19.9763 14.1136 -20.3324 14.1136H-21.8324V12.9091H-20.3324C-19.7983 12.9091 -19.4044 12.7879 -19.1506 12.5455C-18.893 12.303 -18.7642 12 -18.7642 11.6364C-18.7642 11.2462 -18.9025 10.9337 -19.179 10.6989C-19.4555 10.4602 -19.8475 10.3409 -20.3551 10.3409C-20.8665 10.3409 -21.2926 10.4564 -21.6335 10.6875C-21.9744 10.9148 -22.1544 11.2083 -22.1733 11.5682H-23.5824C-23.5672 11.0985 -23.4233 10.6837 -23.1506 10.3239C-22.8778 9.96023 -22.5066 9.67614 -22.0369 9.47159C-21.5672 9.26326 -21.0294 9.15909 -20.4233 9.15909C-19.8097 9.15909 -19.2775 9.26705 -18.8267 9.48295C-18.3722 9.69508 -18.0218 9.98485 -17.7756 10.3523C-17.5256 10.7159 -17.4006 11.1288 -17.4006 11.5909C-17.4006 12.0833 -17.5388 12.4811 -17.8153 12.7841C-18.0919 13.0871 -18.4384 13.303 -18.8551 13.4318V13.5227C-18.5256 13.5455 -18.2396 13.6515 -17.9972 13.8409C-17.7509 14.0265 -17.5597 14.2708 -17.4233 14.5739C-17.2869 14.8731 -17.2188 15.2045 -17.2188 15.5682C-17.2188 16.0985 -17.3608 16.5606 -17.6449 16.9545C-17.929 17.3447 -18.3191 17.6477 -18.8153 17.8636C-19.3116 18.0758 -19.8778 18.1818 -20.5142 18.1818C-21.1316 18.1818 -21.6847 18.0814 -22.1733 17.8807C-22.6619 17.6761 -23.0502 17.3939 -23.3381 17.0341C-23.6222 16.6705 -23.7718 16.25 -23.7869 15.7727ZM-12.767 18.2045C-13.3201 18.2045 -13.822 18.1004 -14.2727 17.892C-14.7235 17.6799 -15.0814 17.375 -15.3466 16.9773C-15.6117 16.5758 -15.7443 16.0909 -15.7443 15.5227C-15.7443 15.0227 -15.6458 14.6174 -15.4489 14.3068C-15.2519 13.9924 -14.9886 13.7462 -14.6591 13.5682C-14.3295 13.3902 -13.9659 13.2576 -13.5682 13.1705C-13.1667 13.0795 -12.7633 13.0076 -12.358 12.9545C-11.8277 12.8864 -11.3977 12.8352 -11.0682 12.8011C-10.7348 12.7633 -10.4924 12.7008 -10.3409 12.6136C-10.1856 12.5265 -10.108 12.375 -10.108 12.1591V12.1136C-10.108 11.553 -10.2614 11.1174 -10.5682 10.8068C-10.8712 10.4962 -11.3314 10.3409 -11.9489 10.3409C-12.589 10.3409 -13.0909 10.4811 -13.4545 10.7614C-13.8182 11.0417 -14.0739 11.3409 -14.2216 11.6591L-15.4943 11.2045C-15.267 10.6742 -14.964 10.2614 -14.5852 9.96591C-14.2027 9.66667 -13.786 9.45833 -13.3352 9.34091C-12.8807 9.2197 -12.4337 9.15909 -11.9943 9.15909C-11.714 9.15909 -11.392 9.19318 -11.0284 9.26136C-10.661 9.32576 -10.3068 9.46023 -9.96591 9.66477C-9.62121 9.86932 -9.33523 10.178 -9.10795 10.5909C-8.88068 11.0038 -8.76705 11.5568 -8.76705 12.25V18H-10.108V16.8182H-10.1761C-10.267 17.0076 -10.4186 17.2102 -10.6307 17.4261C-10.8428 17.642 -11.125 17.8258 -11.4773 17.9773C-11.8295 18.1288 -12.2595 18.2045 -12.767 18.2045ZM-12.5625 17C-12.0322 17 -11.5852 16.8958 -11.2216 16.6875C-10.8542 16.4792 -10.5777 16.2102 -10.392 15.8807C-10.2027 15.5511 -10.108 15.2045 -10.108 14.8409V13.6136C-10.1648 13.6818 -10.2898 13.7443 -10.483 13.8011C-10.6723 13.8542 -10.892 13.9015 -11.142 13.9432C-11.3883 13.9811 -11.6288 14.0152 -11.8636 14.0455C-12.0947 14.072 -12.2822 14.0947 -12.4261 14.1136C-12.7746 14.1591 -13.1004 14.233 -13.4034 14.3352C-13.7027 14.4337 -13.9451 14.5833 -14.1307 14.7841C-14.3125 14.9811 -14.4034 15.25 -14.4034 15.5909C-14.4034 16.0568 -14.2311 16.4091 -13.8864 16.6477C-13.5379 16.8826 -13.0966 17 -12.5625 17ZM-4.97869 16.0227L-0.774148 9.27273H0.771307V18H-0.569602V11.25L-4.75142 18H-6.3196V9.27273H-4.97869V16.0227ZM-1.66051 6.36364H-0.410511C-0.410511 6.97727 -0.622632 7.47917 -1.04688 7.86932C-1.47112 8.25947 -2.04687 8.45455 -2.77415 8.45455C-3.49006 8.45455 -4.06013 8.25947 -4.48438 7.86932C-4.90483 7.47917 -5.11506 6.97727 -5.11506 6.36364H-3.86506C-3.86506 6.65909 -3.78362 6.91856 -3.62074 7.14205C-3.45407 7.36553 -3.17187 7.47727 -2.77415 7.47727C-2.37642 7.47727 -2.09233 7.36553 -1.92188 7.14205C-1.74763 6.91856 -1.66051 6.65909 -1.66051 6.36364ZM9.06818 13.0227V14.2727H4.25V13.0227H9.06818ZM4.56818 9.27273V18H3.22727V9.27273H4.56818ZM10.0909 9.27273V18H8.75V9.27273H10.0909Z" fill="white"/>
<path d="M736.295 20.5V16.75H737.023C737.201 16.5644 737.354 16.3636 737.483 16.1477C737.612 15.9318 737.723 15.6761 737.818 15.3807C737.917 15.0814 738 14.7178 738.068 14.2898C738.136 13.858 738.197 13.3371 738.25 12.7273L738.545 9.27273H744.091V16.75H745.432V20.5H744.091V18H737.636V20.5H736.295ZM738.545 16.75H742.75V10.5227H739.795L739.568 12.7273C739.473 13.6402 739.356 14.4375 739.216 15.1193C739.076 15.8011 738.852 16.3447 738.545 16.75ZM748.553 16.0227L752.757 9.27273H754.303V18H752.962V11.25L748.78 18H747.212V9.27273H748.553V16.0227ZM756.213 15.7727H757.645C757.675 16.1667 757.853 16.4659 758.179 16.6705C758.509 16.875 758.937 16.9773 759.463 16.9773C760.001 16.9773 760.461 16.8674 760.844 16.6477C761.226 16.4242 761.418 16.0644 761.418 15.5682C761.418 15.2765 761.346 15.0227 761.202 14.8068C761.058 14.5871 760.855 14.4167 760.594 14.2955C760.332 14.1742 760.024 14.1136 759.668 14.1136H758.168V12.9091H759.668C760.202 12.9091 760.596 12.7879 760.849 12.5455C761.107 12.303 761.236 12 761.236 11.6364C761.236 11.2462 761.098 10.9337 760.821 10.6989C760.545 10.4602 760.152 10.3409 759.645 10.3409C759.134 10.3409 758.707 10.4564 758.366 10.6875C758.026 10.9148 757.846 11.2083 757.827 11.5682H756.418C756.433 11.0985 756.577 10.6837 756.849 10.3239C757.122 9.96023 757.493 9.67614 757.963 9.47159C758.433 9.26326 758.971 9.15909 759.577 9.15909C760.19 9.15909 760.723 9.26705 761.173 9.48295C761.628 9.69508 761.978 9.98485 762.224 10.3523C762.474 10.7159 762.599 11.1288 762.599 11.5909C762.599 12.0833 762.461 12.4811 762.185 12.7841C761.908 13.0871 761.562 13.303 761.145 13.4318V13.5227C761.474 13.5455 761.76 13.6515 762.003 13.8409C762.249 14.0265 762.44 14.2708 762.577 14.5739C762.713 14.8731 762.781 15.2045 762.781 15.5682C762.781 16.0985 762.639 16.5606 762.355 16.9545C762.071 17.3447 761.681 17.6477 761.185 17.8636C760.688 18.0758 760.122 18.1818 759.486 18.1818C758.868 18.1818 758.315 18.0814 757.827 17.8807C757.338 17.6761 756.95 17.3939 756.662 17.0341C756.378 16.6705 756.228 16.25 756.213 15.7727ZM767.233 18.2045C766.68 18.2045 766.178 18.1004 765.727 17.892C765.277 17.6799 764.919 17.375 764.653 16.9773C764.388 16.5758 764.256 16.0909 764.256 15.5227C764.256 15.0227 764.354 14.6174 764.551 14.3068C764.748 13.9924 765.011 13.7462 765.341 13.5682C765.67 13.3902 766.034 13.2576 766.432 13.1705C766.833 13.0795 767.237 13.0076 767.642 12.9545C768.172 12.8864 768.602 12.8352 768.932 12.8011C769.265 12.7633 769.508 12.7008 769.659 12.6136C769.814 12.5265 769.892 12.375 769.892 12.1591V12.1136C769.892 11.553 769.739 11.1174 769.432 10.8068C769.129 10.4962 768.669 10.3409 768.051 10.3409C767.411 10.3409 766.909 10.4811 766.545 10.7614C766.182 11.0417 765.926 11.3409 765.778 11.6591L764.506 11.2045C764.733 10.6742 765.036 10.2614 765.415 9.96591C765.797 9.66667 766.214 9.45833 766.665 9.34091C767.119 9.2197 767.566 9.15909 768.006 9.15909C768.286 9.15909 768.608 9.19318 768.972 9.26136C769.339 9.32576 769.693 9.46023 770.034 9.66477C770.379 9.86932 770.665 10.178 770.892 10.5909C771.119 11.0038 771.233 11.5568 771.233 12.25V18H769.892V16.8182H769.824C769.733 17.0076 769.581 17.2102 769.369 17.4261C769.157 17.642 768.875 17.8258 768.523 17.9773C768.17 18.1288 767.741 18.2045 767.233 18.2045ZM767.438 17C767.968 17 768.415 16.8958 768.778 16.6875C769.146 16.4792 769.422 16.2102 769.608 15.8807C769.797 15.5511 769.892 15.2045 769.892 14.8409V13.6136C769.835 13.6818 769.71 13.7443 769.517 13.8011C769.328 13.8542 769.108 13.9015 768.858 13.9432C768.612 13.9811 768.371 14.0152 768.136 14.0455C767.905 14.072 767.718 14.0947 767.574 14.1136C767.225 14.1591 766.9 14.233 766.597 14.3352C766.297 14.4337 766.055 14.5833 765.869 14.7841C765.688 14.9811 765.597 15.25 765.597 15.5909C765.597 16.0568 765.769 16.4091 766.114 16.6477C766.462 16.8826 766.903 17 767.438 17ZM775.021 16.0227L779.226 9.27273H780.771V18H779.43V11.25L775.249 18H773.68V9.27273H775.021V16.0227ZM778.339 6.36364H779.589C779.589 6.97727 779.377 7.47917 778.953 7.86932C778.529 8.25947 777.953 8.45455 777.226 8.45455C776.51 8.45455 775.94 8.25947 775.516 7.86932C775.095 7.47917 774.885 6.97727 774.885 6.36364H776.135C776.135 6.65909 776.216 6.91856 776.379 7.14205C776.546 7.36553 776.828 7.47727 777.226 7.47727C777.624 7.47727 777.908 7.36553 778.078 7.14205C778.252 6.91856 778.339 6.65909 778.339 6.36364ZM789.068 13.0227V14.2727H784.25V13.0227H789.068ZM784.568 9.27273V18H783.227V9.27273H784.568ZM790.091 9.27273V18H788.75V9.27273H790.091Z" fill="white"/>
<path d="M89.2273 21.2727V9.27273H90.5227V10.6591H90.6818C90.7803 10.5076 90.9167 10.3144 91.0909 10.0795C91.2689 9.84091 91.5227 9.62879 91.8523 9.44318C92.1856 9.25379 92.6364 9.15909 93.2045 9.15909C93.9394 9.15909 94.5871 9.3428 95.1477 9.71023C95.7083 10.0777 96.1458 10.5985 96.4602 11.2727C96.7746 11.947 96.9318 12.7424 96.9318 13.6591C96.9318 14.5833 96.7746 15.3845 96.4602 16.0625C96.1458 16.7367 95.7102 17.2595 95.1534 17.6307C94.5966 17.9981 93.9545 18.1818 93.2273 18.1818C92.6667 18.1818 92.2178 18.089 91.8807 17.9034C91.5436 17.714 91.2841 17.5 91.1023 17.2614C90.9205 17.0189 90.7803 16.8182 90.6818 16.6591H90.5682V21.2727H89.2273ZM90.5455 13.6364C90.5455 14.2955 90.642 14.8769 90.8352 15.3807C91.0284 15.8807 91.3106 16.2727 91.6818 16.5568C92.053 16.8371 92.5076 16.9773 93.0455 16.9773C93.6061 16.9773 94.0739 16.8295 94.4489 16.5341C94.8277 16.2348 95.1117 15.8333 95.3011 15.3295C95.4943 14.822 95.5909 14.2576 95.5909 13.6364C95.5909 13.0227 95.4962 12.4697 95.3068 11.9773C95.1212 11.4811 94.839 11.089 94.4602 10.8011C94.0852 10.5095 93.6136 10.3636 93.0455 10.3636C92.5 10.3636 92.0417 10.5019 91.6705 10.7784C91.2992 11.0511 91.0189 11.4337 90.8295 11.9261C90.6402 12.4148 90.5455 12.9848 90.5455 13.6364ZM101.545 18.2045C100.992 18.2045 100.491 18.1004 100.04 17.892C99.589 17.6799 99.2311 17.375 98.9659 16.9773C98.7008 16.5758 98.5682 16.0909 98.5682 15.5227C98.5682 15.0227 98.6667 14.6174 98.8636 14.3068C99.0606 13.9924 99.3239 13.7462 99.6534 13.5682C99.983 13.3902 100.347 13.2576 100.744 13.1705C101.146 13.0795 101.549 13.0076 101.955 12.9545C102.485 12.8864 102.915 12.8352 103.244 12.8011C103.578 12.7633 103.82 12.7008 103.972 12.6136C104.127 12.5265 104.205 12.375 104.205 12.1591V12.1136C104.205 11.553 104.051 11.1174 103.744 10.8068C103.441 10.4962 102.981 10.3409 102.364 10.3409C101.723 10.3409 101.222 10.4811 100.858 10.7614C100.494 11.0417 100.239 11.3409 100.091 11.6591L98.8182 11.2045C99.0455 10.6742 99.3485 10.2614 99.7273 9.96591C100.11 9.66667 100.527 9.45833 100.977 9.34091C101.432 9.2197 101.879 9.15909 102.318 9.15909C102.598 9.15909 102.92 9.19318 103.284 9.26136C103.652 9.32576 104.006 9.46023 104.347 9.66477C104.691 9.86932 104.977 10.178 105.205 10.5909C105.432 11.0038 105.545 11.5568 105.545 12.25V18H104.205V16.8182H104.136C104.045 17.0076 103.894 17.2102 103.682 17.4261C103.47 17.642 103.188 17.8258 102.835 17.9773C102.483 18.1288 102.053 18.2045 101.545 18.2045ZM101.75 17C102.28 17 102.727 16.8958 103.091 16.6875C103.458 16.4792 103.735 16.2102 103.92 15.8807C104.11 15.5511 104.205 15.2045 104.205 14.8409V13.6136C104.148 13.6818 104.023 13.7443 103.83 13.8011C103.64 13.8542 103.42 13.9015 103.17 13.9432C102.924 13.9811 102.684 14.0152 102.449 14.0455C102.218 14.072 102.03 14.0947 101.886 14.1136C101.538 14.1591 101.212 14.233 100.909 14.3352C100.61 14.4337 100.367 14.5833 100.182 14.7841C100 14.9811 99.9091 15.25 99.9091 15.5909C99.9091 16.0568 100.081 16.4091 100.426 16.6477C100.775 16.8826 101.216 17 101.75 17ZM107.447 15.7727H108.879C108.91 16.1667 109.088 16.4659 109.413 16.6705C109.743 16.875 110.171 16.9773 110.697 16.9773C111.235 16.9773 111.696 16.8674 112.078 16.6477C112.461 16.4242 112.652 16.0644 112.652 15.5682C112.652 15.2765 112.58 15.0227 112.436 14.8068C112.292 14.5871 112.089 14.4167 111.828 14.2955C111.567 14.1742 111.258 14.1136 110.902 14.1136H109.402V12.9091H110.902C111.436 12.9091 111.83 12.7879 112.084 12.5455C112.341 12.303 112.47 12 112.47 11.6364C112.47 11.2462 112.332 10.9337 112.055 10.6989C111.779 10.4602 111.387 10.3409 110.879 10.3409C110.368 10.3409 109.942 10.4564 109.601 10.6875C109.26 10.9148 109.08 11.2083 109.061 11.5682H107.652C107.667 11.0985 107.811 10.6837 108.084 10.3239C108.357 9.96023 108.728 9.67614 109.197 9.47159C109.667 9.26326 110.205 9.15909 110.811 9.15909C111.425 9.15909 111.957 9.26705 112.408 9.48295C112.862 9.69508 113.213 9.98485 113.459 10.3523C113.709 10.7159 113.834 11.1288 113.834 11.5909C113.834 12.0833 113.696 12.4811 113.419 12.7841C113.143 13.0871 112.796 13.303 112.379 13.4318V13.5227C112.709 13.5455 112.995 13.6515 113.237 13.8409C113.483 14.0265 113.675 14.2708 113.811 14.5739C113.947 14.8731 114.016 15.2045 114.016 15.5682C114.016 16.0985 113.874 16.5606 113.589 16.9545C113.305 17.3447 112.915 17.6477 112.419 17.8636C111.923 18.0758 111.357 18.1818 110.72 18.1818C110.103 18.1818 109.55 18.0814 109.061 17.8807C108.572 17.6761 108.184 17.3939 107.896 17.0341C107.612 16.6705 107.463 16.25 107.447 15.7727ZM115.899 21.2727V9.27273H117.195V10.6591H117.354C117.452 10.5076 117.589 10.3144 117.763 10.0795C117.941 9.84091 118.195 9.62879 118.524 9.44318C118.857 9.25379 119.308 9.15909 119.876 9.15909C120.611 9.15909 121.259 9.3428 121.82 9.71023C122.38 10.0777 122.818 10.5985 123.132 11.2727C123.446 11.947 123.604 12.7424 123.604 13.6591C123.604 14.5833 123.446 15.3845 123.132 16.0625C122.818 16.7367 122.382 17.2595 121.825 17.6307C121.268 17.9981 120.626 18.1818 119.899 18.1818C119.339 18.1818 118.89 18.089 118.553 17.9034C118.215 17.714 117.956 17.5 117.774 17.2614C117.592 17.0189 117.452 16.8182 117.354 16.6591H117.24V21.2727H115.899ZM117.217 13.6364C117.217 14.2955 117.314 14.8769 117.507 15.3807C117.7 15.8807 117.982 16.2727 118.354 16.5568C118.725 16.8371 119.179 16.9773 119.717 16.9773C120.278 16.9773 120.746 16.8295 121.121 16.5341C121.5 16.2348 121.784 15.8333 121.973 15.3295C122.166 14.822 122.263 14.2576 122.263 13.6364C122.263 13.0227 122.168 12.4697 121.979 11.9773C121.793 11.4811 121.511 11.089 121.132 10.8011C120.757 10.5095 120.286 10.3636 119.717 10.3636C119.172 10.3636 118.714 10.5019 118.342 10.7784C117.971 11.0511 117.691 11.4337 117.501 11.9261C117.312 12.4148 117.217 12.9848 117.217 13.6364ZM128.217 18.2045C127.664 18.2045 127.162 18.1004 126.712 17.892C126.261 17.6799 125.903 17.375 125.638 16.9773C125.373 16.5758 125.24 16.0909 125.24 15.5227C125.24 15.0227 125.339 14.6174 125.536 14.3068C125.732 13.9924 125.996 13.7462 126.325 13.5682C126.655 13.3902 127.018 13.2576 127.416 13.1705C127.818 13.0795 128.221 13.0076 128.626 12.9545C129.157 12.8864 129.587 12.8352 129.916 12.8011C130.25 12.7633 130.492 12.7008 130.643 12.6136C130.799 12.5265 130.876 12.375 130.876 12.1591V12.1136C130.876 11.553 130.723 11.1174 130.416 10.8068C130.113 10.4962 129.653 10.3409 129.036 10.3409C128.395 10.3409 127.893 10.4811 127.53 10.7614C127.166 11.0417 126.911 11.3409 126.763 11.6591L125.49 11.2045C125.717 10.6742 126.02 10.2614 126.399 9.96591C126.782 9.66667 127.198 9.45833 127.649 9.34091C128.104 9.2197 128.551 9.15909 128.99 9.15909C129.27 9.15909 129.592 9.19318 129.956 9.26136C130.323 9.32576 130.678 9.46023 131.018 9.66477C131.363 9.86932 131.649 10.178 131.876 10.5909C132.104 11.0038 132.217 11.5568 132.217 12.25V18H130.876V16.8182H130.808C130.717 17.0076 130.566 17.2102 130.354 17.4261C130.142 17.642 129.859 17.8258 129.507 17.9773C129.155 18.1288 128.725 18.2045 128.217 18.2045ZM128.422 17C128.952 17 129.399 16.8958 129.763 16.6875C130.13 16.4792 130.407 16.2102 130.592 15.8807C130.782 15.5511 130.876 15.2045 130.876 14.8409V13.6136C130.82 13.6818 130.695 13.7443 130.501 13.8011C130.312 13.8542 130.092 13.9015 129.842 13.9432C129.596 13.9811 129.356 14.0152 129.121 14.0455C128.89 14.072 128.702 14.0947 128.558 14.1136C128.21 14.1591 127.884 14.233 127.581 14.3352C127.282 14.4337 127.039 14.5833 126.854 14.7841C126.672 14.9811 126.581 15.25 126.581 15.5909C126.581 16.0568 126.753 16.4091 127.098 16.6477C127.446 16.8826 127.888 17 128.422 17ZM141.142 6L141.824 6.81818C141.559 7.07576 141.252 7.25568 140.903 7.35795C140.555 7.46023 140.161 7.52273 139.722 7.54545C139.282 7.56818 138.794 7.59091 138.256 7.61364C137.65 7.63636 137.148 7.78409 136.75 8.05682C136.352 8.32955 136.045 8.72348 135.83 9.23864C135.614 9.75379 135.475 10.3864 135.415 11.1364H135.528C135.824 10.5909 136.233 10.1894 136.756 9.93182C137.278 9.67424 137.839 9.54545 138.438 9.54545C139.119 9.54545 139.733 9.70455 140.278 10.0227C140.824 10.3409 141.256 10.8125 141.574 11.4375C141.892 12.0625 142.051 12.8333 142.051 13.75C142.051 14.6629 141.888 15.4508 141.562 16.1136C141.241 16.7765 140.788 17.2879 140.205 17.6477C139.625 18.0038 138.945 18.1818 138.165 18.1818C137.384 18.1818 136.701 17.9981 136.114 17.6307C135.527 17.2595 135.07 16.7102 134.744 15.983C134.419 15.2519 134.256 14.3485 134.256 13.2727V12.3409C134.256 10.3977 134.585 8.92424 135.244 7.92045C135.907 6.91667 136.903 6.39773 138.233 6.36364C138.703 6.34848 139.121 6.3447 139.489 6.35227C139.856 6.35985 140.176 6.3428 140.449 6.30114C140.722 6.25947 140.953 6.15909 141.142 6ZM138.165 16.9773C138.691 16.9773 139.144 16.8447 139.523 16.5795C139.905 16.3144 140.199 15.9413 140.403 15.4602C140.608 14.9754 140.71 14.4053 140.71 13.75C140.71 13.1136 140.606 12.572 140.398 12.125C140.193 11.678 139.9 11.3371 139.517 11.1023C139.134 10.8674 138.676 10.75 138.142 10.75C137.752 10.75 137.402 10.8163 137.091 10.9489C136.78 11.0814 136.515 11.2765 136.295 11.5341C136.076 11.7917 135.905 12.1061 135.784 12.4773C135.667 12.8485 135.604 13.2727 135.597 13.75C135.597 14.7273 135.826 15.5095 136.284 16.0966C136.742 16.6837 137.369 16.9773 138.165 16.9773ZM147.648 18.1818C146.86 18.1818 146.169 17.9943 145.574 17.6193C144.983 17.2443 144.521 16.7197 144.188 16.0455C143.858 15.3712 143.693 14.5833 143.693 13.6818C143.693 12.7727 143.858 11.9792 144.188 11.3011C144.521 10.6231 144.983 10.0966 145.574 9.72159C146.169 9.34659 146.86 9.15909 147.648 9.15909C148.436 9.15909 149.125 9.34659 149.716 9.72159C150.311 10.0966 150.773 10.6231 151.102 11.3011C151.436 11.9792 151.602 12.7727 151.602 13.6818C151.602 14.5833 151.436 15.3712 151.102 16.0455C150.773 16.7197 150.311 17.2443 149.716 17.6193C149.125 17.9943 148.436 18.1818 147.648 18.1818ZM147.648 16.9773C148.246 16.9773 148.739 16.8239 149.125 16.517C149.511 16.2102 149.797 15.8068 149.983 15.3068C150.169 14.8068 150.261 14.2652 150.261 13.6818C150.261 13.0985 150.169 12.5549 149.983 12.0511C149.797 11.5473 149.511 11.1402 149.125 10.8295C148.739 10.5189 148.246 10.3636 147.648 10.3636C147.049 10.3636 146.557 10.5189 146.17 10.8295C145.784 11.1402 145.498 11.5473 145.312 12.0511C145.127 12.5549 145.034 13.0985 145.034 13.6818C145.034 14.2652 145.127 14.8068 145.312 15.3068C145.498 15.8068 145.784 16.2102 146.17 16.517C146.557 16.8239 147.049 16.9773 147.648 16.9773ZM152.509 10.5227V9.27273H159.599V10.5227H156.736V18H155.395V10.5227H152.509ZM161.555 18V9.27273H162.896V13.0682H163.783L166.919 9.27273H168.646L165.124 13.4773L168.692 18H166.964L164.101 14.3182H162.896V18H161.555ZM172.717 18.2045C172.164 18.2045 171.662 18.1004 171.212 17.892C170.761 17.6799 170.403 17.375 170.138 16.9773C169.873 16.5758 169.74 16.0909 169.74 15.5227C169.74 15.0227 169.839 14.6174 170.036 14.3068C170.232 13.9924 170.496 13.7462 170.825 13.5682C171.155 13.3902 171.518 13.2576 171.916 13.1705C172.318 13.0795 172.721 13.0076 173.126 12.9545C173.657 12.8864 174.087 12.8352 174.416 12.8011C174.75 12.7633 174.992 12.7008 175.143 12.6136C175.299 12.5265 175.376 12.375 175.376 12.1591V12.1136C175.376 11.553 175.223 11.1174 174.916 10.8068C174.613 10.4962 174.153 10.3409 173.536 10.3409C172.895 10.3409 172.393 10.4811 172.03 10.7614C171.666 11.0417 171.411 11.3409 171.263 11.6591L169.99 11.2045C170.217 10.6742 170.52 10.2614 170.899 9.96591C171.282 9.66667 171.698 9.45833 172.149 9.34091C172.604 9.2197 173.051 9.15909 173.49 9.15909C173.77 9.15909 174.092 9.19318 174.456 9.26136C174.823 9.32576 175.178 9.46023 175.518 9.66477C175.863 9.86932 176.149 10.178 176.376 10.5909C176.604 11.0038 176.717 11.5568 176.717 12.25V18H175.376V16.8182H175.308C175.217 17.0076 175.066 17.2102 174.854 17.4261C174.642 17.642 174.359 17.8258 174.007 17.9773C173.655 18.1288 173.225 18.2045 172.717 18.2045ZM172.922 17C173.452 17 173.899 16.8958 174.263 16.6875C174.63 16.4792 174.907 16.2102 175.092 15.8807C175.282 15.5511 175.376 15.2045 175.376 14.8409V13.6136C175.32 13.6818 175.195 13.7443 175.001 13.8011C174.812 13.8542 174.592 13.9015 174.342 13.9432C174.096 13.9811 173.856 14.0152 173.621 14.0455C173.39 14.072 173.202 14.0947 173.058 14.1136C172.71 14.1591 172.384 14.233 172.081 14.3352C171.782 14.4337 171.539 14.5833 171.354 14.7841C171.172 14.9811 171.081 15.25 171.081 15.5909C171.081 16.0568 171.253 16.4091 171.598 16.6477C171.946 16.8826 172.388 17 172.922 17Z" fill="white"/>
<path d="M49.3409 5.81818L45.5909 19.75H44.3636L48.1136 5.81818H49.3409ZM55.044 5.81818L51.294 19.75H50.0668L53.8168 5.81818H55.044Z" fill="white"/>
<path d="M215.341 5.81818L211.591 19.75H210.364L214.114 5.81818H215.341ZM221.044 5.81818L217.294 19.75H216.067L219.817 5.81818H221.044Z" fill="white"/>
<path d="M401.341 5.81818L397.591 19.75H396.364L400.114 5.81818H401.341ZM407.044 5.81818L403.294 19.75H402.067L405.817 5.81818H407.044Z" fill="white"/>
<path d="M560.341 5.81818L556.591 19.75H555.364L559.114 5.81818H560.341ZM566.044 5.81818L562.294 19.75H561.067L564.817 5.81818H566.044Z" fill="white"/>
<path d="M697.341 5.81818L693.591 19.75H692.364L696.114 5.81818H697.341ZM703.044 5.81818L699.294 19.75H698.067L701.817 5.81818H703.044Z" fill="white"/>
<path d="M829.341 5.81818L825.591 19.75H824.364L828.114 5.81818H829.341ZM835.044 5.81818L831.294 19.75H830.067L833.817 5.81818H835.044Z" fill="white"/>
<path d="M995.341 5.81818L991.591 19.75H990.364L994.114 5.81818H995.341ZM1001.04 5.81818L997.294 19.75H996.067L999.817 5.81818H1001.04Z" fill="white"/>
<path d="M1181.34 5.81818L1177.59 19.75H1176.36L1180.11 5.81818H1181.34ZM1187.04 5.81818L1183.29 19.75H1182.07L1185.82 5.81818H1187.04Z" fill="white"/>
<path d="M1340.34 5.81818L1336.59 19.75H1335.36L1339.11 5.81818H1340.34ZM1346.04 5.81818L1342.29 19.75H1341.07L1344.82 5.81818H1346.04Z" fill="white"/>
<path d="M869.227 21.2727V9.27273H870.523V10.6591H870.682C870.78 10.5076 870.917 10.3144 871.091 10.0795C871.269 9.84091 871.523 9.62879 871.852 9.44318C872.186 9.25379 872.636 9.15909 873.205 9.15909C873.939 9.15909 874.587 9.3428 875.148 9.71023C875.708 10.0777 876.146 10.5985 876.46 11.2727C876.775 11.947 876.932 12.7424 876.932 13.6591C876.932 14.5833 876.775 15.3845 876.46 16.0625C876.146 16.7367 875.71 17.2595 875.153 17.6307C874.597 17.9981 873.955 18.1818 873.227 18.1818C872.667 18.1818 872.218 18.089 871.881 17.9034C871.544 17.714 871.284 17.5 871.102 17.2614C870.92 17.0189 870.78 16.8182 870.682 16.6591H870.568V21.2727H869.227ZM870.545 13.6364C870.545 14.2955 870.642 14.8769 870.835 15.3807C871.028 15.8807 871.311 16.2727 871.682 16.5568C872.053 16.8371 872.508 16.9773 873.045 16.9773C873.606 16.9773 874.074 16.8295 874.449 16.5341C874.828 16.2348 875.112 15.8333 875.301 15.3295C875.494 14.822 875.591 14.2576 875.591 13.6364C875.591 13.0227 875.496 12.4697 875.307 11.9773C875.121 11.4811 874.839 11.089 874.46 10.8011C874.085 10.5095 873.614 10.3636 873.045 10.3636C872.5 10.3636 872.042 10.5019 871.67 10.7784C871.299 11.0511 871.019 11.4337 870.83 11.9261C870.64 12.4148 870.545 12.9848 870.545 13.6364ZM881.545 18.2045C880.992 18.2045 880.491 18.1004 880.04 17.892C879.589 17.6799 879.231 17.375 878.966 16.9773C878.701 16.5758 878.568 16.0909 878.568 15.5227C878.568 15.0227 878.667 14.6174 878.864 14.3068C879.061 13.9924 879.324 13.7462 879.653 13.5682C879.983 13.3902 880.347 13.2576 880.744 13.1705C881.146 13.0795 881.549 13.0076 881.955 12.9545C882.485 12.8864 882.915 12.8352 883.244 12.8011C883.578 12.7633 883.82 12.7008 883.972 12.6136C884.127 12.5265 884.205 12.375 884.205 12.1591V12.1136C884.205 11.553 884.051 11.1174 883.744 10.8068C883.441 10.4962 882.981 10.3409 882.364 10.3409C881.723 10.3409 881.222 10.4811 880.858 10.7614C880.494 11.0417 880.239 11.3409 880.091 11.6591L878.818 11.2045C879.045 10.6742 879.348 10.2614 879.727 9.96591C880.11 9.66667 880.527 9.45833 880.977 9.34091C881.432 9.2197 881.879 9.15909 882.318 9.15909C882.598 9.15909 882.92 9.19318 883.284 9.26136C883.652 9.32576 884.006 9.46023 884.347 9.66477C884.691 9.86932 884.977 10.178 885.205 10.5909C885.432 11.0038 885.545 11.5568 885.545 12.25V18H884.205V16.8182H884.136C884.045 17.0076 883.894 17.2102 883.682 17.4261C883.47 17.642 883.188 17.8258 882.835 17.9773C882.483 18.1288 882.053 18.2045 881.545 18.2045ZM881.75 17C882.28 17 882.727 16.8958 883.091 16.6875C883.458 16.4792 883.735 16.2102 883.92 15.8807C884.11 15.5511 884.205 15.2045 884.205 14.8409V13.6136C884.148 13.6818 884.023 13.7443 883.83 13.8011C883.64 13.8542 883.42 13.9015 883.17 13.9432C882.924 13.9811 882.684 14.0152 882.449 14.0455C882.218 14.072 882.03 14.0947 881.886 14.1136C881.538 14.1591 881.212 14.233 880.909 14.3352C880.61 14.4337 880.367 14.5833 880.182 14.7841C880 14.9811 879.909 15.25 879.909 15.5909C879.909 16.0568 880.081 16.4091 880.426 16.6477C880.775 16.8826 881.216 17 881.75 17ZM887.447 15.7727H888.879C888.91 16.1667 889.088 16.4659 889.413 16.6705C889.743 16.875 890.171 16.9773 890.697 16.9773C891.235 16.9773 891.696 16.8674 892.078 16.6477C892.461 16.4242 892.652 16.0644 892.652 15.5682C892.652 15.2765 892.58 15.0227 892.436 14.8068C892.292 14.5871 892.089 14.4167 891.828 14.2955C891.567 14.1742 891.258 14.1136 890.902 14.1136H889.402V12.9091H890.902C891.436 12.9091 891.83 12.7879 892.084 12.5455C892.341 12.303 892.47 12 892.47 11.6364C892.47 11.2462 892.332 10.9337 892.055 10.6989C891.779 10.4602 891.387 10.3409 890.879 10.3409C890.368 10.3409 889.942 10.4564 889.601 10.6875C889.26 10.9148 889.08 11.2083 889.061 11.5682H887.652C887.667 11.0985 887.811 10.6837 888.084 10.3239C888.357 9.96023 888.728 9.67614 889.197 9.47159C889.667 9.26326 890.205 9.15909 890.811 9.15909C891.425 9.15909 891.957 9.26705 892.408 9.48295C892.862 9.69508 893.213 9.98485 893.459 10.3523C893.709 10.7159 893.834 11.1288 893.834 11.5909C893.834 12.0833 893.696 12.4811 893.419 12.7841C893.143 13.0871 892.796 13.303 892.379 13.4318V13.5227C892.709 13.5455 892.995 13.6515 893.237 13.8409C893.483 14.0265 893.675 14.2708 893.811 14.5739C893.947 14.8731 894.016 15.2045 894.016 15.5682C894.016 16.0985 893.874 16.5606 893.589 16.9545C893.305 17.3447 892.915 17.6477 892.419 17.8636C891.923 18.0758 891.357 18.1818 890.72 18.1818C890.103 18.1818 889.55 18.0814 889.061 17.8807C888.572 17.6761 888.184 17.3939 887.896 17.0341C887.612 16.6705 887.463 16.25 887.447 15.7727ZM895.899 21.2727V9.27273H897.195V10.6591H897.354C897.452 10.5076 897.589 10.3144 897.763 10.0795C897.941 9.84091 898.195 9.62879 898.524 9.44318C898.857 9.25379 899.308 9.15909 899.876 9.15909C900.611 9.15909 901.259 9.3428 901.82 9.71023C902.38 10.0777 902.818 10.5985 903.132 11.2727C903.446 11.947 903.604 12.7424 903.604 13.6591C903.604 14.5833 903.446 15.3845 903.132 16.0625C902.818 16.7367 902.382 17.2595 901.825 17.6307C901.268 17.9981 900.626 18.1818 899.899 18.1818C899.339 18.1818 898.89 18.089 898.553 17.9034C898.215 17.714 897.956 17.5 897.774 17.2614C897.592 17.0189 897.452 16.8182 897.354 16.6591H897.24V21.2727H895.899ZM897.217 13.6364C897.217 14.2955 897.314 14.8769 897.507 15.3807C897.7 15.8807 897.982 16.2727 898.354 16.5568C898.725 16.8371 899.179 16.9773 899.717 16.9773C900.278 16.9773 900.746 16.8295 901.121 16.5341C901.5 16.2348 901.784 15.8333 901.973 15.3295C902.166 14.822 902.263 14.2576 902.263 13.6364C902.263 13.0227 902.168 12.4697 901.979 11.9773C901.793 11.4811 901.511 11.089 901.132 10.8011C900.757 10.5095 900.286 10.3636 899.717 10.3636C899.172 10.3636 898.714 10.5019 898.342 10.7784C897.971 11.0511 897.691 11.4337 897.501 11.9261C897.312 12.4148 897.217 12.9848 897.217 13.6364ZM908.217 18.2045C907.664 18.2045 907.162 18.1004 906.712 17.892C906.261 17.6799 905.903 17.375 905.638 16.9773C905.373 16.5758 905.24 16.0909 905.24 15.5227C905.24 15.0227 905.339 14.6174 905.536 14.3068C905.732 13.9924 905.996 13.7462 906.325 13.5682C906.655 13.3902 907.018 13.2576 907.416 13.1705C907.818 13.0795 908.221 13.0076 908.626 12.9545C909.157 12.8864 909.587 12.8352 909.916 12.8011C910.25 12.7633 910.492 12.7008 910.643 12.6136C910.799 12.5265 910.876 12.375 910.876 12.1591V12.1136C910.876 11.553 910.723 11.1174 910.416 10.8068C910.113 10.4962 909.653 10.3409 909.036 10.3409C908.395 10.3409 907.893 10.4811 907.53 10.7614C907.166 11.0417 906.911 11.3409 906.763 11.6591L905.49 11.2045C905.717 10.6742 906.02 10.2614 906.399 9.96591C906.782 9.66667 907.198 9.45833 907.649 9.34091C908.104 9.2197 908.551 9.15909 908.99 9.15909C909.27 9.15909 909.592 9.19318 909.956 9.26136C910.323 9.32576 910.678 9.46023 911.018 9.66477C911.363 9.86932 911.649 10.178 911.876 10.5909C912.104 11.0038 912.217 11.5568 912.217 12.25V18H910.876V16.8182H910.808C910.717 17.0076 910.566 17.2102 910.354 17.4261C910.142 17.642 909.859 17.8258 909.507 17.9773C909.155 18.1288 908.725 18.2045 908.217 18.2045ZM908.422 17C908.952 17 909.399 16.8958 909.763 16.6875C910.13 16.4792 910.407 16.2102 910.592 15.8807C910.782 15.5511 910.876 15.2045 910.876 14.8409V13.6136C910.82 13.6818 910.695 13.7443 910.501 13.8011C910.312 13.8542 910.092 13.9015 909.842 13.9432C909.596 13.9811 909.356 14.0152 909.121 14.0455C908.89 14.072 908.702 14.0947 908.558 14.1136C908.21 14.1591 907.884 14.233 907.581 14.3352C907.282 14.4337 907.039 14.5833 906.854 14.7841C906.672 14.9811 906.581 15.25 906.581 15.5909C906.581 16.0568 906.753 16.4091 907.098 16.6477C907.446 16.8826 907.888 17 908.422 17ZM921.142 6L921.824 6.81818C921.559 7.07576 921.252 7.25568 920.903 7.35795C920.555 7.46023 920.161 7.52273 919.722 7.54545C919.282 7.56818 918.794 7.59091 918.256 7.61364C917.65 7.63636 917.148 7.78409 916.75 8.05682C916.352 8.32955 916.045 8.72348 915.83 9.23864C915.614 9.75379 915.475 10.3864 915.415 11.1364H915.528C915.824 10.5909 916.233 10.1894 916.756 9.93182C917.278 9.67424 917.839 9.54545 918.438 9.54545C919.119 9.54545 919.733 9.70455 920.278 10.0227C920.824 10.3409 921.256 10.8125 921.574 11.4375C921.892 12.0625 922.051 12.8333 922.051 13.75C922.051 14.6629 921.888 15.4508 921.562 16.1136C921.241 16.7765 920.788 17.2879 920.205 17.6477C919.625 18.0038 918.945 18.1818 918.165 18.1818C917.384 18.1818 916.701 17.9981 916.114 17.6307C915.527 17.2595 915.07 16.7102 914.744 15.983C914.419 15.2519 914.256 14.3485 914.256 13.2727V12.3409C914.256 10.3977 914.585 8.92424 915.244 7.92045C915.907 6.91667 916.903 6.39773 918.233 6.36364C918.703 6.34848 919.121 6.3447 919.489 6.35227C919.856 6.35985 920.176 6.3428 920.449 6.30114C920.722 6.25947 920.953 6.15909 921.142 6ZM918.165 16.9773C918.691 16.9773 919.144 16.8447 919.523 16.5795C919.905 16.3144 920.199 15.9413 920.403 15.4602C920.608 14.9754 920.71 14.4053 920.71 13.75C920.71 13.1136 920.606 12.572 920.398 12.125C920.193 11.678 919.9 11.3371 919.517 11.1023C919.134 10.8674 918.676 10.75 918.142 10.75C917.752 10.75 917.402 10.8163 917.091 10.9489C916.78 11.0814 916.515 11.2765 916.295 11.5341C916.076 11.7917 915.905 12.1061 915.784 12.4773C915.667 12.8485 915.604 13.2727 915.597 13.75C915.597 14.7273 915.826 15.5095 916.284 16.0966C916.742 16.6837 917.369 16.9773 918.165 16.9773ZM927.648 18.1818C926.86 18.1818 926.169 17.9943 925.574 17.6193C924.983 17.2443 924.521 16.7197 924.188 16.0455C923.858 15.3712 923.693 14.5833 923.693 13.6818C923.693 12.7727 923.858 11.9792 924.188 11.3011C924.521 10.6231 924.983 10.0966 925.574 9.72159C926.169 9.34659 926.86 9.15909 927.648 9.15909C928.436 9.15909 929.125 9.34659 929.716 9.72159C930.311 10.0966 930.773 10.6231 931.102 11.3011C931.436 11.9792 931.602 12.7727 931.602 13.6818C931.602 14.5833 931.436 15.3712 931.102 16.0455C930.773 16.7197 930.311 17.2443 929.716 17.6193C929.125 17.9943 928.436 18.1818 927.648 18.1818ZM927.648 16.9773C928.246 16.9773 928.739 16.8239 929.125 16.517C929.511 16.2102 929.797 15.8068 929.983 15.3068C930.169 14.8068 930.261 14.2652 930.261 13.6818C930.261 13.0985 930.169 12.5549 929.983 12.0511C929.797 11.5473 929.511 11.1402 929.125 10.8295C928.739 10.5189 928.246 10.3636 927.648 10.3636C927.049 10.3636 926.557 10.5189 926.17 10.8295C925.784 11.1402 925.498 11.5473 925.312 12.0511C925.127 12.5549 925.034 13.0985 925.034 13.6818C925.034 14.2652 925.127 14.8068 925.312 15.3068C925.498 15.8068 925.784 16.2102 926.17 16.517C926.557 16.8239 927.049 16.9773 927.648 16.9773ZM932.509 10.5227V9.27273H939.599V10.5227H936.736V18H935.395V10.5227H932.509ZM941.555 18V9.27273H942.896V13.0682H943.783L946.919 9.27273H948.646L945.124 13.4773L948.692 18H946.964L944.101 14.3182H942.896V18H941.555ZM952.717 18.2045C952.164 18.2045 951.662 18.1004 951.212 17.892C950.761 17.6799 950.403 17.375 950.138 16.9773C949.873 16.5758 949.74 16.0909 949.74 15.5227C949.74 15.0227 949.839 14.6174 950.036 14.3068C950.232 13.9924 950.496 13.7462 950.825 13.5682C951.155 13.3902 951.518 13.2576 951.916 13.1705C952.318 13.0795 952.721 13.0076 953.126 12.9545C953.657 12.8864 954.087 12.8352 954.416 12.8011C954.75 12.7633 954.992 12.7008 955.143 12.6136C955.299 12.5265 955.376 12.375 955.376 12.1591V12.1136C955.376 11.553 955.223 11.1174 954.916 10.8068C954.613 10.4962 954.153 10.3409 953.536 10.3409C952.895 10.3409 952.393 10.4811 952.03 10.7614C951.666 11.0417 951.411 11.3409 951.263 11.6591L949.99 11.2045C950.217 10.6742 950.52 10.2614 950.899 9.96591C951.282 9.66667 951.698 9.45833 952.149 9.34091C952.604 9.2197 953.051 9.15909 953.49 9.15909C953.77 9.15909 954.092 9.19318 954.456 9.26136C954.823 9.32576 955.178 9.46023 955.518 9.66477C955.863 9.86932 956.149 10.178 956.376 10.5909C956.604 11.0038 956.717 11.5568 956.717 12.25V18H955.376V16.8182H955.308C955.217 17.0076 955.066 17.2102 954.854 17.4261C954.642 17.642 954.359 17.8258 954.007 17.9773C953.655 18.1288 953.225 18.2045 952.717 18.2045ZM952.922 17C953.452 17 953.899 16.8958 954.263 16.6875C954.63 16.4792 954.907 16.2102 955.092 15.8807C955.282 15.5511 955.376 15.2045 955.376 14.8409V13.6136C955.32 13.6818 955.195 13.7443 955.001 13.8011C954.812 13.8542 954.592 13.9015 954.342 13.9432C954.096 13.9811 953.856 14.0152 953.621 14.0455C953.39 14.072 953.202 14.0947 953.058 14.1136C952.71 14.1591 952.384 14.233 952.081 14.3352C951.782 14.4337 951.539 14.5833 951.354 14.7841C951.172 14.9811 951.081 15.25 951.081 15.5909C951.081 16.0568 951.253 16.4091 951.598 16.6477C951.946 16.8826 952.388 17 952.922 17Z" fill="white"/>
<path d="M254.727 10.5227V9.27273H261.818V10.5227H258.955V18H257.614V10.5227H254.727ZM266.98 18.1818C266.139 18.1818 265.414 17.9962 264.804 17.625C264.198 17.25 263.73 16.7273 263.401 16.0568C263.075 15.3826 262.912 14.5985 262.912 13.7045C262.912 12.8106 263.075 12.0227 263.401 11.3409C263.73 10.6553 264.188 10.1212 264.776 9.73864C265.366 9.35227 266.056 9.15909 266.844 9.15909C267.298 9.15909 267.747 9.23485 268.19 9.38636C268.634 9.53788 269.037 9.78409 269.401 10.125C269.764 10.4621 270.054 10.9091 270.27 11.4659C270.486 12.0227 270.594 12.7083 270.594 13.5227V14.0909H263.866V12.9318H269.23C269.23 12.4394 269.132 12 268.935 11.6136C268.741 11.2273 268.465 10.9223 268.105 10.6989C267.749 10.4754 267.329 10.3636 266.844 10.3636C266.31 10.3636 265.848 10.4962 265.457 10.7614C265.071 11.0227 264.774 11.3636 264.565 11.7841C264.357 12.2045 264.253 12.6553 264.253 13.1364V13.9091C264.253 14.5682 264.366 15.1269 264.594 15.5852C264.825 16.0398 265.145 16.3864 265.554 16.625C265.963 16.8598 266.438 16.9773 266.98 16.9773C267.332 16.9773 267.651 16.928 267.935 16.8295C268.223 16.7273 268.471 16.5758 268.679 16.375C268.887 16.1705 269.048 15.9167 269.162 15.6136L270.457 15.9773C270.321 16.4167 270.092 16.803 269.77 17.1364C269.448 17.4659 269.05 17.7235 268.577 17.9091C268.103 18.0909 267.571 18.1818 266.98 18.1818ZM276.179 18.1818C275.361 18.1818 274.656 17.9886 274.065 17.6023C273.474 17.2159 273.02 16.6837 272.702 16.0057C272.384 15.3277 272.224 14.553 272.224 13.6818C272.224 12.7955 272.387 12.0133 272.713 11.3352C273.043 10.6534 273.501 10.1212 274.088 9.73864C274.679 9.35227 275.368 9.15909 276.156 9.15909C276.77 9.15909 277.323 9.27273 277.815 9.5C278.308 9.72727 278.711 10.0455 279.026 10.4545C279.34 10.8636 279.535 11.3409 279.611 11.8864H278.27C278.168 11.4886 277.94 11.1364 277.588 10.8295C277.24 10.5189 276.77 10.3636 276.179 10.3636C275.656 10.3636 275.198 10.5 274.804 10.7727C274.414 11.0417 274.109 11.4223 273.889 11.9148C273.673 12.4034 273.565 12.9773 273.565 13.6364C273.565 14.3106 273.671 14.8977 273.884 15.3977C274.099 15.8977 274.402 16.286 274.793 16.5625C275.187 16.839 275.649 16.9773 276.179 16.9773C276.527 16.9773 276.844 16.9167 277.128 16.7955C277.412 16.6742 277.652 16.5 277.849 16.2727C278.046 16.0455 278.187 15.7727 278.27 15.4545H279.611C279.535 15.9697 279.348 16.4337 279.048 16.8466C278.753 17.2557 278.361 17.5814 277.872 17.8239C277.387 18.0625 276.823 18.1818 276.179 18.1818ZM280.884 10.5227V9.27273H287.974V10.5227H285.111V18H283.77V10.5227H280.884ZM291.271 16.0227L295.476 9.27273H297.021V18H295.68V11.25L291.499 18H289.93V9.27273H291.271V16.0227ZM299.477 21.2727V9.27273H300.773V10.6591H300.932C301.03 10.5076 301.167 10.3144 301.341 10.0795C301.519 9.84091 301.773 9.62879 302.102 9.44318C302.436 9.25379 302.886 9.15909 303.455 9.15909C304.189 9.15909 304.837 9.3428 305.398 9.71023C305.958 10.0777 306.396 10.5985 306.71 11.2727C307.025 11.947 307.182 12.7424 307.182 13.6591C307.182 14.5833 307.025 15.3845 306.71 16.0625C306.396 16.7367 305.96 17.2595 305.403 17.6307C304.847 17.9981 304.205 18.1818 303.477 18.1818C302.917 18.1818 302.468 18.089 302.131 17.9034C301.794 17.714 301.534 17.5 301.352 17.2614C301.17 17.0189 301.03 16.8182 300.932 16.6591H300.818V21.2727H299.477ZM300.795 13.6364C300.795 14.2955 300.892 14.8769 301.085 15.3807C301.278 15.8807 301.561 16.2727 301.932 16.5568C302.303 16.8371 302.758 16.9773 303.295 16.9773C303.856 16.9773 304.324 16.8295 304.699 16.5341C305.078 16.2348 305.362 15.8333 305.551 15.3295C305.744 14.822 305.841 14.2576 305.841 13.6364C305.841 13.0227 305.746 12.4697 305.557 11.9773C305.371 11.4811 305.089 11.089 304.71 10.8011C304.335 10.5095 303.864 10.3636 303.295 10.3636C302.75 10.3636 302.292 10.5019 301.92 10.7784C301.549 11.0511 301.269 11.4337 301.08 11.9261C300.89 12.4148 300.795 12.9848 300.795 13.6364ZM312.773 18.1818C311.985 18.1818 311.294 17.9943 310.699 17.6193C310.108 17.2443 309.646 16.7197 309.312 16.0455C308.983 15.3712 308.818 14.5833 308.818 13.6818C308.818 12.7727 308.983 11.9792 309.312 11.3011C309.646 10.6231 310.108 10.0966 310.699 9.72159C311.294 9.34659 311.985 9.15909 312.773 9.15909C313.561 9.15909 314.25 9.34659 314.841 9.72159C315.436 10.0966 315.898 10.6231 316.227 11.3011C316.561 11.9792 316.727 12.7727 316.727 13.6818C316.727 14.5833 316.561 15.3712 316.227 16.0455C315.898 16.7197 315.436 17.2443 314.841 17.6193C314.25 17.9943 313.561 18.1818 312.773 18.1818ZM312.773 16.9773C313.371 16.9773 313.864 16.8239 314.25 16.517C314.636 16.2102 314.922 15.8068 315.108 15.3068C315.294 14.8068 315.386 14.2652 315.386 13.6818C315.386 13.0985 315.294 12.5549 315.108 12.0511C314.922 11.5473 314.636 11.1402 314.25 10.8295C313.864 10.5189 313.371 10.3636 312.773 10.3636C312.174 10.3636 311.682 10.5189 311.295 10.8295C310.909 11.1402 310.623 11.5473 310.438 12.0511C310.252 12.5549 310.159 13.0985 310.159 13.6818C310.159 14.2652 310.252 14.8068 310.438 15.3068C310.623 15.8068 310.909 16.2102 311.295 16.517C311.682 16.8239 312.174 16.9773 312.773 16.9773ZM318.774 18V9.27273H322.342C323.282 9.27273 324.028 9.48485 324.581 9.90909C325.134 10.3333 325.411 10.8939 325.411 11.5909C325.411 12.1212 325.253 12.5322 324.939 12.8239C324.625 13.1117 324.221 13.3068 323.729 13.4091C324.051 13.4545 324.363 13.5682 324.666 13.75C324.973 13.9318 325.227 14.1818 325.428 14.5C325.628 14.8144 325.729 15.2008 325.729 15.6591C325.729 16.1061 325.615 16.5057 325.388 16.858C325.161 17.2102 324.835 17.4886 324.411 17.6932C323.986 17.8977 323.479 18 322.888 18H318.774ZM320.047 16.7727H322.888C323.35 16.7727 323.712 16.6629 323.973 16.4432C324.234 16.2235 324.365 15.9242 324.365 15.5455C324.365 15.0947 324.234 14.7405 323.973 14.483C323.712 14.2216 323.35 14.0909 322.888 14.0909H320.047V16.7727ZM320.047 12.9318H322.342C322.702 12.9318 323.011 12.8826 323.268 12.7841C323.526 12.6818 323.723 12.5379 323.859 12.3523C324 12.1629 324.07 11.9394 324.07 11.6818C324.07 11.3144 323.916 11.0265 323.609 10.8182C323.303 10.6061 322.88 10.5 322.342 10.5H320.047V12.9318ZM330.327 18.2045C329.774 18.2045 329.272 18.1004 328.821 17.892C328.37 17.6799 328.012 17.375 327.747 16.9773C327.482 16.5758 327.349 16.0909 327.349 15.5227C327.349 15.0227 327.448 14.6174 327.645 14.3068C327.842 13.9924 328.105 13.7462 328.435 13.5682C328.764 13.3902 329.128 13.2576 329.526 13.1705C329.927 13.0795 330.33 13.0076 330.736 12.9545C331.266 12.8864 331.696 12.8352 332.026 12.8011C332.359 12.7633 332.601 12.7008 332.753 12.6136C332.908 12.5265 332.986 12.375 332.986 12.1591V12.1136C332.986 11.553 332.832 11.1174 332.526 10.8068C332.223 10.4962 331.762 10.3409 331.145 10.3409C330.505 10.3409 330.003 10.4811 329.639 10.7614C329.276 11.0417 329.02 11.3409 328.872 11.6591L327.599 11.2045C327.827 10.6742 328.13 10.2614 328.509 9.96591C328.891 9.66667 329.308 9.45833 329.759 9.34091C330.213 9.2197 330.66 9.15909 331.099 9.15909C331.38 9.15909 331.702 9.19318 332.065 9.26136C332.433 9.32576 332.787 9.46023 333.128 9.66477C333.473 9.86932 333.759 10.178 333.986 10.5909C334.213 11.0038 334.327 11.5568 334.327 12.25V18H332.986V16.8182H332.918C332.827 17.0076 332.675 17.2102 332.463 17.4261C332.251 17.642 331.969 17.8258 331.616 17.9773C331.264 18.1288 330.834 18.2045 330.327 18.2045ZM330.531 17C331.062 17 331.509 16.8958 331.872 16.6875C332.24 16.4792 332.516 16.2102 332.702 15.8807C332.891 15.5511 332.986 15.2045 332.986 14.8409V13.6136C332.929 13.6818 332.804 13.7443 332.611 13.8011C332.421 13.8542 332.202 13.9015 331.952 13.9432C331.705 13.9811 331.465 14.0152 331.23 14.0455C330.999 14.072 330.812 14.0947 330.668 14.1136C330.319 14.1591 329.993 14.233 329.69 14.3352C329.391 14.4337 329.149 14.5833 328.963 14.7841C328.781 14.9811 328.69 15.25 328.69 15.5909C328.69 16.0568 328.863 16.4091 329.207 16.6477C329.556 16.8826 329.997 17 330.531 17ZM342.615 13.0227V14.2727H337.797V13.0227H342.615ZM338.115 9.27273V18H336.774V9.27273H338.115ZM343.638 9.27273V18H342.297V9.27273H343.638ZM347.428 16.0227L351.632 9.27273H353.178V18H351.837V11.25L347.655 18H346.087V9.27273H347.428V16.0227ZM359.293 18.1818C358.452 18.1818 357.726 17.9962 357.116 17.625C356.51 17.25 356.043 16.7273 355.713 16.0568C355.387 15.3826 355.224 14.5985 355.224 13.7045C355.224 12.8106 355.387 12.0227 355.713 11.3409C356.043 10.6553 356.501 10.1212 357.088 9.73864C357.679 9.35227 358.368 9.15909 359.156 9.15909C359.611 9.15909 360.06 9.23485 360.503 9.38636C360.946 9.53788 361.349 9.78409 361.713 10.125C362.077 10.4621 362.366 10.9091 362.582 11.4659C362.798 12.0227 362.906 12.7083 362.906 13.5227V14.0909H356.179V12.9318H361.543C361.543 12.4394 361.444 12 361.247 11.6136C361.054 11.2273 360.777 10.9223 360.418 10.6989C360.062 10.4754 359.641 10.3636 359.156 10.3636C358.622 10.3636 358.16 10.4962 357.77 10.7614C357.384 11.0227 357.086 11.3636 356.878 11.7841C356.67 12.2045 356.565 12.6553 356.565 13.1364V13.9091C356.565 14.5682 356.679 15.1269 356.906 15.5852C357.137 16.0398 357.457 16.3864 357.866 16.625C358.276 16.8598 358.751 16.9773 359.293 16.9773C359.645 16.9773 359.963 16.928 360.247 16.8295C360.535 16.7273 360.783 16.5758 360.991 16.375C361.2 16.1705 361.361 15.9167 361.474 15.6136L362.77 15.9773C362.634 16.4167 362.404 16.803 362.082 17.1364C361.76 17.4659 361.363 17.7235 360.889 17.9091C360.416 18.0909 359.884 18.1818 359.293 18.1818Z" fill="white"/>
<path d="M1034.73 10.5227V9.27273H1041.82V10.5227H1038.95V18H1037.61V10.5227H1034.73ZM1046.98 18.1818C1046.14 18.1818 1045.41 17.9962 1044.8 17.625C1044.2 17.25 1043.73 16.7273 1043.4 16.0568C1043.07 15.3826 1042.91 14.5985 1042.91 13.7045C1042.91 12.8106 1043.07 12.0227 1043.4 11.3409C1043.73 10.6553 1044.19 10.1212 1044.78 9.73864C1045.37 9.35227 1046.06 9.15909 1046.84 9.15909C1047.3 9.15909 1047.75 9.23485 1048.19 9.38636C1048.63 9.53788 1049.04 9.78409 1049.4 10.125C1049.76 10.4621 1050.05 10.9091 1050.27 11.4659C1050.49 12.0227 1050.59 12.7083 1050.59 13.5227V14.0909H1043.87V12.9318H1049.23C1049.23 12.4394 1049.13 12 1048.93 11.6136C1048.74 11.2273 1048.46 10.9223 1048.11 10.6989C1047.75 10.4754 1047.33 10.3636 1046.84 10.3636C1046.31 10.3636 1045.85 10.4962 1045.46 10.7614C1045.07 11.0227 1044.77 11.3636 1044.57 11.7841C1044.36 12.2045 1044.25 12.6553 1044.25 13.1364V13.9091C1044.25 14.5682 1044.37 15.1269 1044.59 15.5852C1044.82 16.0398 1045.14 16.3864 1045.55 16.625C1045.96 16.8598 1046.44 16.9773 1046.98 16.9773C1047.33 16.9773 1047.65 16.928 1047.93 16.8295C1048.22 16.7273 1048.47 16.5758 1048.68 16.375C1048.89 16.1705 1049.05 15.9167 1049.16 15.6136L1050.46 15.9773C1050.32 16.4167 1050.09 16.803 1049.77 17.1364C1049.45 17.4659 1049.05 17.7235 1048.58 17.9091C1048.1 18.0909 1047.57 18.1818 1046.98 18.1818ZM1056.18 18.1818C1055.36 18.1818 1054.66 17.9886 1054.07 17.6023C1053.47 17.2159 1053.02 16.6837 1052.7 16.0057C1052.38 15.3277 1052.22 14.553 1052.22 13.6818C1052.22 12.7955 1052.39 12.0133 1052.71 11.3352C1053.04 10.6534 1053.5 10.1212 1054.09 9.73864C1054.68 9.35227 1055.37 9.15909 1056.16 9.15909C1056.77 9.15909 1057.32 9.27273 1057.82 9.5C1058.31 9.72727 1058.71 10.0455 1059.03 10.4545C1059.34 10.8636 1059.54 11.3409 1059.61 11.8864H1058.27C1058.17 11.4886 1057.94 11.1364 1057.59 10.8295C1057.24 10.5189 1056.77 10.3636 1056.18 10.3636C1055.66 10.3636 1055.2 10.5 1054.8 10.7727C1054.41 11.0417 1054.11 11.4223 1053.89 11.9148C1053.67 12.4034 1053.57 12.9773 1053.57 13.6364C1053.57 14.3106 1053.67 14.8977 1053.88 15.3977C1054.1 15.8977 1054.4 16.286 1054.79 16.5625C1055.19 16.839 1055.65 16.9773 1056.18 16.9773C1056.53 16.9773 1056.84 16.9167 1057.13 16.7955C1057.41 16.6742 1057.65 16.5 1057.85 16.2727C1058.05 16.0455 1058.19 15.7727 1058.27 15.4545H1059.61C1059.54 15.9697 1059.35 16.4337 1059.05 16.8466C1058.75 17.2557 1058.36 17.5814 1057.87 17.8239C1057.39 18.0625 1056.82 18.1818 1056.18 18.1818ZM1060.88 10.5227V9.27273H1067.97V10.5227H1065.11V18H1063.77V10.5227H1060.88ZM1071.27 16.0227L1075.48 9.27273H1077.02V18H1075.68V11.25L1071.5 18H1069.93V9.27273H1071.27V16.0227ZM1079.48 21.2727V9.27273H1080.77V10.6591H1080.93C1081.03 10.5076 1081.17 10.3144 1081.34 10.0795C1081.52 9.84091 1081.77 9.62879 1082.1 9.44318C1082.44 9.25379 1082.89 9.15909 1083.45 9.15909C1084.19 9.15909 1084.84 9.3428 1085.4 9.71023C1085.96 10.0777 1086.4 10.5985 1086.71 11.2727C1087.02 11.947 1087.18 12.7424 1087.18 13.6591C1087.18 14.5833 1087.02 15.3845 1086.71 16.0625C1086.4 16.7367 1085.96 17.2595 1085.4 17.6307C1084.85 17.9981 1084.2 18.1818 1083.48 18.1818C1082.92 18.1818 1082.47 18.089 1082.13 17.9034C1081.79 17.714 1081.53 17.5 1081.35 17.2614C1081.17 17.0189 1081.03 16.8182 1080.93 16.6591H1080.82V21.2727H1079.48ZM1080.8 13.6364C1080.8 14.2955 1080.89 14.8769 1081.09 15.3807C1081.28 15.8807 1081.56 16.2727 1081.93 16.5568C1082.3 16.8371 1082.76 16.9773 1083.3 16.9773C1083.86 16.9773 1084.32 16.8295 1084.7 16.5341C1085.08 16.2348 1085.36 15.8333 1085.55 15.3295C1085.74 14.822 1085.84 14.2576 1085.84 13.6364C1085.84 13.0227 1085.75 12.4697 1085.56 11.9773C1085.37 11.4811 1085.09 11.089 1084.71 10.8011C1084.34 10.5095 1083.86 10.3636 1083.3 10.3636C1082.75 10.3636 1082.29 10.5019 1081.92 10.7784C1081.55 11.0511 1081.27 11.4337 1081.08 11.9261C1080.89 12.4148 1080.8 12.9848 1080.8 13.6364ZM1092.77 18.1818C1091.98 18.1818 1091.29 17.9943 1090.7 17.6193C1090.11 17.2443 1089.65 16.7197 1089.31 16.0455C1088.98 15.3712 1088.82 14.5833 1088.82 13.6818C1088.82 12.7727 1088.98 11.9792 1089.31 11.3011C1089.65 10.6231 1090.11 10.0966 1090.7 9.72159C1091.29 9.34659 1091.98 9.15909 1092.77 9.15909C1093.56 9.15909 1094.25 9.34659 1094.84 9.72159C1095.44 10.0966 1095.9 10.6231 1096.23 11.3011C1096.56 11.9792 1096.73 12.7727 1096.73 13.6818C1096.73 14.5833 1096.56 15.3712 1096.23 16.0455C1095.9 16.7197 1095.44 17.2443 1094.84 17.6193C1094.25 17.9943 1093.56 18.1818 1092.77 18.1818ZM1092.77 16.9773C1093.37 16.9773 1093.86 16.8239 1094.25 16.517C1094.64 16.2102 1094.92 15.8068 1095.11 15.3068C1095.29 14.8068 1095.39 14.2652 1095.39 13.6818C1095.39 13.0985 1095.29 12.5549 1095.11 12.0511C1094.92 11.5473 1094.64 11.1402 1094.25 10.8295C1093.86 10.5189 1093.37 10.3636 1092.77 10.3636C1092.17 10.3636 1091.68 10.5189 1091.3 10.8295C1090.91 11.1402 1090.62 11.5473 1090.44 12.0511C1090.25 12.5549 1090.16 13.0985 1090.16 13.6818C1090.16 14.2652 1090.25 14.8068 1090.44 15.3068C1090.62 15.8068 1090.91 16.2102 1091.3 16.517C1091.68 16.8239 1092.17 16.9773 1092.77 16.9773ZM1098.77 18V9.27273H1102.34C1103.28 9.27273 1104.03 9.48485 1104.58 9.90909C1105.13 10.3333 1105.41 10.8939 1105.41 11.5909C1105.41 12.1212 1105.25 12.5322 1104.94 12.8239C1104.62 13.1117 1104.22 13.3068 1103.73 13.4091C1104.05 13.4545 1104.36 13.5682 1104.67 13.75C1104.97 13.9318 1105.23 14.1818 1105.43 14.5C1105.63 14.8144 1105.73 15.2008 1105.73 15.6591C1105.73 16.1061 1105.62 16.5057 1105.39 16.858C1105.16 17.2102 1104.83 17.4886 1104.41 17.6932C1103.99 17.8977 1103.48 18 1102.89 18H1098.77ZM1100.05 16.7727H1102.89C1103.35 16.7727 1103.71 16.6629 1103.97 16.4432C1104.23 16.2235 1104.37 15.9242 1104.37 15.5455C1104.37 15.0947 1104.23 14.7405 1103.97 14.483C1103.71 14.2216 1103.35 14.0909 1102.89 14.0909H1100.05V16.7727ZM1100.05 12.9318H1102.34C1102.7 12.9318 1103.01 12.8826 1103.27 12.7841C1103.53 12.6818 1103.72 12.5379 1103.86 12.3523C1104 12.1629 1104.07 11.9394 1104.07 11.6818C1104.07 11.3144 1103.92 11.0265 1103.61 10.8182C1103.3 10.6061 1102.88 10.5 1102.34 10.5H1100.05V12.9318ZM1110.33 18.2045C1109.77 18.2045 1109.27 18.1004 1108.82 17.892C1108.37 17.6799 1108.01 17.375 1107.75 16.9773C1107.48 16.5758 1107.35 16.0909 1107.35 15.5227C1107.35 15.0227 1107.45 14.6174 1107.64 14.3068C1107.84 13.9924 1108.11 13.7462 1108.43 13.5682C1108.76 13.3902 1109.13 13.2576 1109.53 13.1705C1109.93 13.0795 1110.33 13.0076 1110.74 12.9545C1111.27 12.8864 1111.7 12.8352 1112.03 12.8011C1112.36 12.7633 1112.6 12.7008 1112.75 12.6136C1112.91 12.5265 1112.99 12.375 1112.99 12.1591V12.1136C1112.99 11.553 1112.83 11.1174 1112.53 10.8068C1112.22 10.4962 1111.76 10.3409 1111.14 10.3409C1110.5 10.3409 1110 10.4811 1109.64 10.7614C1109.28 11.0417 1109.02 11.3409 1108.87 11.6591L1107.6 11.2045C1107.83 10.6742 1108.13 10.2614 1108.51 9.96591C1108.89 9.66667 1109.31 9.45833 1109.76 9.34091C1110.21 9.2197 1110.66 9.15909 1111.1 9.15909C1111.38 9.15909 1111.7 9.19318 1112.07 9.26136C1112.43 9.32576 1112.79 9.46023 1113.13 9.66477C1113.47 9.86932 1113.76 10.178 1113.99 10.5909C1114.21 11.0038 1114.33 11.5568 1114.33 12.25V18H1112.99V16.8182H1112.92C1112.83 17.0076 1112.68 17.2102 1112.46 17.4261C1112.25 17.642 1111.97 17.8258 1111.62 17.9773C1111.26 18.1288 1110.83 18.2045 1110.33 18.2045ZM1110.53 17C1111.06 17 1111.51 16.8958 1111.87 16.6875C1112.24 16.4792 1112.52 16.2102 1112.7 15.8807C1112.89 15.5511 1112.99 15.2045 1112.99 14.8409V13.6136C1112.93 13.6818 1112.8 13.7443 1112.61 13.8011C1112.42 13.8542 1112.2 13.9015 1111.95 13.9432C1111.71 13.9811 1111.46 14.0152 1111.23 14.0455C1111 14.072 1110.81 14.0947 1110.67 14.1136C1110.32 14.1591 1109.99 14.233 1109.69 14.3352C1109.39 14.4337 1109.15 14.5833 1108.96 14.7841C1108.78 14.9811 1108.69 15.25 1108.69 15.5909C1108.69 16.0568 1108.86 16.4091 1109.21 16.6477C1109.56 16.8826 1110 17 1110.53 17ZM1122.62 13.0227V14.2727H1117.8V13.0227H1122.62ZM1118.12 9.27273V18H1116.77V9.27273H1118.12ZM1123.64 9.27273V18H1122.3V9.27273H1123.64ZM1127.43 16.0227L1131.63 9.27273H1133.18V18H1131.84V11.25L1127.65 18H1126.09V9.27273H1127.43V16.0227ZM1139.29 18.1818C1138.45 18.1818 1137.73 17.9962 1137.12 17.625C1136.51 17.25 1136.04 16.7273 1135.71 16.0568C1135.39 15.3826 1135.22 14.5985 1135.22 13.7045C1135.22 12.8106 1135.39 12.0227 1135.71 11.3409C1136.04 10.6553 1136.5 10.1212 1137.09 9.73864C1137.68 9.35227 1138.37 9.15909 1139.16 9.15909C1139.61 9.15909 1140.06 9.23485 1140.5 9.38636C1140.95 9.53788 1141.35 9.78409 1141.71 10.125C1142.08 10.4621 1142.37 10.9091 1142.58 11.4659C1142.8 12.0227 1142.91 12.7083 1142.91 13.5227V14.0909H1136.18V12.9318H1141.54C1141.54 12.4394 1141.44 12 1141.25 11.6136C1141.05 11.2273 1140.78 10.9223 1140.42 10.6989C1140.06 10.4754 1139.64 10.3636 1139.16 10.3636C1138.62 10.3636 1138.16 10.4962 1137.77 10.7614C1137.38 11.0227 1137.09 11.3636 1136.88 11.7841C1136.67 12.2045 1136.57 12.6553 1136.57 13.1364V13.9091C1136.57 14.5682 1136.68 15.1269 1136.91 15.5852C1137.14 16.0398 1137.46 16.3864 1137.87 16.625C1138.28 16.8598 1138.75 16.9773 1139.29 16.9773C1139.64 16.9773 1139.96 16.928 1140.25 16.8295C1140.54 16.7273 1140.78 16.5758 1140.99 16.375C1141.2 16.1705 1141.36 15.9167 1141.47 15.6136L1142.77 15.9773C1142.63 16.4167 1142.4 16.803 1142.08 17.1364C1141.76 17.4659 1141.36 17.7235 1140.89 17.9091C1140.42 18.0909 1139.88 18.1818 1139.29 18.1818Z" fill="white"/>
<path d="M446 16.1818L449.045 9.27273H450.318L446.545 18H445.455L441.75 9.27273H443L446 16.1818ZM442.568 9.27273V18H441.227V9.27273H442.568ZM449.432 18V9.27273H450.773V18H449.432ZM455.795 18.2045C455.242 18.2045 454.741 18.1004 454.29 17.892C453.839 17.6799 453.481 17.375 453.216 16.9773C452.951 16.5758 452.818 16.0909 452.818 15.5227C452.818 15.0227 452.917 14.6174 453.114 14.3068C453.311 13.9924 453.574 13.7462 453.903 13.5682C454.233 13.3902 454.597 13.2576 454.994 13.1705C455.396 13.0795 455.799 13.0076 456.205 12.9545C456.735 12.8864 457.165 12.8352 457.494 12.8011C457.828 12.7633 458.07 12.7008 458.222 12.6136C458.377 12.5265 458.455 12.375 458.455 12.1591V12.1136C458.455 11.553 458.301 11.1174 457.994 10.8068C457.691 10.4962 457.231 10.3409 456.614 10.3409C455.973 10.3409 455.472 10.4811 455.108 10.7614C454.744 11.0417 454.489 11.3409 454.341 11.6591L453.068 11.2045C453.295 10.6742 453.598 10.2614 453.977 9.96591C454.36 9.66667 454.777 9.45833 455.227 9.34091C455.682 9.2197 456.129 9.15909 456.568 9.15909C456.848 9.15909 457.17 9.19318 457.534 9.26136C457.902 9.32576 458.256 9.46023 458.597 9.66477C458.941 9.86932 459.227 10.178 459.455 10.5909C459.682 11.0038 459.795 11.5568 459.795 12.25V18H458.455V16.8182H458.386C458.295 17.0076 458.144 17.2102 457.932 17.4261C457.72 17.642 457.438 17.8258 457.085 17.9773C456.733 18.1288 456.303 18.2045 455.795 18.2045ZM456 17C456.53 17 456.977 16.8958 457.341 16.6875C457.708 16.4792 457.985 16.2102 458.17 15.8807C458.36 15.5511 458.455 15.2045 458.455 14.8409V13.6136C458.398 13.6818 458.273 13.7443 458.08 13.8011C457.89 13.8542 457.67 13.9015 457.42 13.9432C457.174 13.9811 456.934 14.0152 456.699 14.0455C456.468 14.072 456.28 14.0947 456.136 14.1136C455.788 14.1591 455.462 14.233 455.159 14.3352C454.86 14.4337 454.617 14.5833 454.432 14.7841C454.25 14.9811 454.159 15.25 454.159 15.5909C454.159 16.0568 454.331 16.4091 454.676 16.6477C455.025 16.8826 455.466 17 456 17ZM462.243 21.2727V9.27273H463.538V10.6591H463.697C463.796 10.5076 463.932 10.3144 464.107 10.0795C464.285 9.84091 464.538 9.62879 464.868 9.44318C465.201 9.25379 465.652 9.15909 466.22 9.15909C466.955 9.15909 467.603 9.3428 468.163 9.71023C468.724 10.0777 469.161 10.5985 469.476 11.2727C469.79 11.947 469.947 12.7424 469.947 13.6591C469.947 14.5833 469.79 15.3845 469.476 16.0625C469.161 16.7367 468.726 17.2595 468.169 17.6307C467.612 17.9981 466.97 18.1818 466.243 18.1818C465.682 18.1818 465.233 18.089 464.896 17.9034C464.559 17.714 464.3 17.5 464.118 17.2614C463.936 17.0189 463.796 16.8182 463.697 16.6591H463.584V21.2727H462.243ZM463.561 13.6364C463.561 14.2955 463.658 14.8769 463.851 15.3807C464.044 15.8807 464.326 16.2727 464.697 16.5568C465.069 16.8371 465.523 16.9773 466.061 16.9773C466.622 16.9773 467.089 16.8295 467.464 16.5341C467.843 16.2348 468.127 15.8333 468.317 15.3295C468.51 14.822 468.607 14.2576 468.607 13.6364C468.607 13.0227 468.512 12.4697 468.322 11.9773C468.137 11.4811 467.855 11.089 467.476 10.8011C467.101 10.5095 466.629 10.3636 466.061 10.3636C465.516 10.3636 465.057 10.5019 464.686 10.7784C464.315 11.0511 464.035 11.4337 463.845 11.9261C463.656 12.4148 463.561 12.9848 463.561 13.6364ZM471.993 18V9.27273H473.334V13.0682H474.22L477.357 9.27273H479.084L475.561 13.4773L479.129 18H477.402L474.538 14.3182H473.334V18H471.993ZM483.886 18.1818C483.045 18.1818 482.32 17.9962 481.71 17.625C481.104 17.25 480.636 16.7273 480.307 16.0568C479.981 15.3826 479.818 14.5985 479.818 13.7045C479.818 12.8106 479.981 12.0227 480.307 11.3409C480.636 10.6553 481.095 10.1212 481.682 9.73864C482.273 9.35227 482.962 9.15909 483.75 9.15909C484.205 9.15909 484.653 9.23485 485.097 9.38636C485.54 9.53788 485.943 9.78409 486.307 10.125C486.67 10.4621 486.96 10.9091 487.176 11.4659C487.392 12.0227 487.5 12.7083 487.5 13.5227V14.0909H480.773V12.9318H486.136C486.136 12.4394 486.038 12 485.841 11.6136C485.648 11.2273 485.371 10.9223 485.011 10.6989C484.655 10.4754 484.235 10.3636 483.75 10.3636C483.216 10.3636 482.754 10.4962 482.364 10.7614C481.977 11.0227 481.68 11.3636 481.472 11.7841C481.263 12.2045 481.159 12.6553 481.159 13.1364V13.9091C481.159 14.5682 481.273 15.1269 481.5 15.5852C481.731 16.0398 482.051 16.3864 482.46 16.625C482.869 16.8598 483.345 16.9773 483.886 16.9773C484.239 16.9773 484.557 16.928 484.841 16.8295C485.129 16.7273 485.377 16.5758 485.585 16.375C485.794 16.1705 485.955 15.9167 486.068 15.6136L487.364 15.9773C487.227 16.4167 486.998 16.803 486.676 17.1364C486.354 17.4659 485.956 17.7235 485.483 17.9091C485.009 18.0909 484.477 18.1818 483.886 18.1818ZM488.727 10.5227V9.27273H495.818V10.5227H492.955V18H491.614V10.5227H488.727ZM499.115 16.0227L503.32 9.27273H504.865V18H503.524V11.25L499.342 18H497.774V9.27273H499.115V16.0227ZM513.162 13.0227V14.2727H508.344V13.0227H513.162ZM508.662 9.27273V18H507.321V9.27273H508.662ZM514.185 9.27273V18H512.844V9.27273H514.185ZM522.02 9.27273V10.5227H517.974V18H516.634V9.27273H522.02Z" fill="white"/>
<path d="M1226 16.1818L1229.05 9.27273H1230.32L1226.55 18H1225.45L1221.75 9.27273H1223L1226 16.1818ZM1222.57 9.27273V18H1221.23V9.27273H1222.57ZM1229.43 18V9.27273H1230.77V18H1229.43ZM1235.8 18.2045C1235.24 18.2045 1234.74 18.1004 1234.29 17.892C1233.84 17.6799 1233.48 17.375 1233.22 16.9773C1232.95 16.5758 1232.82 16.0909 1232.82 15.5227C1232.82 15.0227 1232.92 14.6174 1233.11 14.3068C1233.31 13.9924 1233.57 13.7462 1233.9 13.5682C1234.23 13.3902 1234.6 13.2576 1234.99 13.1705C1235.4 13.0795 1235.8 13.0076 1236.2 12.9545C1236.73 12.8864 1237.16 12.8352 1237.49 12.8011C1237.83 12.7633 1238.07 12.7008 1238.22 12.6136C1238.38 12.5265 1238.45 12.375 1238.45 12.1591V12.1136C1238.45 11.553 1238.3 11.1174 1237.99 10.8068C1237.69 10.4962 1237.23 10.3409 1236.61 10.3409C1235.97 10.3409 1235.47 10.4811 1235.11 10.7614C1234.74 11.0417 1234.49 11.3409 1234.34 11.6591L1233.07 11.2045C1233.3 10.6742 1233.6 10.2614 1233.98 9.96591C1234.36 9.66667 1234.78 9.45833 1235.23 9.34091C1235.68 9.2197 1236.13 9.15909 1236.57 9.15909C1236.85 9.15909 1237.17 9.19318 1237.53 9.26136C1237.9 9.32576 1238.26 9.46023 1238.6 9.66477C1238.94 9.86932 1239.23 10.178 1239.45 10.5909C1239.68 11.0038 1239.8 11.5568 1239.8 12.25V18H1238.45V16.8182H1238.39C1238.3 17.0076 1238.14 17.2102 1237.93 17.4261C1237.72 17.642 1237.44 17.8258 1237.09 17.9773C1236.73 18.1288 1236.3 18.2045 1235.8 18.2045ZM1236 17C1236.53 17 1236.98 16.8958 1237.34 16.6875C1237.71 16.4792 1237.98 16.2102 1238.17 15.8807C1238.36 15.5511 1238.45 15.2045 1238.45 14.8409V13.6136C1238.4 13.6818 1238.27 13.7443 1238.08 13.8011C1237.89 13.8542 1237.67 13.9015 1237.42 13.9432C1237.17 13.9811 1236.93 14.0152 1236.7 14.0455C1236.47 14.072 1236.28 14.0947 1236.14 14.1136C1235.79 14.1591 1235.46 14.233 1235.16 14.3352C1234.86 14.4337 1234.62 14.5833 1234.43 14.7841C1234.25 14.9811 1234.16 15.25 1234.16 15.5909C1234.16 16.0568 1234.33 16.4091 1234.68 16.6477C1235.02 16.8826 1235.47 17 1236 17ZM1242.24 21.2727V9.27273H1243.54V10.6591H1243.7C1243.8 10.5076 1243.93 10.3144 1244.11 10.0795C1244.28 9.84091 1244.54 9.62879 1244.87 9.44318C1245.2 9.25379 1245.65 9.15909 1246.22 9.15909C1246.96 9.15909 1247.6 9.3428 1248.16 9.71023C1248.72 10.0777 1249.16 10.5985 1249.48 11.2727C1249.79 11.947 1249.95 12.7424 1249.95 13.6591C1249.95 14.5833 1249.79 15.3845 1249.48 16.0625C1249.16 16.7367 1248.73 17.2595 1248.17 17.6307C1247.61 17.9981 1246.97 18.1818 1246.24 18.1818C1245.68 18.1818 1245.23 18.089 1244.9 17.9034C1244.56 17.714 1244.3 17.5 1244.12 17.2614C1243.94 17.0189 1243.8 16.8182 1243.7 16.6591H1243.58V21.2727H1242.24ZM1243.56 13.6364C1243.56 14.2955 1243.66 14.8769 1243.85 15.3807C1244.04 15.8807 1244.33 16.2727 1244.7 16.5568C1245.07 16.8371 1245.52 16.9773 1246.06 16.9773C1246.62 16.9773 1247.09 16.8295 1247.46 16.5341C1247.84 16.2348 1248.13 15.8333 1248.32 15.3295C1248.51 14.822 1248.61 14.2576 1248.61 13.6364C1248.61 13.0227 1248.51 12.4697 1248.32 11.9773C1248.14 11.4811 1247.85 11.089 1247.48 10.8011C1247.1 10.5095 1246.63 10.3636 1246.06 10.3636C1245.52 10.3636 1245.06 10.5019 1244.69 10.7784C1244.31 11.0511 1244.03 11.4337 1243.85 11.9261C1243.66 12.4148 1243.56 12.9848 1243.56 13.6364ZM1251.99 18V9.27273H1253.33V13.0682H1254.22L1257.36 9.27273H1259.08L1255.56 13.4773L1259.13 18H1257.4L1254.54 14.3182H1253.33V18H1251.99ZM1263.89 18.1818C1263.05 18.1818 1262.32 17.9962 1261.71 17.625C1261.1 17.25 1260.64 16.7273 1260.31 16.0568C1259.98 15.3826 1259.82 14.5985 1259.82 13.7045C1259.82 12.8106 1259.98 12.0227 1260.31 11.3409C1260.64 10.6553 1261.09 10.1212 1261.68 9.73864C1262.27 9.35227 1262.96 9.15909 1263.75 9.15909C1264.2 9.15909 1264.65 9.23485 1265.1 9.38636C1265.54 9.53788 1265.94 9.78409 1266.31 10.125C1266.67 10.4621 1266.96 10.9091 1267.18 11.4659C1267.39 12.0227 1267.5 12.7083 1267.5 13.5227V14.0909H1260.77V12.9318H1266.14C1266.14 12.4394 1266.04 12 1265.84 11.6136C1265.65 11.2273 1265.37 10.9223 1265.01 10.6989C1264.66 10.4754 1264.23 10.3636 1263.75 10.3636C1263.22 10.3636 1262.75 10.4962 1262.36 10.7614C1261.98 11.0227 1261.68 11.3636 1261.47 11.7841C1261.26 12.2045 1261.16 12.6553 1261.16 13.1364V13.9091C1261.16 14.5682 1261.27 15.1269 1261.5 15.5852C1261.73 16.0398 1262.05 16.3864 1262.46 16.625C1262.87 16.8598 1263.34 16.9773 1263.89 16.9773C1264.24 16.9773 1264.56 16.928 1264.84 16.8295C1265.13 16.7273 1265.38 16.5758 1265.59 16.375C1265.79 16.1705 1265.95 15.9167 1266.07 15.6136L1267.36 15.9773C1267.23 16.4167 1267 16.803 1266.68 17.1364C1266.35 17.4659 1265.96 17.7235 1265.48 17.9091C1265.01 18.0909 1264.48 18.1818 1263.89 18.1818ZM1268.73 10.5227V9.27273H1275.82V10.5227H1272.95V18H1271.61V10.5227H1268.73ZM1279.12 16.0227L1283.32 9.27273H1284.87V18H1283.52V11.25L1279.34 18H1277.77V9.27273H1279.12V16.0227ZM1293.16 13.0227V14.2727H1288.34V13.0227H1293.16ZM1288.66 9.27273V18H1287.32V9.27273H1288.66ZM1294.18 9.27273V18H1292.84V9.27273H1294.18ZM1302.02 9.27273V10.5227H1297.97V18H1296.63V9.27273H1302.02Z" fill="white"/>
<path d="M600.227 18V9.27273H601.568V13.0682H602.455L605.591 9.27273H607.318L603.795 13.4773L607.364 18H605.636L602.773 14.3182H601.568V18H600.227ZM612.007 18.1818C611.219 18.1818 610.528 17.9943 609.933 17.6193C609.342 17.2443 608.88 16.7197 608.547 16.0455C608.217 15.3712 608.053 14.5833 608.053 13.6818C608.053 12.7727 608.217 11.9792 608.547 11.3011C608.88 10.6231 609.342 10.0966 609.933 9.72159C610.528 9.34659 611.219 9.15909 612.007 9.15909C612.795 9.15909 613.484 9.34659 614.075 9.72159C614.67 10.0966 615.132 10.6231 615.462 11.3011C615.795 11.9792 615.962 12.7727 615.962 13.6818C615.962 14.5833 615.795 15.3712 615.462 16.0455C615.132 16.7197 614.67 17.2443 614.075 17.6193C613.484 17.9943 612.795 18.1818 612.007 18.1818ZM612.007 16.9773C612.606 16.9773 613.098 16.8239 613.484 16.517C613.871 16.2102 614.157 15.8068 614.342 15.3068C614.528 14.8068 614.621 14.2652 614.621 13.6818C614.621 13.0985 614.528 12.5549 614.342 12.0511C614.157 11.5473 613.871 11.1402 613.484 10.8295C613.098 10.5189 612.606 10.3636 612.007 10.3636C611.409 10.3636 610.916 10.5189 610.53 10.8295C610.143 11.1402 609.857 11.5473 609.672 12.0511C609.486 12.5549 609.393 13.0985 609.393 13.6818C609.393 14.2652 609.486 14.8068 609.672 15.3068C609.857 15.8068 610.143 16.2102 610.53 16.517C610.916 16.8239 611.409 16.9773 612.007 16.9773ZM623.849 13.0227V14.2727H619.031V13.0227H623.849ZM619.349 9.27273V18H618.009V9.27273H619.349ZM624.872 9.27273V18H623.531V9.27273H624.872ZM626.134 10.5227V9.27273H633.224V10.5227H630.361V18H629.02V10.5227H626.134ZM638.386 18.1818C637.545 18.1818 636.82 17.9962 636.21 17.625C635.604 17.25 635.136 16.7273 634.807 16.0568C634.481 15.3826 634.318 14.5985 634.318 13.7045C634.318 12.8106 634.481 12.0227 634.807 11.3409C635.136 10.6553 635.595 10.1212 636.182 9.73864C636.773 9.35227 637.462 9.15909 638.25 9.15909C638.705 9.15909 639.153 9.23485 639.597 9.38636C640.04 9.53788 640.443 9.78409 640.807 10.125C641.17 10.4621 641.46 10.9091 641.676 11.4659C641.892 12.0227 642 12.7083 642 13.5227V14.0909H635.273V12.9318H640.636C640.636 12.4394 640.538 12 640.341 11.6136C640.148 11.2273 639.871 10.9223 639.511 10.6989C639.155 10.4754 638.735 10.3636 638.25 10.3636C637.716 10.3636 637.254 10.4962 636.864 10.7614C636.477 11.0227 636.18 11.3636 635.972 11.7841C635.763 12.2045 635.659 12.6553 635.659 13.1364V13.9091C635.659 14.5682 635.773 15.1269 636 15.5852C636.231 16.0398 636.551 16.3864 636.96 16.625C637.369 16.8598 637.845 16.9773 638.386 16.9773C638.739 16.9773 639.057 16.928 639.341 16.8295C639.629 16.7273 639.877 16.5758 640.085 16.375C640.294 16.1705 640.455 15.9167 640.568 15.6136L641.864 15.9773C641.727 16.4167 641.498 16.803 641.176 17.1364C640.854 17.4659 640.456 17.7235 639.983 17.9091C639.509 18.0909 638.977 18.1818 638.386 18.1818ZM649.881 13.0227V14.2727H645.062V13.0227H649.881ZM645.381 9.27273V18H644.04V9.27273H645.381ZM650.903 9.27273V18H649.562V9.27273H650.903ZM652.165 10.5227V9.27273H659.256V10.5227H656.392V18H655.051V10.5227H652.165Z" fill="white"/>
<path d="M1380.23 18V9.27273H1381.57V13.0682H1382.45L1385.59 9.27273H1387.32L1383.8 13.4773L1387.36 18H1385.64L1382.77 14.3182H1381.57V18H1380.23ZM1392.01 18.1818C1391.22 18.1818 1390.53 17.9943 1389.93 17.6193C1389.34 17.2443 1388.88 16.7197 1388.55 16.0455C1388.22 15.3712 1388.05 14.5833 1388.05 13.6818C1388.05 12.7727 1388.22 11.9792 1388.55 11.3011C1388.88 10.6231 1389.34 10.0966 1389.93 9.72159C1390.53 9.34659 1391.22 9.15909 1392.01 9.15909C1392.79 9.15909 1393.48 9.34659 1394.08 9.72159C1394.67 10.0966 1395.13 10.6231 1395.46 11.3011C1395.79 11.9792 1395.96 12.7727 1395.96 13.6818C1395.96 14.5833 1395.79 15.3712 1395.46 16.0455C1395.13 16.7197 1394.67 17.2443 1394.08 17.6193C1393.48 17.9943 1392.79 18.1818 1392.01 18.1818ZM1392.01 16.9773C1392.61 16.9773 1393.1 16.8239 1393.48 16.517C1393.87 16.2102 1394.16 15.8068 1394.34 15.3068C1394.53 14.8068 1394.62 14.2652 1394.62 13.6818C1394.62 13.0985 1394.53 12.5549 1394.34 12.0511C1394.16 11.5473 1393.87 11.1402 1393.48 10.8295C1393.1 10.5189 1392.61 10.3636 1392.01 10.3636C1391.41 10.3636 1390.92 10.5189 1390.53 10.8295C1390.14 11.1402 1389.86 11.5473 1389.67 12.0511C1389.49 12.5549 1389.39 13.0985 1389.39 13.6818C1389.39 14.2652 1389.49 14.8068 1389.67 15.3068C1389.86 15.8068 1390.14 16.2102 1390.53 16.517C1390.92 16.8239 1391.41 16.9773 1392.01 16.9773ZM1403.85 13.0227V14.2727H1399.03V13.0227H1403.85ZM1399.35 9.27273V18H1398.01V9.27273H1399.35ZM1404.87 9.27273V18H1403.53V9.27273H1404.87ZM1406.13 10.5227V9.27273H1413.22V10.5227H1410.36V18H1409.02V10.5227H1406.13ZM1418.39 18.1818C1417.55 18.1818 1416.82 17.9962 1416.21 17.625C1415.6 17.25 1415.14 16.7273 1414.81 16.0568C1414.48 15.3826 1414.32 14.5985 1414.32 13.7045C1414.32 12.8106 1414.48 12.0227 1414.81 11.3409C1415.14 10.6553 1415.59 10.1212 1416.18 9.73864C1416.77 9.35227 1417.46 9.15909 1418.25 9.15909C1418.7 9.15909 1419.15 9.23485 1419.6 9.38636C1420.04 9.53788 1420.44 9.78409 1420.81 10.125C1421.17 10.4621 1421.46 10.9091 1421.68 11.4659C1421.89 12.0227 1422 12.7083 1422 13.5227V14.0909H1415.27V12.9318H1420.64C1420.64 12.4394 1420.54 12 1420.34 11.6136C1420.15 11.2273 1419.87 10.9223 1419.51 10.6989C1419.16 10.4754 1418.73 10.3636 1418.25 10.3636C1417.72 10.3636 1417.25 10.4962 1416.86 10.7614C1416.48 11.0227 1416.18 11.3636 1415.97 11.7841C1415.76 12.2045 1415.66 12.6553 1415.66 13.1364V13.9091C1415.66 14.5682 1415.77 15.1269 1416 15.5852C1416.23 16.0398 1416.55 16.3864 1416.96 16.625C1417.37 16.8598 1417.84 16.9773 1418.39 16.9773C1418.74 16.9773 1419.06 16.928 1419.34 16.8295C1419.63 16.7273 1419.88 16.5758 1420.09 16.375C1420.29 16.1705 1420.45 15.9167 1420.57 15.6136L1421.86 15.9773C1421.73 16.4167 1421.5 16.803 1421.18 17.1364C1420.85 17.4659 1420.46 17.7235 1419.98 17.9091C1419.51 18.0909 1418.98 18.1818 1418.39 18.1818ZM1429.88 13.0227V14.2727H1425.06V13.0227H1429.88ZM1425.38 9.27273V18H1424.04V9.27273H1425.38ZM1430.9 9.27273V18H1429.56V9.27273H1430.9ZM1432.16 10.5227V9.27273H1439.26V10.5227H1436.39V18H1435.05V10.5227H1432.16Z" fill="white"/>
</svg>
