<svg xmlns="http://www.w3.org/2000/svg" width="46" height="46" viewBox="0 0 46 46" fill="none">
  <rect width="46" height="46" rx="11.5" fill="white"/>
  <path d="M23.1549 9.34375C21.3412 9.34375 19.5452 9.70099 17.8696 10.3951C16.194 11.0891 14.6714 12.1065 13.3889 13.3889C10.7988 15.979 9.34375 19.492 9.34375 23.1549C9.34375 29.2594 13.3075 34.4386 18.7906 36.2755C19.4811 36.386 19.7021 35.9578 19.7021 35.5849V33.2508C15.8764 34.0795 15.0616 31.4001 15.0616 31.4001C14.4263 29.7981 13.5285 29.3699 13.5285 29.3699C12.2717 28.5136 13.6252 28.5412 13.6252 28.5412C15.0063 28.6379 15.7383 29.9638 15.7383 29.9638C16.9399 32.0631 18.9701 31.4416 19.7574 31.1101C19.8817 30.2124 20.2407 29.6047 20.6275 29.2594C17.5614 28.9141 14.3434 27.7264 14.3434 22.4643C14.3434 20.9313 14.8682 19.7021 15.7659 18.7215C15.6278 18.3762 15.1444 16.9399 15.904 15.0754C15.904 15.0754 17.0642 14.7025 19.7021 16.4841C20.7932 16.1803 21.9809 16.0283 23.1549 16.0283C24.3288 16.0283 25.5166 16.1803 26.6077 16.4841C29.2456 14.7025 30.4057 15.0754 30.4057 15.0754C31.1654 16.9399 30.682 18.3762 30.5439 18.7215C31.4416 19.7021 31.9664 20.9313 31.9664 22.4643C31.9664 27.7402 28.7346 28.9003 25.6547 29.2456C26.1519 29.6738 26.6077 30.5162 26.6077 31.8007V35.5849C26.6077 35.9578 26.8287 36.3998 27.533 36.2755C33.0161 34.4248 36.966 29.2594 36.966 23.1549C36.966 21.3412 36.6088 19.5452 35.9147 17.8696C35.2207 16.194 34.2033 14.6714 32.9208 13.3889C31.6384 12.1065 30.1158 11.0891 28.4402 10.3951C26.7645 9.70099 24.9686 9.34375 23.1549 9.34375Z" fill="black"/>
</svg>