<svg width="46" height="46" viewBox="0 0 46 46" fill="none" xmlns="http://www.w3.org/2000/svg">
<rect width="46" height="46" rx="11.5" fill="white"/>
<path d="M35.0713 21.2428V17.9492H32.6563V21.2428H29.1465V23.6578H32.4401V26.9514H34.8551V23.6578H38.3649V21.2428H35.0713V21.2428Z" fill="black"/>
<path d="M17.2921 21.0266V24.7572H22.3383C21.9013 26.9514 19.9233 28.7086 17.2921 28.7086C14.2193 28.7086 11.5835 26.0728 11.5835 23C11.5835 19.9272 14.2193 17.2914 17.2921 17.2914C18.6077 17.2914 19.9279 17.7284 20.8019 18.607L23.6539 15.755C21.8967 14.4394 19.9233 13.34 17.2875 13.34C12.0251 13.3446 7.63672 17.733 7.63672 23C7.63672 28.267 12.0251 32.6554 17.2921 32.6554C22.7799 32.6554 26.5105 28.704 26.5105 23.2162C26.5105 22.5584 26.5105 21.6798 26.2897 21.022C26.2943 21.0266 17.2921 21.0266 17.2921 21.0266Z" fill="black"/>
</svg>
