<svg width="85" height="43" viewBox="0 0 85 43" fill="none" xmlns="http://www.w3.org/2000/svg">
<rect width="85" height="42.5" rx="5.97656" fill="white"/>
<path d="M12 13.9453C12 12.4783 13.1892 11.2891 14.6562 11.2891H20.6328V19.9219H12V13.9453Z" fill="#93A0FF"/>
<path d="M22.625 11.2891H28.6016C30.0686 11.2891 31.2578 12.4783 31.2578 13.9453V19.9219H22.625V11.2891Z" fill="#93A0FF"/>
<path d="M12 21.9141H20.6328V30.5469H14.6562C13.1892 30.5469 12 29.3576 12 27.8906V21.9141Z" fill="#93A0FF"/>
<path d="M22.625 21.9141H31.2578V27.8906C31.2578 29.3576 30.0686 30.5469 28.6016 30.5469H22.625V21.9141Z" fill="#93A0FF"/>
<path d="M32.7109 13.6562C32.7109 12.1892 33.9002 11 35.3672 11H41.3438V19.6328H32.7109V13.6562Z" fill="#93A0FF"/>
<path d="M43.3359 11H49.3125C50.7795 11 51.9688 12.1892 51.9688 13.6562V19.6328H43.3359V11Z" fill="#93A0FF"/>
<path d="M32.7109 21.625H41.3438V30.2578H35.3672C33.9002 30.2578 32.7109 29.0686 32.7109 27.6016V21.625Z" fill="#93A0FF"/>
<path d="M43.3359 21.625H51.9688V27.6016C51.9688 29.0686 50.7795 30.2578 49.3125 30.2578H43.3359V21.625Z" fill="#93A0FF"/>
<path d="M53.7109 13.6562C53.7109 12.1892 54.9002 11 56.3672 11H62.3438V19.6328H53.7109V13.6562Z" fill="#93A0FF"/>
<path d="M64.3359 11H70.3125C71.7795 11 72.9688 12.1892 72.9688 13.6562V19.6328H64.3359V11Z" fill="#93A0FF"/>
<path d="M53.7109 21.625H62.3438V30.2578H56.3672C54.9002 30.2578 53.7109 29.0686 53.7109 27.6016V21.625Z" fill="#93A0FF"/>
<path d="M64.3359 21.625H72.9688V27.6016C72.9688 29.0686 71.7795 30.2578 70.3125 30.2578H64.3359V21.625Z" fill="#93A0FF"/>
</svg>
