<svg width="96" height="32" viewBox="0 0 96 32" fill="none" xmlns="http://www.w3.org/2000/svg">
<path d="M11.4609 29.2891C10.7031 29.2656 10.0469 29.0898 9.49219 28.7617C8.9375 28.4336 8.47656 28 8.10938 27.4609C7.75781 26.9453 7.49219 26.3672 7.3125 25.7266C7.13281 25.0938 7.04297 24.4648 7.04297 23.8398V21.8594C7.04297 20.7344 6.77344 19.918 6.23438 19.4102C5.70312 18.9023 4.88672 18.6445 3.78516 18.6367V16.9375C4.88672 16.9375 5.70312 16.6875 6.23438 16.1875C6.77344 15.6797 7.04297 14.8594 7.04297 13.7266V11.7344C7.04297 11.1016 7.125 10.457 7.28906 9.80078C7.46094 9.13672 7.73047 8.54297 8.09766 8.01953C8.44141 7.51953 8.89062 7.11328 9.44531 6.80078C10 6.48047 10.6719 6.30859 11.4609 6.28516L11.707 7.63281C11.1445 7.64844 10.6953 7.78125 10.3594 8.03125C10.0312 8.28125 9.78516 8.59766 9.62109 8.98047C9.44922 9.37109 9.33984 9.80859 9.29297 10.293C9.24609 10.7773 9.22266 11.2578 9.22266 11.7344V13.7266C9.22266 14.6641 9.00391 15.4883 8.56641 16.1992C8.13672 16.9023 7.46875 17.4375 6.5625 17.8047C7.46875 18.1641 8.13672 18.6992 8.56641 19.4102C8.99609 20.1133 9.21484 20.9297 9.22266 21.8594V23.8398C9.22266 24.3242 9.26172 24.8047 9.33984 25.2812C9.41797 25.7656 9.55469 26.1992 9.75 26.582C9.9375 26.9727 10.1875 27.293 10.5 27.543C10.8203 27.793 11.2227 27.9258 11.707 27.9414L11.4609 29.2891Z" fill="#3F3F3F"/>
<path d="M36.4414 14.0781H31.3789V25H29.1992V14.0781H24.2188V12.3203H36.4414V14.0781ZM47.7852 25C47.6992 24.8359 47.6289 24.6328 47.5742 24.3906C47.5273 24.1406 47.4922 23.8828 47.4688 23.6172C47.25 23.8359 47.0039 24.043 46.7305 24.2383C46.4648 24.4336 46.1719 24.6055 45.8516 24.7539C45.5234 24.9023 45.1758 25.0195 44.8086 25.1055C44.4414 25.1914 44.0508 25.2344 43.6367 25.2344C42.9648 25.2344 42.3555 25.1367 41.8086 24.9414C41.2695 24.7461 40.8125 24.4805 40.4375 24.1445C40.0547 23.8164 39.7578 23.4258 39.5469 22.9727C39.3438 22.5117 39.2422 22.0156 39.2422 21.4844C39.2422 20.7891 39.3789 20.1797 39.6523 19.6562C39.9336 19.1328 40.3281 18.6953 40.8359 18.3438C41.3438 18 41.9531 17.7422 42.6641 17.5703C43.3828 17.3984 44.1836 17.3125 45.0664 17.3125H47.4336V16.3164C47.4336 15.9336 47.3633 15.5898 47.2227 15.2852C47.082 14.9805 46.8828 14.7188 46.625 14.5C46.3672 14.2891 46.0508 14.125 45.6758 14.0078C45.3086 13.8906 44.8945 13.832 44.4336 13.832C44.0039 13.832 43.6172 13.8867 43.2734 13.9961C42.9375 14.1055 42.6523 14.25 42.418 14.4297C42.1836 14.6094 42 14.8242 41.8672 15.0742C41.7422 15.3164 41.6797 15.5703 41.6797 15.8359H39.5C39.5078 15.375 39.625 14.9219 39.8516 14.4766C40.0859 14.0312 40.4219 13.6289 40.8594 13.2695C41.2891 12.918 41.8125 12.6328 42.4297 12.4141C43.0547 12.1953 43.7617 12.0859 44.5508 12.0859C45.2695 12.0859 45.9375 12.1758 46.5547 12.3555C47.1719 12.5273 47.707 12.7891 48.1602 13.1406C48.6055 13.5 48.957 13.9453 49.2148 14.4766C49.4727 15.0078 49.6016 15.6289 49.6016 16.3398V22.2344C49.6016 22.6562 49.6406 23.1055 49.7188 23.582C49.7969 24.0508 49.9062 24.4609 50.0469 24.8125V25H47.7852ZM43.9531 23.3477C44.375 23.3477 44.7695 23.293 45.1367 23.1836C45.5039 23.0742 45.8398 22.9297 46.1445 22.75C46.4414 22.5703 46.6992 22.3672 46.918 22.1406C47.1367 21.9062 47.3086 21.6641 47.4336 21.4141V18.8477H45.418C44.668 18.8477 44.0117 18.9141 43.4492 19.0469C42.8945 19.1719 42.4531 19.3672 42.125 19.6328C41.8906 19.8203 41.7109 20.043 41.5859 20.3008C41.4688 20.5586 41.4102 20.8516 41.4102 21.1797C41.4102 21.4922 41.4609 21.7812 41.5625 22.0469C41.6719 22.3125 41.832 22.5391 42.043 22.7266C42.2539 22.9219 42.5195 23.0742 42.8398 23.1836C43.1602 23.293 43.5312 23.3477 43.9531 23.3477ZM59.2695 23.4766C59.6602 23.4766 60.0391 23.4141 60.4062 23.2891C60.7812 23.1641 61.1133 22.9883 61.4023 22.7617C61.6914 22.543 61.9219 22.2852 62.0938 21.9883C62.2734 21.6836 62.3672 21.3555 62.375 21.0039H64.4258C64.418 21.5664 64.2695 22.1055 63.9805 22.6211C63.6992 23.1289 63.3203 23.5742 62.8438 23.957C62.3672 24.3477 61.8203 24.6602 61.2031 24.8945C60.5859 25.1211 59.9414 25.2344 59.2695 25.2344C58.3086 25.2344 57.4688 25.0625 56.75 24.7188C56.0312 24.375 55.4336 23.9102 54.957 23.3242C54.4727 22.7461 54.1094 22.0781 53.8672 21.3203C53.625 20.5547 53.5039 19.75 53.5039 18.9062V18.4141C53.5039 17.5781 53.625 16.7773 53.8672 16.0117C54.1094 15.2461 54.4727 14.5703 54.957 13.9844C55.4336 13.4062 56.0312 12.9453 56.75 12.6016C57.4688 12.2578 58.3086 12.0859 59.2695 12.0859C60.0195 12.0859 60.707 12.207 61.332 12.4492C61.9648 12.6836 62.5117 13.0039 62.9727 13.4102C63.4258 13.8242 63.7812 14.3125 64.0391 14.875C64.2969 15.4375 64.4258 16.0391 64.4258 16.6797H62.375C62.3672 16.2969 62.2812 15.9375 62.1172 15.6016C61.9609 15.2578 61.7461 14.957 61.4727 14.6992C61.1992 14.4414 60.8711 14.2383 60.4883 14.0898C60.1133 13.9414 59.707 13.8672 59.2695 13.8672C58.5977 13.8672 58.0312 14.0039 57.5703 14.2773C57.1172 14.543 56.75 14.8906 56.4688 15.3203C56.1875 15.7578 55.9844 16.2461 55.8594 16.7852C55.7422 17.3242 55.6836 17.8672 55.6836 18.4141V18.9062C55.6836 19.4609 55.7422 20.0117 55.8594 20.5586C55.9844 21.0977 56.1875 21.582 56.4688 22.0117C56.7422 22.4492 57.1055 22.8047 57.5586 23.0781C58.0195 23.3438 58.5898 23.4766 59.2695 23.4766ZM72.3945 19.5977H70.332V25H68.1641V12.3203H70.332V17.6875H72.207L76.9297 12.3203H79.5664L74.1289 18.4258L79.9883 25H77.2344L72.3945 19.5977ZM90.9453 12.3203H93.1133V25H90.9453V15.6484L84.7461 25H82.5898V12.3203H84.7461V21.6836L90.9453 12.3203Z" fill="#3F3F3F"/>
</svg>
