<svg width="11" height="12" viewBox="0 0 11 12" fill="none" xmlns="http://www.w3.org/2000/svg">
<path d="M6.5 7.27273H0.590909V6.02273H6.5C7.04545 6.02273 7.49621 5.92803 7.85227 5.73864C8.20833 5.54545 8.47349 5.28409 8.64773 4.95455C8.82197 4.62121 8.90909 4.24242 8.90909 3.81818C8.90909 3.39394 8.82197 3.01705 8.64773 2.6875C8.47349 2.35417 8.20833 2.0928 7.85227 1.90341C7.49621 1.71023 7.04545 1.61364 6.5 1.61364H3.84091V12H2.43182V0.363636H6.5C7.36364 0.363636 8.07576 0.520833 8.63636 0.835227C9.19697 1.14962 9.61364 1.56818 9.88636 2.09091C10.1591 2.61364 10.2955 3.18939 10.2955 3.81818C10.2955 4.44697 10.1591 5.02273 9.88636 5.54545C9.61364 6.06818 9.19697 6.48674 8.63636 6.80114C8.07576 7.11553 7.36364 7.27273 6.5 7.27273ZM6.40909 8.36364V9.61364H0.590909V8.36364H6.40909Z" fill="#7B7B7B"/>
</svg>
