<svg width="18" height="18" viewBox="0 0 18 18" fill="none" xmlns="http://www.w3.org/2000/svg">
<g id="vuesax/linear/star">
<g id="star">
<path id="Vector" d="M10.0954 2.5809L11.3895 5.16913C11.566 5.52943 12.0366 5.87501 12.4336 5.94119L14.7792 6.3309C16.2792 6.5809 16.6322 7.66913 15.5513 8.74266L13.7278 10.5662C13.4189 10.875 13.2498 11.4706 13.3454 11.8971L13.8675 14.1544C14.2792 15.9412 13.3307 16.6324 11.7498 15.6985L9.55129 14.3971C9.15423 14.1618 8.49982 14.1618 8.09541 14.3971L5.89688 15.6985C4.32335 16.6324 3.36747 15.9338 3.77923 14.1544L4.30129 11.8971C4.39688 11.4706 4.22776 10.875 3.91894 10.5662L2.09541 8.74266C1.02188 7.66913 1.36747 6.5809 2.86747 6.3309L5.21305 5.94119C5.60276 5.87501 6.07335 5.52943 6.24982 5.16913L7.54394 2.5809C8.24982 1.17648 9.39688 1.17648 10.0954 2.5809Z" stroke="#606060" stroke-width="1.5" stroke-linecap="round" stroke-linejoin="round"/>
</g>
</g>
</svg>
