<svg width="46" height="46" viewBox="0 0 46 46" fill="none" xmlns="http://www.w3.org/2000/svg">
<rect width="46" height="46" rx="11.5" fill="white"/>
<path fill-rule="evenodd" clip-rule="evenodd" d="M37.6742 15.847C37.8858 15.134 37.6742 14.6142 36.6576 14.6142H33.3042C32.4532 14.6142 32.0576 15.065 31.846 15.5618C31.846 15.5618 30.1394 19.7202 27.7244 22.4204C26.9424 23.2024 26.5882 23.4508 26.1604 23.4508C25.9488 23.4508 25.6406 23.2024 25.6406 22.4894V15.847C25.6406 14.996 25.3922 14.6142 24.6838 14.6142H19.4122C18.8786 14.6142 18.5566 15.0098 18.5566 15.387C18.5566 16.1966 19.7664 16.3806 19.8906 18.6576V23.598C19.8906 24.679 19.6928 24.8768 19.2696 24.8768C18.1334 24.8768 15.3688 20.7 13.7266 15.9206C13.4046 14.9914 13.0826 14.6188 12.227 14.6188H8.87363C7.91683 14.6188 7.72363 15.0696 7.72363 15.5664C7.72363 16.4542 8.85983 20.861 13.0182 26.6892C15.792 30.6682 19.6928 32.8256 23.2486 32.8256C25.3784 32.8256 25.6452 32.3472 25.6452 31.5192V28.5108C25.6452 27.554 25.8476 27.3608 26.5238 27.3608C27.0206 27.3608 27.8762 27.6092 29.8634 29.5274C32.1358 31.7998 32.513 32.821 33.7918 32.821H37.1452C38.102 32.821 38.5804 32.3426 38.3044 31.395C38.0008 30.452 36.9152 29.0858 35.4754 27.462C34.6934 26.5374 33.5204 25.5438 33.1662 25.047C32.6694 24.4076 32.812 24.1224 33.1662 23.5566C33.1616 23.5566 37.2464 17.802 37.6742 15.847Z" fill="black"/>
</svg>
