<svg xmlns="http://www.w3.org/2000/svg" width="46" height="46" viewBox="0 0 46 46" fill="none">
  <rect width="46" height="46" rx="11.5" fill="white"/>
  <path d="M27.2468 24.1367H25.4915C22.7347 24.1367 20.0612 22.4838 20.0612 18.3512C20.0612 14.0459 22.5674 12.29 25.1155 12.29H27.2468L27.2468 24.1367ZM30.0037 10.0862H25.2408C20.5628 10.0862 16.5939 13.0134 16.5939 18.6956C16.5939 22.1049 18.5163 24.6186 21.9406 25.8584L15.5504 35.3631C15.3417 35.6733 15.5504 35.9138 15.8836 35.9138H18.8494C19.1001 35.9138 19.2674 35.845 19.3508 35.6733L25.1572 26.3403H27.2468V35.6733C27.2468 35.7763 27.3721 35.9138 27.538 35.9138H30.129C30.3796 35.9138 30.4633 35.8105 30.4633 35.639V10.4309C30.4633 10.1892 30.296 10.0862 30.0036 10.0862" fill="black"/>
</svg>